<svg xmlns="http://www.w3.org/2000/svg" viewBox="0 0 340 280" width="340" height="280" style="font-family:-apple-system,Segoe UI,sans-serif" preserveAspectRatio="xMidYMid meet"><rect width="340" height="280" fill="#FFFFFF"/><rect x="140" y="14" width="60" height="26" fill="#8DD5F1" stroke="#0A80D5" stroke-width="1.5" rx="4" ry="4"/><text x="170" y="32" font-size="14" fill="#2B2B2B" text-anchor="middle" font-weight="500" font-family="Untitled Sans, -apple-system, sans-serif">Z</text><line x1="170" y1="40" x2="90" y2="90" stroke="#0A80D5" stroke-width="2"/><line x1="170" y1="40" x2="250" y2="90" stroke="#0A80D5" stroke-width="2"/><line x1="250" y1="90" x2="250" y2="200" stroke="#0A80D5" stroke-width="2"/><line x1="90" y1="90" x2="50" y2="150" stroke="#0A80D5" stroke-width="2"/><line x1="90" y1="90" x2="130" y2="150" stroke="#0A80D5" stroke-width="2"/><line x1="50" y1="150" x2="50" y2="200" stroke="#0A80D5" stroke-width="2"/><line x1="130" y1="150" x2="170" y2="200" stroke="#0A80D5" stroke-width="2"/><rect x="30" y="200" width="40" height="38" fill="#8DD5F1" stroke="#0A80D5" stroke-width="1.5" rx="4" ry="4"/><text x="50" y="224" font-size="14" fill="#2B2B2B" text-anchor="middle" font-weight="500" font-family="Untitled Sans, -apple-system, sans-serif">X</text><rect x="110" y="200" width="40" height="38" fill="#8DD5F1" stroke="#0A80D5" stroke-width="1.5" rx="4" ry="4"/><text x="130" y="224" font-size="14" fill="#2B2B2B" text-anchor="middle" font-weight="500" font-family="Untitled Sans, -apple-system, sans-serif">Y</text><rect x="150" y="200" width="40" height="38" fill="#8DD5F1" stroke="#0A80D5" stroke-width="1.5" rx="4" ry="4"/><text x="170" y="224" font-size="14" fill="#2B2B2B" text-anchor="middle" font-weight="500" font-family="Untitled Sans, -apple-system, sans-serif">Y</text><rect x="230" y="200" width="40" height="38" fill="#8DD5F1" stroke="#0A80D5" stroke-width="1.5" rx="4" ry="4"/><text x="250" y="224" font-size="14" fill="#2B2B2B" text-anchor="middle" font-weight="500" font-family="Untitled Sans, -apple-system, sans-serif">Y</text><text x="170" y="268" font-size="12" fill="#808080" text-anchor="middle" font-weight="500" font-family="Untitled Sans, -apple-system, sans-serif">1000 marbles into Z</text></svg>