<svg xmlns="http://www.w3.org/2000/svg" viewBox="0 0 416 172" width="416" height="172" style="font-family:-apple-system,Segoe UI,sans-serif" preserveAspectRatio="xMidYMid meet"><rect width="416" height="172" fill="#FFFFFF"/><text x="103.0" y="26" font-size="13" fill="#2B2B2B" text-anchor="middle" font-weight="600" font-family="Untitled Sans, -apple-system, sans-serif">Whole bar</text><rect x="24" y="40" width="38" height="100" fill="#EBBDEC" stroke="#850F85" stroke-width="2" rx="4" ry="4"/><rect x="64" y="40" width="38" height="100" fill="#EBBDEC" stroke="#850F85" stroke-width="2" rx="4" ry="4"/><rect x="104" y="40" width="38" height="100" fill="#EBBDEC" stroke="#850F85" stroke-width="2" rx="4" ry="4"/><rect x="144" y="40" width="38" height="100" fill="#EBBDEC" stroke="#850F85" stroke-width="2" rx="4" ry="4"/><text x="103.0" y="158" font-size="11" fill="#808080" text-anchor="middle" font-weight="500" font-family="Untitled Sans, -apple-system, sans-serif">= 1 whole</text><text x="202.0" y="98.0" font-size="26" fill="#2B2B2B" text-anchor="middle" font-weight="500" font-family="Untitled Sans, -apple-system, sans-serif">→</text><text x="297.0" y="26" font-size="13" fill="#2B2B2B" text-anchor="middle" font-weight="600" font-family="Untitled Sans, -apple-system, sans-serif">After you eat</text><text x="351.25" y="17" font-size="10" fill="#2B2B2B" text-anchor="middle" font-weight="600" font-family="Untitled Sans, -apple-system, sans-serif">1</text><line x1="343.25" y1="22" x2="359.25" y2="22" stroke="#2B2B2B" stroke-width="1.3"/><text x="351.25" y="33" font-size="10" fill="#2B2B2B" text-anchor="middle" font-weight="600" font-family="Untitled Sans, -apple-system, sans-serif">4</text><rect x="222" y="40" width="38" height="100" fill="#F4E6F4" stroke="#850F85" stroke-width="2" rx="4" ry="4"/><text x="241.0" y="94.0" font-size="11" fill="#808080" text-anchor="middle" font-weight="500" font-family="Untitled Sans, -apple-system, sans-serif">eaten</text><rect x="274" y="40" width="38" height="100" fill="#EBBDEC" stroke="#850F85" stroke-width="2" rx="4" ry="4"/><rect x="314" y="40" width="38" height="100" fill="#EBBDEC" stroke="#850F85" stroke-width="2" rx="4" ry="4"/><rect x="354" y="40" width="38" height="100" fill="#EBBDEC" stroke="#850F85" stroke-width="2" rx="4" ry="4"/><text x="310.0" y="158" font-size="11" fill="#808080" text-anchor="middle" font-weight="500" font-family="Untitled Sans, -apple-system, sans-serif">=</text><text x="324.75" y="149" font-size="10" fill="#808080" text-anchor="middle" font-weight="500" font-family="Untitled Sans, -apple-system, sans-serif">3</text><line x1="316.75" y1="154" x2="332.75" y2="154" stroke="#808080" stroke-width="1.3"/><text x="324.75" y="165" font-size="10" fill="#808080" text-anchor="middle" font-weight="500" font-family="Untitled Sans, -apple-system, sans-serif">4</text><text x="347.75" y="158" font-size="11" fill="#808080" text-anchor="middle" font-weight="500" font-family="Untitled Sans, -apple-system, sans-serif">left</text></svg>