<svg xmlns="http://www.w3.org/2000/svg" viewBox="0 0 416 172" width="416" height="172" style="font-family:-apple-system,Segoe UI,sans-serif" preserveAspectRatio="xMidYMid meet"><rect width="416" height="172" fill="#FFFFFF"/><text x="103.0" y="26" font-size="13" fill="#2B2B2B" text-anchor="middle" font-weight="600" font-family="Untitled Sans, -apple-system, sans-serif">Whole bar</text><rect x="24" y="40" width="38" height="100" fill="#EBBDEC" stroke="#850F85" stroke-width="2" rx="4" ry="4"/><rect x="64" y="40" width="38" height="100" fill="#EBBDEC" stroke="#850F85" stroke-width="2" rx="4" ry="4"/><rect x="104" y="40" width="38" height="100" fill="#EBBDEC" stroke="#850F85" stroke-width="2" rx="4" ry="4"/><rect x="144" y="40" width="38" height="100" fill="#EBBDEC" stroke="#850F85" stroke-width="2" rx="4" ry="4"/><text x="202.0" y="98.0" font-size="26" fill="#2B2B2B" text-anchor="middle" font-weight="500" font-family="Untitled Sans, -apple-system, sans-serif">→</text><text x="307.0" y="26" font-size="13" fill="#2B2B2B" text-anchor="middle" font-weight="600" font-family="Untitled Sans, -apple-system, sans-serif">After both bites</text><rect x="222" y="40" width="38" height="100" fill="#F4E6F4" stroke="#850F85" stroke-width="2" rx="4" ry="4"/><text x="241.0" y="94.0" font-size="11" fill="#808080" text-anchor="middle" font-weight="500" font-family="Untitled Sans, -apple-system, sans-serif">yours</text><rect x="274" y="40" width="38" height="100" fill="#8DD5F1" stroke="#850F85" stroke-width="2" rx="4" ry="4"/><text x="293.0" y="94.0" font-size="11" fill="#0A80D5" text-anchor="middle" font-weight="600" font-family="Untitled Sans, -apple-system, sans-serif">friend's</text><rect x="314" y="40" width="38" height="100" fill="#EBBDEC" stroke="#850F85" stroke-width="2" rx="4" ry="4"/><rect x="354" y="40" width="38" height="100" fill="#EBBDEC" stroke="#850F85" stroke-width="2" rx="4" ry="4"/></svg>