<svg xmlns="http://www.w3.org/2000/svg" viewBox="0 0 230 298" width="230" height="298" style="font-family:-apple-system,Segoe UI,sans-serif" preserveAspectRatio="xMidYMid meet"><rect width="230" height="298" fill="#FFFFFF"/><rect x="60.0" y="12" width="30" height="18" fill="#8DD5F1" stroke="#0A80D5" stroke-width="2" rx="0" ry="0"/><rect x="30" y="30" width="90" height="240" fill="#FFFFFF" stroke="#0A80D5" stroke-width="2" rx="6" ry="6"/><rect x="30" y="230.0" width="90" height="40.0" fill="#8DD5F1" stroke="#0A80D5" stroke-width="0.8" rx="0" ry="0"/><rect x="30" y="190.0" width="90" height="40.0" fill="#8DD5F1" stroke="#0A80D5" stroke-width="0.8" rx="0" ry="0"/><rect x="30" y="150.0" width="90" height="40.0" fill="#8DD5F1" stroke="#0A80D5" stroke-width="0.8" rx="0" ry="0"/><rect x="30" y="110.0" width="90" height="40.0" fill="#FFFFFF" stroke="#0A80D5" stroke-width="0.6" rx="0" ry="0"/><rect x="30" y="70.0" width="90" height="40.0" fill="#FFFFFF" stroke="#0A80D5" stroke-width="0.6" rx="0" ry="0"/><rect x="30" y="30.0" width="90" height="40.0" fill="#FFFFFF" stroke="#0A80D5" stroke-width="0.6" rx="0" ry="0"/><rect x="30" y="150.0" width="90" height="40.0" fill="#F8E08E" stroke="#0A80D5" stroke-width="1.2" rx="0" ry="0"/><text x="128" y="174.0" font-size="11" fill="#808080" text-anchor="start" font-weight="500" font-family="Untitled Sans, -apple-system, sans-serif">poured</text><text x="75.0" y="290" font-size="11" fill="#808080" text-anchor="middle" font-weight="500" font-family="Untitled Sans, -apple-system, sans-serif">Bottle in 6 equal slices</text></svg>