<svg xmlns="http://www.w3.org/2000/svg" viewBox="0 0 228 284" width="228" height="284" style="font-family:-apple-system,Segoe UI,sans-serif" preserveAspectRatio="xMidYMid meet"><rect width="228" height="284" fill="#FFFFFF"/><rect x="30" y="30" width="56" height="56" fill="#AFE8C2" stroke="#0A80D5" stroke-width="1.5" rx="0" ry="0"/><rect x="86" y="30" width="56" height="56" fill="#AFE8C2" stroke="#0A80D5" stroke-width="1.5" rx="0" ry="0"/><rect x="142" y="30" width="56" height="56" fill="#E5F4FB" stroke="#0A80D5" stroke-width="1.5" rx="0" ry="0"/><rect x="30" y="86" width="56" height="56" fill="#AFE8C2" stroke="#0A80D5" stroke-width="1.5" rx="0" ry="0"/><rect x="86" y="86" width="56" height="56" fill="#AFE8C2" stroke="#0A80D5" stroke-width="1.5" rx="0" ry="0"/><rect x="142" y="86" width="56" height="56" fill="#E5F4FB" stroke="#0A80D5" stroke-width="1.5" rx="0" ry="0"/><rect x="30" y="142" width="56" height="56" fill="#AFE8C2" stroke="#0A80D5" stroke-width="1.5" rx="0" ry="0"/><rect x="86" y="142" width="56" height="56" fill="#AFE8C2" stroke="#0A80D5" stroke-width="1.5" rx="0" ry="0"/><rect x="142" y="142" width="56" height="56" fill="#E5F4FB" stroke="#0A80D5" stroke-width="1.5" rx="0" ry="0"/><rect x="30" y="198" width="56" height="56" fill="#F8ECF8" stroke="#0A80D5" stroke-width="1.5" rx="0" ry="0"/><rect x="86" y="198" width="56" height="56" fill="#F8ECF8" stroke="#0A80D5" stroke-width="1.5" rx="0" ry="0"/><rect x="142" y="198" width="56" height="56" fill="#FFFFFF" stroke="#0A80D5" stroke-width="1.5" rx="0" ry="0"/><rect x="30" y="30" width="112" height="168" fill="none" stroke="#149A55" stroke-width="3.5" rx="0" ry="0"/></svg>