<svg xmlns="http://www.w3.org/2000/svg" viewBox="0 0 560 230" width="560" height="230" style="font-family:-apple-system,Segoe UI,sans-serif" preserveAspectRatio="xMidYMid meet"><rect width="560" height="230" fill="#FFFFFF"/><path d="M80.0,58.0 C80.0,54.0 73.0,54.0 73.0,60.0 C73.0,63.0 80.0,65.0 80.0,66.0 C80.0,65.0 87.0,63.0 87.0,60.0 C87.0,54.0 80.0,54.0 80.0,58.0 Z" fill="#2B2B2B" stroke="#2B2B2B" stroke-width="1" stroke-linejoin="round"/><path d="M102.0,58.0 C102.0,54.0 95.0,54.0 95.0,60.0 C95.0,63.0 102.0,65.0 102.0,66.0 C102.0,65.0 109.0,63.0 109.0,60.0 C109.0,54.0 102.0,54.0 102.0,58.0 Z" fill="#2B2B2B" stroke="#2B2B2B" stroke-width="1" stroke-linejoin="round"/><path d="M124.0,58.0 C124.0,54.0 117.0,54.0 117.0,60.0 C117.0,63.0 124.0,65.0 124.0,66.0 C124.0,65.0 131.0,63.0 131.0,60.0 C131.0,54.0 124.0,54.0 124.0,58.0 Z" fill="#2B2B2B" stroke="#2B2B2B" stroke-width="1" stroke-linejoin="round"/><path d="M146.0,58.0 C146.0,54.0 139.0,54.0 139.0,60.0 C139.0,63.0 146.0,65.0 146.0,66.0 C146.0,65.0 153.0,63.0 153.0,60.0 C153.0,54.0 146.0,54.0 146.0,58.0 Z" fill="#FFFFFF" stroke="#2B2B2B" stroke-width="1" stroke-linejoin="round"/><path d="M168.0,58.0 C168.0,54.0 161.0,54.0 161.0,60.0 C161.0,63.0 168.0,65.0 168.0,66.0 C168.0,65.0 175.0,63.0 175.0,60.0 C175.0,54.0 168.0,54.0 168.0,58.0 Z" fill="#FFFFFF" stroke="#2B2B2B" stroke-width="1" stroke-linejoin="round"/><path d="M190.0,58.0 C190.0,54.0 183.0,54.0 183.0,60.0 C183.0,63.0 190.0,65.0 190.0,66.0 C190.0,65.0 197.0,63.0 197.0,60.0 C197.0,54.0 190.0,54.0 190.0,58.0 Z" fill="#FFFFFF" stroke="#2B2B2B" stroke-width="1" stroke-linejoin="round"/><text x="70" y="64" font-size="12" fill="#808080" text-anchor="end" font-weight="500" font-family="Untitled Sans, -apple-system, BlinkMacSystemFont, &quot;Segoe UI&quot;, sans-serif">A</text><path d="M80.0,93.0 C80.0,89.0 73.0,89.0 73.0,95.0 C73.0,98.0 80.0,100.0 80.0,101.0 C80.0,100.0 87.0,98.0 87.0,95.0 C87.0,89.0 80.0,89.0 80.0,93.0 Z" fill="#2B2B2B" stroke="#2B2B2B" stroke-width="1" stroke-linejoin="round"/><path d="M102.0,93.0 C102.0,89.0 95.0,89.0 95.0,95.0 C95.0,98.0 102.0,100.0 102.0,101.0 C102.0,100.0 109.0,98.0 109.0,95.0 C109.0,89.0 102.0,89.0 102.0,93.0 Z" fill="#2B2B2B" stroke="#2B2B2B" stroke-width="1" stroke-linejoin="round"/><path d="M124.0,93.0 C124.0,89.0 117.0,89.0 117.0,95.0 C117.0,98.0 124.0,100.0 124.0,101.0 C124.0,100.0 131.0,98.0 131.0,95.0 C131.0,89.0 124.0,89.0 124.0,93.0 Z" fill="#FFFFFF" stroke="#2B2B2B" stroke-width="1" stroke-linejoin="round"/><path d="M146.0,93.0 C146.0,89.0 139.0,89.0 139.0,95.0 C139.0,98.0 146.0,100.0 146.0,101.0 C146.0,100.0 153.0,98.0 153.0,95.0 C153.0,89.0 146.0,89.0 146.0,93.0 Z" fill="#FFFFFF" stroke="#2B2B2B" stroke-width="1" stroke-linejoin="round"/><path d="M168.0,93.0 C168.0,89.0 161.0,89.0 161.0,95.0 C161.0,98.0 168.0,100.0 168.0,101.0 C168.0,100.0 175.0,98.0 175.0,95.0 C175.0,89.0 168.0,89.0 168.0,93.0 Z" fill="#FFFFFF" stroke="#2B2B2B" stroke-width="1" stroke-linejoin="round"/><path d="M190.0,93.0 C190.0,89.0 183.0,89.0 183.0,95.0 C183.0,98.0 190.0,100.0 190.0,101.0 C190.0,100.0 197.0,98.0 197.0,95.0 C197.0,89.0 190.0,89.0 190.0,93.0 Z" fill="#FFFFFF" stroke="#2B2B2B" stroke-width="1" stroke-linejoin="round"/><text x="70" y="99" font-size="12" fill="#808080" text-anchor="end" font-weight="500" font-family="Untitled Sans, -apple-system, BlinkMacSystemFont, &quot;Segoe UI&quot;, sans-serif">B</text><path d="M80.0,128.0 C80.0,124.0 73.0,124.0 73.0,130.0 C73.0,133.0 80.0,135.0 80.0,136.0 C80.0,135.0 87.0,133.0 87.0,130.0 C87.0,124.0 80.0,124.0 80.0,128.0 Z" fill="#2B2B2B" stroke="#2B2B2B" stroke-width="1" stroke-linejoin="round"/><path d="M102.0,128.0 C102.0,124.0 95.0,124.0 95.0,130.0 C95.0,133.0 102.0,135.0 102.0,136.0 C102.0,135.0 109.0,133.0 109.0,130.0 C109.0,124.0 102.0,124.0 102.0,128.0 Z" fill="#2B2B2B" stroke="#2B2B2B" stroke-width="1" stroke-linejoin="round"/><path d="M124.0,128.0 C124.0,124.0 117.0,124.0 117.0,130.0 C117.0,133.0 124.0,135.0 124.0,136.0 C124.0,135.0 131.0,133.0 131.0,130.0 C131.0,124.0 124.0,124.0 124.0,128.0 Z" fill="#2B2B2B" stroke="#2B2B2B" stroke-width="1" stroke-linejoin="round"/><path d="M146.0,128.0 C146.0,124.0 139.0,124.0 139.0,130.0 C139.0,133.0 146.0,135.0 146.0,136.0 C146.0,135.0 153.0,133.0 153.0,130.0 C153.0,124.0 146.0,124.0 146.0,128.0 Z" fill="#2B2B2B" stroke="#2B2B2B" stroke-width="1" stroke-linejoin="round"/><path d="M168.0,128.0 C168.0,124.0 161.0,124.0 161.0,130.0 C161.0,133.0 168.0,135.0 168.0,136.0 C168.0,135.0 175.0,133.0 175.0,130.0 C175.0,124.0 168.0,124.0 168.0,128.0 Z" fill="#2B2B2B" stroke="#2B2B2B" stroke-width="1" stroke-linejoin="round"/><path d="M190.0,128.0 C190.0,124.0 183.0,124.0 183.0,130.0 C183.0,133.0 190.0,135.0 190.0,136.0 C190.0,135.0 197.0,133.0 197.0,130.0 C197.0,124.0 190.0,124.0 190.0,128.0 Z" fill="#FFFFFF" stroke="#2B2B2B" stroke-width="1" stroke-linejoin="round"/><text x="70" y="134" font-size="12" fill="#808080" text-anchor="end" font-weight="500" font-family="Untitled Sans, -apple-system, BlinkMacSystemFont, &quot;Segoe UI&quot;, sans-serif">C</text><path d="M80.0,163.0 C80.0,159.0 73.0,159.0 73.0,165.0 C73.0,168.0 80.0,170.0 80.0,171.0 C80.0,170.0 87.0,168.0 87.0,165.0 C87.0,159.0 80.0,159.0 80.0,163.0 Z" fill="#2B2B2B" stroke="#2B2B2B" stroke-width="1" stroke-linejoin="round"/><path d="M102.0,163.0 C102.0,159.0 95.0,159.0 95.0,165.0 C95.0,168.0 102.0,170.0 102.0,171.0 C102.0,170.0 109.0,168.0 109.0,165.0 C109.0,159.0 102.0,159.0 102.0,163.0 Z" fill="#2B2B2B" stroke="#2B2B2B" stroke-width="1" stroke-linejoin="round"/><path d="M124.0,163.0 C124.0,159.0 117.0,159.0 117.0,165.0 C117.0,168.0 124.0,170.0 124.0,171.0 C124.0,170.0 131.0,168.0 131.0,165.0 C131.0,159.0 124.0,159.0 124.0,163.0 Z" fill="#2B2B2B" stroke="#2B2B2B" stroke-width="1" stroke-linejoin="round"/><path d="M146.0,163.0 C146.0,159.0 139.0,159.0 139.0,165.0 C139.0,168.0 146.0,170.0 146.0,171.0 C146.0,170.0 153.0,168.0 153.0,165.0 C153.0,159.0 146.0,159.0 146.0,163.0 Z" fill="#2B2B2B" stroke="#2B2B2B" stroke-width="1" stroke-linejoin="round"/><path d="M168.0,163.0 C168.0,159.0 161.0,159.0 161.0,165.0 C161.0,168.0 168.0,170.0 168.0,171.0 C168.0,170.0 175.0,168.0 175.0,165.0 C175.0,159.0 168.0,159.0 168.0,163.0 Z" fill="#2B2B2B" stroke="#2B2B2B" stroke-width="1" stroke-linejoin="round"/><path d="M190.0,163.0 C190.0,159.0 183.0,159.0 183.0,165.0 C183.0,168.0 190.0,170.0 190.0,171.0 C190.0,170.0 197.0,168.0 197.0,165.0 C197.0,159.0 190.0,159.0 190.0,163.0 Z" fill="#2B2B2B" stroke="#2B2B2B" stroke-width="1" stroke-linejoin="round"/><path d="M212.0,163.0 C212.0,159.0 205.0,159.0 205.0,165.0 C205.0,168.0 212.0,170.0 212.0,171.0 C212.0,170.0 219.0,168.0 219.0,165.0 C219.0,159.0 212.0,159.0 212.0,163.0 Z" fill="#FFFFFF" stroke="#2B2B2B" stroke-width="1" stroke-linejoin="round"/><path d="M234.0,163.0 C234.0,159.0 227.0,159.0 227.0,165.0 C227.0,168.0 234.0,170.0 234.0,171.0 C234.0,170.0 241.0,168.0 241.0,165.0 C241.0,159.0 234.0,159.0 234.0,163.0 Z" fill="#FFFFFF" stroke="#2B2B2B" stroke-width="1" stroke-linejoin="round"/><path d="M256.0,163.0 C256.0,159.0 249.0,159.0 249.0,165.0 C249.0,168.0 256.0,170.0 256.0,171.0 C256.0,170.0 263.0,168.0 263.0,165.0 C263.0,159.0 256.0,159.0 256.0,163.0 Z" fill="#FFFFFF" stroke="#2B2B2B" stroke-width="1" stroke-linejoin="round"/><text x="70" y="169" font-size="12" fill="#808080" text-anchor="end" font-weight="500" font-family="Untitled Sans, -apple-system, BlinkMacSystemFont, &quot;Segoe UI&quot;, sans-serif">D</text><path d="M80.0,198.0 C80.0,194.0 73.0,194.0 73.0,200.0 C73.0,203.0 80.0,205.0 80.0,206.0 C80.0,205.0 87.0,203.0 87.0,200.0 C87.0,194.0 80.0,194.0 80.0,198.0 Z" fill="#2B2B2B" stroke="#2B2B2B" stroke-width="1" stroke-linejoin="round"/><path d="M102.0,198.0 C102.0,194.0 95.0,194.0 95.0,200.0 C95.0,203.0 102.0,205.0 102.0,206.0 C102.0,205.0 109.0,203.0 109.0,200.0 C109.0,194.0 102.0,194.0 102.0,198.0 Z" fill="#FFFFFF" stroke="#2B2B2B" stroke-width="1" stroke-linejoin="round"/><path d="M124.0,198.0 C124.0,194.0 117.0,194.0 117.0,200.0 C117.0,203.0 124.0,205.0 124.0,206.0 C124.0,205.0 131.0,203.0 131.0,200.0 C131.0,194.0 124.0,194.0 124.0,198.0 Z" fill="#FFFFFF" stroke="#2B2B2B" stroke-width="1" stroke-linejoin="round"/><path d="M146.0,198.0 C146.0,194.0 139.0,194.0 139.0,200.0 C139.0,203.0 146.0,205.0 146.0,206.0 C146.0,205.0 153.0,203.0 153.0,200.0 C153.0,194.0 146.0,194.0 146.0,198.0 Z" fill="#FFFFFF" stroke="#2B2B2B" stroke-width="1" stroke-linejoin="round"/><path d="M168.0,198.0 C168.0,194.0 161.0,194.0 161.0,200.0 C161.0,203.0 168.0,205.0 168.0,206.0 C168.0,205.0 175.0,203.0 175.0,200.0 C175.0,194.0 168.0,194.0 168.0,198.0 Z" fill="#FFFFFF" stroke="#2B2B2B" stroke-width="1" stroke-linejoin="round"/><path d="M190.0,198.0 C190.0,194.0 183.0,194.0 183.0,200.0 C183.0,203.0 190.0,205.0 190.0,206.0 C190.0,205.0 197.0,203.0 197.0,200.0 C197.0,194.0 190.0,194.0 190.0,198.0 Z" fill="#FFFFFF" stroke="#2B2B2B" stroke-width="1" stroke-linejoin="round"/><text x="70" y="204" font-size="12" fill="#808080" text-anchor="end" font-weight="500" font-family="Untitled Sans, -apple-system, BlinkMacSystemFont, &quot;Segoe UI&quot;, sans-serif">E</text></svg>