<svg xmlns="http://www.w3.org/2000/svg" viewBox="0 0 440 250" width="440" height="250" style="font-family:-apple-system,Segoe UI,sans-serif" preserveAspectRatio="xMidYMid meet"><rect width="440" height="250" fill="#FFFFFF"/><text x="220" y="24" font-size="13" fill="#808080" text-anchor="middle" font-weight="500" font-family="Untitled Sans, -apple-system, BlinkMacSystemFont, &quot;Segoe UI&quot;, sans-serif">A bag of 24 marbles</text><circle cx="95.0" cy="60.0" r="18.0" fill="#FFFFFF" stroke="#850F85" stroke-width="2"/><circle cx="145.0" cy="60.0" r="18.0" fill="#FFFFFF" stroke="#850F85" stroke-width="2"/><circle cx="195.0" cy="60.0" r="18.0" fill="#FFFFFF" stroke="#850F85" stroke-width="2"/><circle cx="245.0" cy="60.0" r="18.0" fill="#FFFFFF" stroke="#850F85" stroke-width="2"/><circle cx="295.0" cy="60.0" r="18.0" fill="#FFFFFF" stroke="#850F85" stroke-width="2"/><circle cx="345.0" cy="60.0" r="18.0" fill="#FFFFFF" stroke="#850F85" stroke-width="2"/><circle cx="95.0" cy="102.0" r="18.0" fill="#FFFFFF" stroke="#850F85" stroke-width="2"/><circle cx="145.0" cy="102.0" r="18.0" fill="#FFFFFF" stroke="#850F85" stroke-width="2"/><circle cx="195.0" cy="102.0" r="18.0" fill="#FFFFFF" stroke="#850F85" stroke-width="2"/><circle cx="245.0" cy="102.0" r="18.0" fill="#FFFFFF" stroke="#850F85" stroke-width="2"/><circle cx="295.0" cy="102.0" r="18.0" fill="#FFFFFF" stroke="#850F85" stroke-width="2"/><circle cx="345.0" cy="102.0" r="18.0" fill="#FFFFFF" stroke="#850F85" stroke-width="2"/><circle cx="95.0" cy="144.0" r="18.0" fill="#FFFFFF" stroke="#850F85" stroke-width="2"/><circle cx="145.0" cy="144.0" r="18.0" fill="#FFFFFF" stroke="#850F85" stroke-width="2"/><circle cx="195.0" cy="144.0" r="18.0" fill="#FFFFFF" stroke="#850F85" stroke-width="2"/><circle cx="245.0" cy="144.0" r="18.0" fill="#FFFFFF" stroke="#850F85" stroke-width="2"/><circle cx="295.0" cy="144.0" r="18.0" fill="#FFFFFF" stroke="#850F85" stroke-width="2"/><circle cx="345.0" cy="144.0" r="18.0" fill="#FFFFFF" stroke="#850F85" stroke-width="2"/><circle cx="95.0" cy="186.0" r="18.0" fill="#FFFFFF" stroke="#850F85" stroke-width="2"/><circle cx="145.0" cy="186.0" r="18.0" fill="#FFFFFF" stroke="#850F85" stroke-width="2"/><circle cx="195.0" cy="186.0" r="18.0" fill="#FFFFFF" stroke="#850F85" stroke-width="2"/><circle cx="245.0" cy="186.0" r="18.0" fill="#FFFFFF" stroke="#850F85" stroke-width="2"/><circle cx="295.0" cy="186.0" r="18.0" fill="#FFFFFF" stroke="#850F85" stroke-width="2"/><circle cx="345.0" cy="186.0" r="18.0" fill="#FFFFFF" stroke="#850F85" stroke-width="2"/><text x="171.6" y="224.3" font-size="11" fill="#808080" text-anchor="middle" font-weight="500" font-family="Untitled Sans, -apple-system, BlinkMacSystemFont, &quot;Segoe UI&quot;, sans-serif">1</text><line x1="166.2" y1="228.2" x2="177.0" y2="228.2" stroke="#808080" stroke-width="1.3" stroke-linecap="round"/><text x="171.6" y="238.6" font-size="11" fill="#808080" text-anchor="middle" font-weight="500" font-family="Untitled Sans, -apple-system, BlinkMacSystemFont, &quot;Segoe UI&quot;, sans-serif">4</text><text x="227.41" y="232" font-size="11" fill="#808080" text-anchor="middle" font-weight="500" font-family="Untitled Sans, -apple-system, BlinkMacSystemFont, &quot;Segoe UI&quot;, sans-serif"> of them are red</text></svg>