<svg xmlns="http://www.w3.org/2000/svg" viewBox="0 0 640 200" width="640" height="200" style="font-family:-apple-system,Segoe UI,sans-serif" preserveAspectRatio="xMidYMid meet"><rect width="640" height="200" fill="#FFFFFF"/><text x="220" y="24" font-size="12" fill="#808080" text-anchor="middle" font-weight="500" font-family="Untitled Sans, -apple-system, BlinkMacSystemFont, &quot;Segoe UI&quot;, sans-serif">Three quantities — take a fraction of each</text><circle cx="40.0" cy="60.0" r="8.0" fill="#FFFFFF" stroke="#850F85" stroke-width="1.5"/><circle cx="62.0" cy="60.0" r="8.0" fill="#FFFFFF" stroke="#850F85" stroke-width="1.5"/><circle cx="84.0" cy="60.0" r="8.0" fill="#FFFFFF" stroke="#850F85" stroke-width="1.5"/><circle cx="106.0" cy="60.0" r="8.0" fill="#FFFFFF" stroke="#850F85" stroke-width="1.5"/><circle cx="128.0" cy="60.0" r="8.0" fill="#FFFFFF" stroke="#850F85" stroke-width="1.5"/><circle cx="150.0" cy="60.0" r="8.0" fill="#FFFFFF" stroke="#850F85" stroke-width="1.5"/><circle cx="172.0" cy="60.0" r="8.0" fill="#FFFFFF" stroke="#850F85" stroke-width="1.5"/><circle cx="194.0" cy="60.0" r="8.0" fill="#FFFFFF" stroke="#850F85" stroke-width="1.5"/><circle cx="216.0" cy="60.0" r="8.0" fill="#FFFFFF" stroke="#850F85" stroke-width="1.5"/><circle cx="238.0" cy="60.0" r="8.0" fill="#FFFFFF" stroke="#850F85" stroke-width="1.5"/><circle cx="260.0" cy="60.0" r="8.0" fill="#FFFFFF" stroke="#850F85" stroke-width="1.5"/><circle cx="282.0" cy="60.0" r="8.0" fill="#FFFFFF" stroke="#850F85" stroke-width="1.5"/><circle cx="304.0" cy="60.0" r="8.0" fill="#FFFFFF" stroke="#850F85" stroke-width="1.5"/><circle cx="326.0" cy="60.0" r="8.0" fill="#FFFFFF" stroke="#850F85" stroke-width="1.5"/><circle cx="348.0" cy="60.0" r="8.0" fill="#FFFFFF" stroke="#850F85" stroke-width="1.5"/><circle cx="370.0" cy="60.0" r="8.0" fill="#FFFFFF" stroke="#850F85" stroke-width="1.5"/><circle cx="392.0" cy="60.0" r="8.0" fill="#FFFFFF" stroke="#850F85" stroke-width="1.5"/><circle cx="414.0" cy="60.0" r="8.0" fill="#FFFFFF" stroke="#850F85" stroke-width="1.5"/><circle cx="436.0" cy="60.0" r="8.0" fill="#FFFFFF" stroke="#850F85" stroke-width="1.5"/><circle cx="458.0" cy="60.0" r="8.0" fill="#FFFFFF" stroke="#850F85" stroke-width="1.5"/><text x="503.41" y="56.3" font-size="11" fill="#2B2B2B" text-anchor="middle" font-weight="500" font-family="Untitled Sans, -apple-system, BlinkMacSystemFont, &quot;Segoe UI&quot;, sans-serif">1</text><line x1="498.0" y1="60.1" x2="508.8" y2="60.1" stroke="#2B2B2B" stroke-width="1.3" stroke-linecap="round"/><text x="503.41" y="70.6" font-size="11" fill="#2B2B2B" text-anchor="middle" font-weight="500" font-family="Untitled Sans, -apple-system, BlinkMacSystemFont, &quot;Segoe UI&quot;, sans-serif">4</text><text x="528.97" y="64" font-size="11" fill="#2B2B2B" text-anchor="middle" font-weight="500" font-family="Untitled Sans, -apple-system, BlinkMacSystemFont, &quot;Segoe UI&quot;, sans-serif"> of 20</text><circle cx="40.0" cy="110.0" r="8.0" fill="#FFFFFF" stroke="#850F85" stroke-width="1.5"/><circle cx="62.0" cy="110.0" r="8.0" fill="#FFFFFF" stroke="#850F85" stroke-width="1.5"/><circle cx="84.0" cy="110.0" r="8.0" fill="#FFFFFF" stroke="#850F85" stroke-width="1.5"/><circle cx="106.0" cy="110.0" r="8.0" fill="#FFFFFF" stroke="#850F85" stroke-width="1.5"/><circle cx="128.0" cy="110.0" r="8.0" fill="#FFFFFF" stroke="#850F85" stroke-width="1.5"/><circle cx="150.0" cy="110.0" r="8.0" fill="#FFFFFF" stroke="#850F85" stroke-width="1.5"/><circle cx="172.0" cy="110.0" r="8.0" fill="#FFFFFF" stroke="#850F85" stroke-width="1.5"/><circle cx="194.0" cy="110.0" r="8.0" fill="#FFFFFF" stroke="#850F85" stroke-width="1.5"/><circle cx="216.0" cy="110.0" r="8.0" fill="#FFFFFF" stroke="#850F85" stroke-width="1.5"/><circle cx="238.0" cy="110.0" r="8.0" fill="#FFFFFF" stroke="#850F85" stroke-width="1.5"/><circle cx="260.0" cy="110.0" r="8.0" fill="#FFFFFF" stroke="#850F85" stroke-width="1.5"/><circle cx="282.0" cy="110.0" r="8.0" fill="#FFFFFF" stroke="#850F85" stroke-width="1.5"/><circle cx="304.0" cy="110.0" r="8.0" fill="#FFFFFF" stroke="#850F85" stroke-width="1.5"/><circle cx="326.0" cy="110.0" r="8.0" fill="#FFFFFF" stroke="#850F85" stroke-width="1.5"/><circle cx="348.0" cy="110.0" r="8.0" fill="#FFFFFF" stroke="#850F85" stroke-width="1.5"/><circle cx="370.0" cy="110.0" r="8.0" fill="#FFFFFF" stroke="#850F85" stroke-width="1.5"/><circle cx="392.0" cy="110.0" r="8.0" fill="#FFFFFF" stroke="#850F85" stroke-width="1.5"/><circle cx="414.0" cy="110.0" r="8.0" fill="#FFFFFF" stroke="#850F85" stroke-width="1.5"/><text x="459.41" y="106.30000000000001" font-size="11" fill="#2B2B2B" text-anchor="middle" font-weight="500" font-family="Untitled Sans, -apple-system, BlinkMacSystemFont, &quot;Segoe UI&quot;, sans-serif">2</text><line x1="454.0" y1="110.2" x2="464.8" y2="110.2" stroke="#2B2B2B" stroke-width="1.3" stroke-linecap="round"/><text x="459.41" y="120.60000000000001" font-size="11" fill="#2B2B2B" text-anchor="middle" font-weight="500" font-family="Untitled Sans, -apple-system, BlinkMacSystemFont, &quot;Segoe UI&quot;, sans-serif">3</text><text x="484.96999999999997" y="114" font-size="11" fill="#2B2B2B" text-anchor="middle" font-weight="500" font-family="Untitled Sans, -apple-system, BlinkMacSystemFont, &quot;Segoe UI&quot;, sans-serif"> of 18</text><circle cx="40.0" cy="160.0" r="6.0" fill="#FFFFFF" stroke="#850F85" stroke-width="1.5"/><circle cx="54.0" cy="160.0" r="6.0" fill="#FFFFFF" stroke="#850F85" stroke-width="1.5"/><circle cx="68.0" cy="160.0" r="6.0" fill="#FFFFFF" stroke="#850F85" stroke-width="1.5"/><circle cx="82.0" cy="160.0" r="6.0" fill="#FFFFFF" stroke="#850F85" stroke-width="1.5"/><circle cx="96.0" cy="160.0" r="6.0" fill="#FFFFFF" stroke="#850F85" stroke-width="1.5"/><circle cx="110.0" cy="160.0" r="6.0" fill="#FFFFFF" stroke="#850F85" stroke-width="1.5"/><circle cx="124.0" cy="160.0" r="6.0" fill="#FFFFFF" stroke="#850F85" stroke-width="1.5"/><circle cx="138.0" cy="160.0" r="6.0" fill="#FFFFFF" stroke="#850F85" stroke-width="1.5"/><circle cx="152.0" cy="160.0" r="6.0" fill="#FFFFFF" stroke="#850F85" stroke-width="1.5"/><circle cx="166.0" cy="160.0" r="6.0" fill="#FFFFFF" stroke="#850F85" stroke-width="1.5"/><circle cx="180.0" cy="160.0" r="6.0" fill="#FFFFFF" stroke="#850F85" stroke-width="1.5"/><circle cx="194.0" cy="160.0" r="6.0" fill="#FFFFFF" stroke="#850F85" stroke-width="1.5"/><circle cx="208.0" cy="160.0" r="6.0" fill="#FFFFFF" stroke="#850F85" stroke-width="1.5"/><circle cx="222.0" cy="160.0" r="6.0" fill="#FFFFFF" stroke="#850F85" stroke-width="1.5"/><circle cx="236.0" cy="160.0" r="6.0" fill="#FFFFFF" stroke="#850F85" stroke-width="1.5"/><circle cx="250.0" cy="160.0" r="6.0" fill="#FFFFFF" stroke="#850F85" stroke-width="1.5"/><circle cx="264.0" cy="160.0" r="6.0" fill="#FFFFFF" stroke="#850F85" stroke-width="1.5"/><circle cx="278.0" cy="160.0" r="6.0" fill="#FFFFFF" stroke="#850F85" stroke-width="1.5"/><circle cx="292.0" cy="160.0" r="6.0" fill="#FFFFFF" stroke="#850F85" stroke-width="1.5"/><circle cx="306.0" cy="160.0" r="6.0" fill="#FFFFFF" stroke="#850F85" stroke-width="1.5"/><circle cx="320.0" cy="160.0" r="6.0" fill="#FFFFFF" stroke="#850F85" stroke-width="1.5"/><circle cx="334.0" cy="160.0" r="6.0" fill="#FFFFFF" stroke="#850F85" stroke-width="1.5"/><circle cx="348.0" cy="160.0" r="6.0" fill="#FFFFFF" stroke="#850F85" stroke-width="1.5"/><circle cx="362.0" cy="160.0" r="6.0" fill="#FFFFFF" stroke="#850F85" stroke-width="1.5"/><circle cx="376.0" cy="160.0" r="6.0" fill="#FFFFFF" stroke="#850F85" stroke-width="1.5"/><circle cx="390.0" cy="160.0" r="6.0" fill="#FFFFFF" stroke="#850F85" stroke-width="1.5"/><circle cx="404.0" cy="160.0" r="6.0" fill="#FFFFFF" stroke="#850F85" stroke-width="1.5"/><circle cx="418.0" cy="160.0" r="6.0" fill="#FFFFFF" stroke="#850F85" stroke-width="1.5"/><circle cx="432.0" cy="160.0" r="6.0" fill="#FFFFFF" stroke="#850F85" stroke-width="1.5"/><circle cx="446.0" cy="160.0" r="6.0" fill="#FFFFFF" stroke="#850F85" stroke-width="1.5"/><text x="483.41" y="156.3" font-size="11" fill="#2B2B2B" text-anchor="middle" font-weight="500" font-family="Untitled Sans, -apple-system, BlinkMacSystemFont, &quot;Segoe UI&quot;, sans-serif">5</text><line x1="478.0" y1="160.2" x2="488.8" y2="160.2" stroke="#2B2B2B" stroke-width="1.3" stroke-linecap="round"/><text x="483.41" y="170.6" font-size="11" fill="#2B2B2B" text-anchor="middle" font-weight="500" font-family="Untitled Sans, -apple-system, BlinkMacSystemFont, &quot;Segoe UI&quot;, sans-serif">6</text><text x="508.96999999999997" y="164" font-size="11" fill="#2B2B2B" text-anchor="middle" font-weight="500" font-family="Untitled Sans, -apple-system, BlinkMacSystemFont, &quot;Segoe UI&quot;, sans-serif"> of 30</text></svg>