<svg xmlns="http://www.w3.org/2000/svg" viewBox="0 0 280 250" width="280" height="250" style="font-family:-apple-system,Segoe UI,sans-serif" preserveAspectRatio="xMidYMid meet"><rect width="280" height="250" fill="#FFFFFF"/><text x="140" y="24" font-size="12" fill="#808080" text-anchor="middle" font-weight="500" font-family="Untitled Sans, -apple-system, BlinkMacSystemFont, &quot;Segoe UI&quot;, sans-serif">Pizza cut into 6 equal slices</text><path d="M140.0,130.0 L140.0,40.0 A90.0,90.0 0 0 1 217.9,85.0 Z" fill="#FFFFFF" stroke="#850F85" stroke-width="2" stroke-linejoin="round"/><path d="M140.0,130.0 L217.9,85.0 A90.0,90.0 0 0 1 217.9,175.0 Z" fill="#FFFFFF" stroke="#850F85" stroke-width="2" stroke-linejoin="round"/><path d="M140.0,130.0 L217.9,175.0 A90.0,90.0 0 0 1 140.0,220.0 Z" fill="#FFFFFF" stroke="#850F85" stroke-width="2" stroke-linejoin="round"/><path d="M140.0,130.0 L140.0,220.0 A90.0,90.0 0 0 1 62.1,175.0 Z" fill="#FFFFFF" stroke="#850F85" stroke-width="2" stroke-linejoin="round"/><path d="M140.0,130.0 L62.1,175.0 A90.0,90.0 0 0 1 62.1,85.0 Z" fill="#FFFFFF" stroke="#850F85" stroke-width="2" stroke-linejoin="round"/><path d="M140.0,130.0 L62.1,85.0 A90.0,90.0 0 0 1 140.0,40.0 Z" fill="#FFFFFF" stroke="#850F85" stroke-width="2" stroke-linejoin="round"/></svg>