<svg xmlns="http://www.w3.org/2000/svg" viewBox="0 0 850 80" width="850" height="80" style="font-family:-apple-system,Segoe UI,sans-serif" preserveAspectRatio="xMidYMid meet"><rect width="850" height="80" fill="#FFFFFF"/><circle cx="34" cy="40.0" r="14" fill="#8DD5F1" stroke="#0A80D5" stroke-width="1.5"/><circle cx="68" cy="40.0" r="14" fill="#8DD5F1" stroke="#0A80D5" stroke-width="1.5"/><circle cx="102" cy="40.0" r="14" fill="#8DD5F1" stroke="#0A80D5" stroke-width="1.5"/><circle cx="136" cy="40.0" r="14" fill="#8DD5F1" stroke="#0A80D5" stroke-width="1.5"/><circle cx="170" cy="40.0" r="14" fill="#8DD5F1" stroke="#0A80D5" stroke-width="1.5"/><circle cx="204" cy="40.0" r="14" fill="#8DD5F1" stroke="#0A80D5" stroke-width="1.5"/><circle cx="238" cy="40.0" r="14" fill="#8DD5F1" stroke="#0A80D5" stroke-width="1.5"/><circle cx="272" cy="40.0" r="14" fill="#8DD5F1" stroke="#0A80D5" stroke-width="1.5"/><circle cx="306" cy="40.0" r="14" fill="#8DD5F1" stroke="#0A80D5" stroke-width="1.5"/><circle cx="340" cy="40.0" r="14" fill="#8DD5F1" stroke="#0A80D5" stroke-width="1.5"/><circle cx="374" cy="40.0" r="14" fill="#8DD5F1" stroke="#0A80D5" stroke-width="1.5"/><circle cx="408" cy="40.0" r="14" fill="#8DD5F1" stroke="#0A80D5" stroke-width="1.5"/><circle cx="442" cy="40.0" r="14" fill="#8DD5F1" stroke="#0A80D5" stroke-width="1.5"/><circle cx="476" cy="40.0" r="14" fill="#8DD5F1" stroke="#0A80D5" stroke-width="1.5"/><circle cx="510" cy="40.0" r="14" fill="#8DD5F1" stroke="#0A80D5" stroke-width="1.5"/><circle cx="544" cy="40.0" r="14" fill="#8DD5F1" stroke="#0A80D5" stroke-width="1.5"/><circle cx="578" cy="40.0" r="14" fill="#8DD5F1" stroke="#0A80D5" stroke-width="1.5"/><circle cx="612" cy="40.0" r="14" fill="#8DD5F1" stroke="#0A80D5" stroke-width="1.5"/><circle cx="646" cy="40.0" r="14" fill="#8DD5F1" stroke="#0A80D5" stroke-width="1.5"/><circle cx="680" cy="40.0" r="14" fill="#8DD5F1" stroke="#0A80D5" stroke-width="1.5"/><circle cx="714" cy="40.0" r="14" fill="#8DD5F1" stroke="#0A80D5" stroke-width="1.5"/><circle cx="748" cy="40.0" r="14" fill="#8DD5F1" stroke="#0A80D5" stroke-width="1.5"/><circle cx="782" cy="40.0" r="14" fill="#8DD5F1" stroke="#0A80D5" stroke-width="1.5"/><circle cx="816" cy="40.0" r="14" fill="#8DD5F1" stroke="#0A80D5" stroke-width="1.5"/></svg>