<svg xmlns="http://www.w3.org/2000/svg" viewBox="0 0 360 70" width="360" height="70" style="font-family:-apple-system,Segoe UI,sans-serif" preserveAspectRatio="xMidYMid meet"><rect width="360" height="70" fill="#FFFFFF"/><rect x="20" y="22" width="320" height="30" fill="#8DD5F1" stroke="#0A80D5" stroke-width="1.5" rx="2" ry="2"/><line x1="37.77777777777778" y1="22" x2="37.77777777777778" y2="52" stroke="#FFFFFF" stroke-width="1.5"/><line x1="55.55555555555556" y1="22" x2="55.55555555555556" y2="52" stroke="#FFFFFF" stroke-width="1.5"/><line x1="73.33333333333334" y1="22" x2="73.33333333333334" y2="52" stroke="#FFFFFF" stroke-width="1.5"/><line x1="91.11111111111111" y1="22" x2="91.11111111111111" y2="52" stroke="#FFFFFF" stroke-width="1.5"/><line x1="108.88888888888889" y1="22" x2="108.88888888888889" y2="52" stroke="#FFFFFF" stroke-width="1.5"/><line x1="126.66666666666667" y1="22" x2="126.66666666666667" y2="52" stroke="#FFFFFF" stroke-width="1.5"/><line x1="144.44444444444446" y1="22" x2="144.44444444444446" y2="52" stroke="#FFFFFF" stroke-width="1.5"/><line x1="162.22222222222223" y1="22" x2="162.22222222222223" y2="52" stroke="#FFFFFF" stroke-width="1.5"/><line x1="180.0" y1="22" x2="180.0" y2="52" stroke="#FFFFFF" stroke-width="1.5"/><line x1="197.77777777777777" y1="22" x2="197.77777777777777" y2="52" stroke="#FFFFFF" stroke-width="1.5"/><line x1="215.55555555555557" y1="22" x2="215.55555555555557" y2="52" stroke="#FFFFFF" stroke-width="1.5"/><line x1="233.33333333333334" y1="22" x2="233.33333333333334" y2="52" stroke="#FFFFFF" stroke-width="1.5"/><line x1="251.11111111111111" y1="22" x2="251.11111111111111" y2="52" stroke="#FFFFFF" stroke-width="1.5"/><line x1="268.8888888888889" y1="22" x2="268.8888888888889" y2="52" stroke="#FFFFFF" stroke-width="1.5"/><line x1="286.6666666666667" y1="22" x2="286.6666666666667" y2="52" stroke="#FFFFFF" stroke-width="1.5"/><line x1="304.44444444444446" y1="22" x2="304.44444444444446" y2="52" stroke="#FFFFFF" stroke-width="1.5"/><line x1="322.22222222222223" y1="22" x2="322.22222222222223" y2="52" stroke="#FFFFFF" stroke-width="1.5"/></svg>