<svg xmlns="http://www.w3.org/2000/svg" viewBox="0 0 600 200" width="600" height="200" style="font-family:-apple-system,Segoe UI,sans-serif" preserveAspectRatio="xMidYMid meet"><rect width="600" height="200" fill="#FFFFFF"/><rect x="20" y="30" width="56" height="110" fill="#8DD5F1" stroke="#0A80D5" stroke-width="1.5" rx="4" ry="4"/><text x="48.0" y="160" font-size="10" fill="#808080" text-anchor="middle" font-weight="500" font-family="Untitled Sans, -apple-system, sans-serif">1 carton</text><rect x="84" y="30" width="56" height="110" fill="#8DD5F1" stroke="#0A80D5" stroke-width="1.5" rx="4" ry="4"/><text x="112.0" y="160" font-size="10" fill="#808080" text-anchor="middle" font-weight="500" font-family="Untitled Sans, -apple-system, sans-serif">1 carton</text><rect x="148" y="30" width="56" height="110" fill="#8DD5F1" stroke="#0A80D5" stroke-width="1.5" rx="4" ry="4"/><text x="176.0" y="160" font-size="10" fill="#808080" text-anchor="middle" font-weight="500" font-family="Untitled Sans, -apple-system, sans-serif">1 carton</text><rect x="212" y="30" width="56" height="110" fill="#8DD5F1" stroke="#0A80D5" stroke-width="1.5" rx="4" ry="4"/><text x="240.0" y="160" font-size="10" fill="#808080" text-anchor="middle" font-weight="500" font-family="Untitled Sans, -apple-system, sans-serif">1 carton</text><rect x="276" y="30" width="56" height="110" fill="#8DD5F1" stroke="#0A80D5" stroke-width="1.5" rx="4" ry="4"/><text x="304.0" y="160" font-size="10" fill="#808080" text-anchor="middle" font-weight="500" font-family="Untitled Sans, -apple-system, sans-serif">1 carton</text><rect x="360" y="57.5" width="56" height="82.5" fill="#8DD5F1" stroke="#0A80D5" stroke-width="1.5" rx="4" ry="4"/><text x="388.0" y="25" font-size="10" fill="#808080" text-anchor="middle" font-weight="500" font-family="Untitled Sans, -apple-system, sans-serif">3/4 carton</text><rect x="428" y="60" width="32" height="80" fill="#8DD5F1" stroke="#0A80D5" stroke-width="1.5" rx="2" ry="2"/><text x="444.0" y="155" font-size="10" fill="#808080" text-anchor="middle" font-weight="500" font-family="Untitled Sans, -apple-system, sans-serif">1 full</text><rect x="468" y="60" width="32" height="80" fill="#FFFFFF" stroke="#0A80D5" stroke-width="1.5" rx="2" ry="2"/><rect x="468" y="100.0" width="32" height="40.0" fill="#8DD5F1" stroke="#0A80D5" stroke-width="0.5" rx="0" ry="0"/><text x="484.0" y="155" font-size="10" fill="#808080" text-anchor="middle" font-weight="500" font-family="Untitled Sans, -apple-system, sans-serif">½ full</text><text x="300" y="195" font-size="11" fill="#808080" text-anchor="middle" font-weight="500" font-family="Untitled Sans, -apple-system, sans-serif">3/4 carton → 1 1/2 glasses. How many glasses do 5 full cartons fill?</text></svg>