<svg xmlns="http://www.w3.org/2000/svg" viewBox="0 0 280 313" width="280" height="313" style="font-family:-apple-system,Segoe UI,sans-serif" preserveAspectRatio="xMidYMid meet"><rect width="280" height="313" fill="#FFFFFF"/><rect x="62.0" y="10" width="36" height="18" fill="#8DD5F1" stroke="#0A80D5" stroke-width="2" rx="0" ry="0"/><rect x="30" y="28" width="100" height="260" fill="#FFFFFF" stroke="#0A80D5" stroke-width="2" rx="6" ry="6"/><rect x="30" y="28.0" width="100" height="21.666666666666668" fill="#F8E08E" stroke="#0A80D5" stroke-width="0.6" rx="0" ry="0"/><rect x="30" y="49.66666666666667" width="100" height="21.666666666666668" fill="#F8E08E" stroke="#0A80D5" stroke-width="0.6" rx="0" ry="0"/><rect x="30" y="71.33333333333334" width="100" height="21.666666666666668" fill="#F8E08E" stroke="#0A80D5" stroke-width="0.6" rx="0" ry="0"/><rect x="30" y="93.0" width="100" height="21.666666666666668" fill="#F8E08E" stroke="#0A80D5" stroke-width="0.6" rx="0" ry="0"/><rect x="30" y="114.66666666666667" width="100" height="21.666666666666668" fill="#EBBDEC" stroke="#0A80D5" stroke-width="0.6" rx="0" ry="0"/><rect x="30" y="136.33333333333334" width="100" height="21.666666666666668" fill="#EBBDEC" stroke="#0A80D5" stroke-width="0.6" rx="0" ry="0"/><rect x="30" y="158.0" width="100" height="21.666666666666668" fill="#EBBDEC" stroke="#0A80D5" stroke-width="0.6" rx="0" ry="0"/><rect x="30" y="179.66666666666669" width="100" height="21.666666666666668" fill="#EBBDEC" stroke="#0A80D5" stroke-width="0.6" rx="0" ry="0"/><rect x="30" y="201.33333333333334" width="100" height="21.666666666666668" fill="#EBBDEC" stroke="#0A80D5" stroke-width="0.6" rx="0" ry="0"/><rect x="30" y="223.0" width="100" height="21.666666666666668" fill="#EBBDEC" stroke="#0A80D5" stroke-width="0.6" rx="0" ry="0"/><rect x="30" y="244.66666666666669" width="100" height="21.666666666666668" fill="#8DD5F1" stroke="#0A80D5" stroke-width="0.6" rx="0" ry="0"/><rect x="30" y="266.33333333333337" width="100" height="21.666666666666668" fill="#8DD5F1" stroke="#0A80D5" stroke-width="0.6" rx="0" ry="0"/><rect x="148" y="30" width="14" height="14" fill="#F8E08E" stroke="#0A80D5" stroke-width="1" rx="0" ry="0"/><text x="170" y="42" font-size="11" fill="#2B2B2B" text-anchor="start" font-weight="500" font-family="Untitled Sans, -apple-system, sans-serif">→ glass (1/3)</text><rect x="148" y="60" width="14" height="14" fill="#EBBDEC" stroke="#0A80D5" stroke-width="1" rx="0" ry="0"/><text x="170" y="72" font-size="11" fill="#2B2B2B" text-anchor="start" font-weight="500" font-family="Untitled Sans, -apple-system, sans-serif">→ pitcher (3/4 of rest)</text><rect x="148" y="90" width="14" height="14" fill="#8DD5F1" stroke="#0A80D5" stroke-width="1" rx="0" ry="0"/><text x="170" y="102" font-size="11" fill="#2B2B2B" text-anchor="start" font-weight="500" font-family="Untitled Sans, -apple-system, sans-serif">→ left in bottle</text></svg>