<svg xmlns="http://www.w3.org/2000/svg" viewBox="0 0 1140 178" width="1140" height="178" font-family='"Untitled Sans", -apple-system, BlinkMacSystemFont, "Segoe UI", sans-serif'>
<rect x="30" y="30" width="200" height="80" fill="#FFFFFF" stroke="#808080" stroke-width="1.25" rx="6"/>
<g transform="translate(38, 38)"><g transform="scale(1.6140)">
<path d="M 13 18.6 C 1.8000000000000007 11.4, 9.8 3.4000000000000004, 13 10.6 C 16.2 3.4000000000000004, 24.2 11.4, 13 18.6 Z" fill="#0A80D5" stroke="#0A80D5" stroke-width="1"/>
<path d="M 35 18.6 C 23.8 11.4, 31.8 3.4000000000000004, 35 10.6 C 38.2 3.4000000000000004, 46.2 11.4, 35 18.6 Z" fill="#0A80D5" stroke="#0A80D5" stroke-width="1"/>
<path d="M 57 18.6 C 45.8 11.4, 53.8 3.4000000000000004, 57 10.6 C 60.2 3.4000000000000004, 68.2 11.4, 57 18.6 Z" fill="#FFFFFF" stroke="#0A80D5" stroke-width="1"/>
<path d="M 79 18.6 C 67.8 11.4, 75.8 3.4000000000000004, 79 10.6 C 82.2 3.4000000000000004, 90.2 11.4, 79 18.6 Z" fill="#FFFFFF" stroke="#0A80D5" stroke-width="1"/>
<path d="M 101 18.6 C 89.8 11.4, 97.8 3.4000000000000004, 101 10.6 C 104.2 3.4000000000000004, 112.2 11.4, 101 18.6 Z" fill="#FFFFFF" stroke="#0A80D5" stroke-width="1"/>
</g></g>
<text x="130" y="136" font-size="18" fill="#2B2B2B" font-weight="600" text-anchor="middle">(A)</text>
<rect x="250" y="30" width="200" height="80" fill="#FFFFFF" stroke="#808080" stroke-width="1.25" rx="6"/>
<g transform="translate(258, 38)"><g transform="scale(0.6866)">
<path d="M 13 18.6 C 1.8000000000000007 11.4, 9.8 3.4000000000000004, 13 10.6 C 16.2 3.4000000000000004, 24.2 11.4, 13 18.6 Z" fill="#FFFFFF" stroke="#0A80D5" stroke-width="1"/>
<path d="M 35 18.6 C 23.8 11.4, 31.8 3.4000000000000004, 35 10.6 C 38.2 3.4000000000000004, 46.2 11.4, 35 18.6 Z" fill="#FFFFFF" stroke="#0A80D5" stroke-width="1"/>
<path d="M 57 18.6 C 45.8 11.4, 53.8 3.4000000000000004, 57 10.6 C 60.2 3.4000000000000004, 68.2 11.4, 57 18.6 Z" fill="#0A80D5" stroke="#0A80D5" stroke-width="1"/>
<path d="M 79 18.6 C 67.8 11.4, 75.8 3.4000000000000004, 79 10.6 C 82.2 3.4000000000000004, 90.2 11.4, 79 18.6 Z" fill="#0A80D5" stroke="#0A80D5" stroke-width="1"/>
<path d="M 101 18.6 C 89.8 11.4, 97.8 3.4000000000000004, 101 10.6 C 104.2 3.4000000000000004, 112.2 11.4, 101 18.6 Z" fill="#0A80D5" stroke="#0A80D5" stroke-width="1"/>
<path d="M 123 18.6 C 111.8 11.4, 119.8 3.4000000000000004, 123 10.6 C 126.2 3.4000000000000004, 134.2 11.4, 123 18.6 Z" fill="#0A80D5" stroke="#0A80D5" stroke-width="1"/>
<path d="M 145 18.6 C 133.8 11.4, 141.8 3.4000000000000004, 145 10.6 C 148.2 3.4000000000000004, 156.2 11.4, 145 18.6 Z" fill="#0A80D5" stroke="#0A80D5" stroke-width="1"/>
<path d="M 167 18.6 C 155.8 11.4, 163.8 3.4000000000000004, 167 10.6 C 170.2 3.4000000000000004, 178.2 11.4, 167 18.6 Z" fill="#0A80D5" stroke="#0A80D5" stroke-width="1"/>
<path d="M 189 18.6 C 177.8 11.4, 185.8 3.4000000000000004, 189 10.6 C 192.2 3.4000000000000004, 200.2 11.4, 189 18.6 Z" fill="#0A80D5" stroke="#0A80D5" stroke-width="1"/>
<path d="M 211 18.6 C 199.8 11.4, 207.8 3.4000000000000004, 211 10.6 C 214.2 3.4000000000000004, 222.2 11.4, 211 18.6 Z" fill="#0A80D5" stroke="#0A80D5" stroke-width="1"/>
<path d="M 233 18.6 C 221.8 11.4, 229.8 3.4000000000000004, 233 10.6 C 236.2 3.4000000000000004, 244.2 11.4, 233 18.6 Z" fill="#0A80D5" stroke="#0A80D5" stroke-width="1"/>
<path d="M 255 18.6 C 243.8 11.4, 251.8 3.4000000000000004, 255 10.6 C 258.2 3.4000000000000004, 266.2 11.4, 255 18.6 Z" fill="#FFFFFF" stroke="#0A80D5" stroke-width="1"/>
</g></g>
<text x="350" y="136" font-size="18" fill="#2B2B2B" font-weight="600" text-anchor="middle">(B)</text>
<rect x="470" y="30" width="200" height="80" fill="#FFFFFF" stroke="#808080" stroke-width="1.25" rx="6"/>
<g transform="translate(478, 38)"><g transform="scale(2.0000)">
<path d="M 13 18.6 C 1.8000000000000007 11.4, 9.8 3.4000000000000004, 13 10.6 C 16.2 3.4000000000000004, 24.2 11.4, 13 18.6 Z" fill="#FFFFFF" stroke="#0A80D5" stroke-width="1"/>
<path d="M 35 18.6 C 23.8 11.4, 31.8 3.4000000000000004, 35 10.6 C 38.2 3.4000000000000004, 46.2 11.4, 35 18.6 Z" fill="#0A80D5" stroke="#0A80D5" stroke-width="1"/>
<path d="M 57 18.6 C 45.8 11.4, 53.8 3.4000000000000004, 57 10.6 C 60.2 3.4000000000000004, 68.2 11.4, 57 18.6 Z" fill="#0A80D5" stroke="#0A80D5" stroke-width="1"/>
<path d="M 79 18.6 C 67.8 11.4, 75.8 3.4000000000000004, 79 10.6 C 82.2 3.4000000000000004, 90.2 11.4, 79 18.6 Z" fill="#FFFFFF" stroke="#0A80D5" stroke-width="1"/>
</g></g>
<text x="570" y="136" font-size="18" fill="#2B2B2B" font-weight="600" text-anchor="middle">(C)</text>
<rect x="690" y="30" width="200" height="80" fill="#FFFFFF" stroke="#808080" stroke-width="1.25" rx="6"/>
<g transform="translate(698, 38)"><g transform="scale(1.6140)">
<path d="M 13 18.6 C 1.8000000000000007 11.4, 9.8 3.4000000000000004, 13 10.6 C 16.2 3.4000000000000004, 24.2 11.4, 13 18.6 Z" fill="#0A80D5" stroke="#0A80D5" stroke-width="1"/>
<path d="M 35 18.6 C 23.8 11.4, 31.8 3.4000000000000004, 35 10.6 C 38.2 3.4000000000000004, 46.2 11.4, 35 18.6 Z" fill="#FFFFFF" stroke="#0A80D5" stroke-width="1"/>
<path d="M 57 18.6 C 45.8 11.4, 53.8 3.4000000000000004, 57 10.6 C 60.2 3.4000000000000004, 68.2 11.4, 57 18.6 Z" fill="#FFFFFF" stroke="#0A80D5" stroke-width="1"/>
<path d="M 79 18.6 C 67.8 11.4, 75.8 3.4000000000000004, 79 10.6 C 82.2 3.4000000000000004, 90.2 11.4, 79 18.6 Z" fill="#0A80D5" stroke="#0A80D5" stroke-width="1"/>
<path d="M 101 18.6 C 89.8 11.4, 97.8 3.4000000000000004, 101 10.6 C 104.2 3.4000000000000004, 112.2 11.4, 101 18.6 Z" fill="#0A80D5" stroke="#0A80D5" stroke-width="1"/>
</g></g>
<text x="790" y="136" font-size="18" fill="#2B2B2B" font-weight="600" text-anchor="middle">(D)</text>
<rect x="910" y="30" width="200" height="80" fill="#FFFFFF" stroke="#808080" stroke-width="1.25" rx="6"/>
<g transform="translate(918, 38)"><g transform="scale(1.1646)">
<path d="M 13 18.6 C 1.8000000000000007 11.4, 9.8 3.4000000000000004, 13 10.6 C 16.2 3.4000000000000004, 24.2 11.4, 13 18.6 Z" fill="#FFFFFF" stroke="#0A80D5" stroke-width="1"/>
<path d="M 35 18.6 C 23.8 11.4, 31.8 3.4000000000000004, 35 10.6 C 38.2 3.4000000000000004, 46.2 11.4, 35 18.6 Z" fill="#0A80D5" stroke="#0A80D5" stroke-width="1"/>
<path d="M 57 18.6 C 45.8 11.4, 53.8 3.4000000000000004, 57 10.6 C 60.2 3.4000000000000004, 68.2 11.4, 57 18.6 Z" fill="#0A80D5" stroke="#0A80D5" stroke-width="1"/>
<path d="M 79 18.6 C 67.8 11.4, 75.8 3.4000000000000004, 79 10.6 C 82.2 3.4000000000000004, 90.2 11.4, 79 18.6 Z" fill="#0A80D5" stroke="#0A80D5" stroke-width="1"/>
<path d="M 101 18.6 C 89.8 11.4, 97.8 3.4000000000000004, 101 10.6 C 104.2 3.4000000000000004, 112.2 11.4, 101 18.6 Z" fill="#0A80D5" stroke="#0A80D5" stroke-width="1"/>
<path d="M 123 18.6 C 111.8 11.4, 119.8 3.4000000000000004, 123 10.6 C 126.2 3.4000000000000004, 134.2 11.4, 123 18.6 Z" fill="#FFFFFF" stroke="#0A80D5" stroke-width="1"/>
<path d="M 145 18.6 C 133.8 11.4, 141.8 3.4000000000000004, 145 10.6 C 148.2 3.4000000000000004, 156.2 11.4, 145 18.6 Z" fill="#FFFFFF" stroke="#0A80D5" stroke-width="1"/>
</g></g>
<text x="1010" y="136" font-size="18" fill="#2B2B2B" font-weight="600" text-anchor="middle">(E)</text>
</svg>