<svg xmlns="http://www.w3.org/2000/svg" viewBox="0 0 890 198" width="890" height="198" font-family='"Untitled Sans", -apple-system, BlinkMacSystemFont, "Segoe UI", sans-serif'>
<rect x="30" y="30" width="150" height="100" fill="#FFFFFF" stroke="#808080" stroke-width="1.25" rx="6"/>
<g transform="translate(38, 38)"><g transform="scale(0.9767)">
<rect x="4" y="4" width="52" height="78" fill="#FFFFFF" stroke="#0A80D5" stroke-width="2"/>
<rect x="30" y="4" width="26" height="26" fill="#0A80D5"/>
<rect x="4" y="30" width="26" height="26" fill="#0A80D5"/>
<line x1="4" y1="30" x2="56" y2="30" stroke="#808080" stroke-width="0.5"/>
<line x1="4" y1="56" x2="56" y2="56" stroke="#808080" stroke-width="0.5"/>
<line x1="30" y1="4" x2="30" y2="82" stroke="#808080" stroke-width="0.5"/>
</g></g>
<text x="105" y="156" font-size="18" fill="#2B2B2B" font-weight="600" text-anchor="middle">(A)</text>
<rect x="200" y="30" width="150" height="100" fill="#FFFFFF" stroke="#808080" stroke-width="1.25" rx="6"/>
<g transform="translate(208, 38)"><g transform="scale(0.7500)">
<rect x="4" y="4" width="130" height="104" fill="#FFFFFF" stroke="#0A80D5" stroke-width="2"/>
<rect x="30" y="4" width="26" height="26" fill="#0A80D5"/>
<rect x="56" y="4" width="26" height="26" fill="#0A80D5"/>
<rect x="108" y="4" width="26" height="26" fill="#0A80D5"/>
<rect x="4" y="30" width="26" height="26" fill="#0A80D5"/>
<rect x="30" y="30" width="26" height="26" fill="#0A80D5"/>
<rect x="82" y="30" width="26" height="26" fill="#0A80D5"/>
<rect x="108" y="30" width="26" height="26" fill="#0A80D5"/>
<rect x="4" y="56" width="26" height="26" fill="#0A80D5"/>
<rect x="56" y="56" width="26" height="26" fill="#0A80D5"/>
<rect x="82" y="56" width="26" height="26" fill="#0A80D5"/>
<rect x="108" y="56" width="26" height="26" fill="#0A80D5"/>
<rect x="4" y="82" width="26" height="26" fill="#0A80D5"/>
<rect x="30" y="82" width="26" height="26" fill="#0A80D5"/>
<rect x="56" y="82" width="26" height="26" fill="#0A80D5"/>
<rect x="108" y="82" width="26" height="26" fill="#0A80D5"/>
<line x1="4" y1="30" x2="134" y2="30" stroke="#808080" stroke-width="0.5"/>
<line x1="4" y1="56" x2="134" y2="56" stroke="#808080" stroke-width="0.5"/>
<line x1="4" y1="82" x2="134" y2="82" stroke="#808080" stroke-width="0.5"/>
<line x1="30" y1="4" x2="30" y2="108" stroke="#808080" stroke-width="0.5"/>
<line x1="56" y1="4" x2="56" y2="108" stroke="#808080" stroke-width="0.5"/>
<line x1="82" y1="4" x2="82" y2="108" stroke="#808080" stroke-width="0.5"/>
<line x1="108" y1="4" x2="108" y2="108" stroke="#808080" stroke-width="0.5"/>
</g></g>
<text x="275" y="156" font-size="18" fill="#2B2B2B" font-weight="600" text-anchor="middle">(B)</text>
<rect x="370" y="30" width="150" height="100" fill="#FFFFFF" stroke="#808080" stroke-width="1.25" rx="6"/>
<g transform="translate(378, 38)"><g transform="scale(0.8400)">
<rect x="0" y="0" width="100" height="100" fill="#FFFFFF" stroke="#0A80D5" stroke-width="2"/>
<line x1="0" y1="0" x2="100" y2="100" stroke="#0A80D5" stroke-width="1"/>
<line x1="100" y1="0" x2="0" y2="100" stroke="#0A80D5" stroke-width="1"/>
<polygon points="0,0 100,0 0,100" fill="#0A80D5"/>
<rect x="0" y="0" width="100" height="100" fill="none" stroke="#0A80D5" stroke-width="2"/>
</g></g>
<text x="445" y="156" font-size="18" fill="#2B2B2B" font-weight="600" text-anchor="middle">(C)</text>
<rect x="540" y="30" width="150" height="100" fill="#FFFFFF" stroke="#808080" stroke-width="1.25" rx="6"/>
<g transform="translate(548, 38)"><g transform="scale(0.7500)">
<rect x="4" y="4" width="130" height="104" fill="#FFFFFF" stroke="#0A80D5" stroke-width="2"/>
<rect x="4" y="4" width="26" height="26" fill="#0A80D5"/>
<rect x="30" y="4" width="26" height="26" fill="#0A80D5"/>
<rect x="56" y="4" width="26" height="26" fill="#0A80D5"/>
<rect x="82" y="4" width="26" height="26" fill="#0A80D5"/>
<rect x="108" y="4" width="26" height="26" fill="#0A80D5"/>
<rect x="4" y="30" width="26" height="26" fill="#0A80D5"/>
<rect x="108" y="30" width="26" height="26" fill="#0A80D5"/>
<rect x="4" y="56" width="26" height="26" fill="#0A80D5"/>
<rect x="56" y="56" width="26" height="26" fill="#0A80D5"/>
<rect x="108" y="56" width="26" height="26" fill="#0A80D5"/>
<rect x="30" y="82" width="26" height="26" fill="#0A80D5"/>
<rect x="82" y="82" width="26" height="26" fill="#0A80D5"/>
<line x1="4" y1="30" x2="134" y2="30" stroke="#808080" stroke-width="0.5"/>
<line x1="4" y1="56" x2="134" y2="56" stroke="#808080" stroke-width="0.5"/>
<line x1="4" y1="82" x2="134" y2="82" stroke="#808080" stroke-width="0.5"/>
<line x1="30" y1="4" x2="30" y2="108" stroke="#808080" stroke-width="0.5"/>
<line x1="56" y1="4" x2="56" y2="108" stroke="#808080" stroke-width="0.5"/>
<line x1="82" y1="4" x2="82" y2="108" stroke="#808080" stroke-width="0.5"/>
<line x1="108" y1="4" x2="108" y2="108" stroke="#808080" stroke-width="0.5"/>
</g></g>
<text x="615" y="156" font-size="18" fill="#2B2B2B" font-weight="600" text-anchor="middle">(D)</text>
<rect x="710" y="30" width="150" height="100" fill="#FFFFFF" stroke="#808080" stroke-width="1.25" rx="6"/>
<g transform="translate(718, 38)"><g transform="scale(1.1964)">
<rect x="4" y="4" width="104" height="52" fill="#FFFFFF" stroke="#0A80D5" stroke-width="2"/>
<rect x="4" y="4" width="26" height="26" fill="#0A80D5"/>
<rect x="30" y="4" width="26" height="26" fill="#0A80D5"/>
<rect x="82" y="30" width="26" height="26" fill="#0A80D5"/>
<line x1="4" y1="30" x2="108" y2="30" stroke="#808080" stroke-width="0.5"/>
<line x1="30" y1="4" x2="30" y2="56" stroke="#808080" stroke-width="0.5"/>
<line x1="56" y1="4" x2="56" y2="56" stroke="#808080" stroke-width="0.5"/>
<line x1="82" y1="4" x2="82" y2="56" stroke="#808080" stroke-width="0.5"/>
</g></g>
<text x="785" y="156" font-size="18" fill="#2B2B2B" font-weight="600" text-anchor="middle">(E)</text>
</svg>