<svg xmlns="http://www.w3.org/2000/svg" viewBox="0 0 684 150" width="684" height="150" style="font-family:-apple-system,Segoe UI,sans-serif" preserveAspectRatio="xMidYMid meet"><rect width="684" height="150" fill="#FFFFFF"/><text x="74.0" y="42" font-size="14" fill="#2B2B2B" text-anchor="middle" font-weight="600" font-family='KaTeX_Main, "Untitled Sans", -apple-system, BlinkMacSystemFont, "Segoe UI", sans-serif'>?</text><rect x="26" y="56" width="96" height="48" fill="#8DD5F1" stroke="#0A80D5" stroke-width="1.5" rx="8" ry="8"/><text x="74.0" y="85.0" font-size="12" fill="#2B2B2B" text-anchor="middle" font-weight="500" font-family='KaTeX_Main, "Untitled Sans", -apple-system, BlinkMacSystemFont, "Segoe UI", sans-serif'>allowance</text><line x1="122" y1="80.0" x2="168" y2="80.0" stroke="#2B2B2B" stroke-width="1.4"/><polygon points="168,80.0 160,75.0 160,85.0" fill="#2B2B2B"/><rect x="168" y="56" width="96" height="48" fill="#8DD5F1" stroke="#0A80D5" stroke-width="1.5" rx="8" ry="8"/><text x="216.0" y="85.0" font-size="12" fill="#2B2B2B" text-anchor="middle" font-weight="500" font-family='KaTeX_Main, "Untitled Sans", -apple-system, BlinkMacSystemFont, "Segoe UI", sans-serif'>savings</text><line x1="264" y1="80.0" x2="310" y2="80.0" stroke="#2B2B2B" stroke-width="1.4"/><polygon points="310,80.0 302,75.0 302,85.0" fill="#2B2B2B"/><rect x="310" y="56" width="96" height="48" fill="#8DD5F1" stroke="#0A80D5" stroke-width="1.5" rx="8" ry="8"/><text x="358.0" y="85.0" font-size="12" fill="#2B2B2B" text-anchor="middle" font-weight="500" font-family='KaTeX_Main, "Untitled Sans", -apple-system, BlinkMacSystemFont, "Segoe UI", sans-serif'>book</text><line x1="406" y1="80.0" x2="452" y2="80.0" stroke="#2B2B2B" stroke-width="1.4"/><polygon points="452,80.0 444,75.0 444,85.0" fill="#2B2B2B"/><rect x="452" y="56" width="96" height="48" fill="#8DD5F1" stroke="#0A80D5" stroke-width="1.5" rx="8" ry="8"/><text x="500.0" y="85.0" font-size="12" fill="#2B2B2B" text-anchor="middle" font-weight="500" font-family='KaTeX_Main, "Untitled Sans", -apple-system, BlinkMacSystemFont, "Segoe UI", sans-serif'>snacks</text><line x1="548" y1="80.0" x2="594" y2="80.0" stroke="#2B2B2B" stroke-width="1.4"/><rect x="594" y="56" width="64" height="48" fill="#AFE8C2" stroke="#149A55" stroke-width="1.5" rx="8" ry="8"/><text x="626" y="85.0" font-size="13" fill="#2B2B2B" text-anchor="middle" font-weight="600" font-family='KaTeX_Main, "Untitled Sans", -apple-system, BlinkMacSystemFont, "Segoe UI", sans-serif'>$18</text><text x="626" y="126" font-size="12" fill="#808080" text-anchor="middle" font-weight="500" font-family='KaTeX_Main, "Untitled Sans", -apple-system, BlinkMacSystemFont, "Segoe UI", sans-serif'>left</text></svg>