<svg xmlns="http://www.w3.org/2000/svg" viewBox="0 0 500 292" width="500" height="292" style="font-family:-apple-system,Segoe UI,sans-serif" preserveAspectRatio="xMidYMid meet"><rect width="500" height="292" fill="#FFFFFF"/><rect x="40" y="40" width="110" height="60" fill="#AFE8C2" stroke="#149A55" stroke-width="2" rx="8" ry="8"/><text x="95.0" y="77.0" font-size="22" fill="#2B2B2B" text-anchor="middle" font-weight="600" font-family="Untitled Sans, -apple-system, sans-serif">0.25</text><rect x="40" y="116" width="110" height="60" fill="#AFE8C2" stroke="#149A55" stroke-width="2" rx="8" ry="8"/><text x="95.0" y="153.0" font-size="22" fill="#2B2B2B" text-anchor="middle" font-weight="600" font-family="Untitled Sans, -apple-system, sans-serif">0.7</text><rect x="40" y="192" width="110" height="60" fill="#AFE8C2" stroke="#149A55" stroke-width="2" rx="8" ry="8"/><text x="95.0" y="229.0" font-size="22" fill="#2B2B2B" text-anchor="middle" font-weight="600" font-family="Untitled Sans, -apple-system, sans-serif">0.125</text><rect x="350" y="40" width="110" height="60" fill="#FFFFFF" stroke="#149A55" stroke-width="2" rx="8" ry="8"/><text x="405.0" y="77.0" font-size="22" fill="#2B2B2B" text-anchor="middle" font-weight="600" font-family="Untitled Sans, -apple-system, sans-serif">1/4</text><rect x="350" y="116" width="110" height="60" fill="#FFFFFF" stroke="#149A55" stroke-width="2" rx="8" ry="8"/><text x="405.0" y="153.0" font-size="22" fill="#2B2B2B" text-anchor="middle" font-weight="600" font-family="Untitled Sans, -apple-system, sans-serif">7/10</text><rect x="350" y="192" width="110" height="60" fill="#FFFFFF" stroke="#149A55" stroke-width="2" rx="8" ry="8"/><text x="405.0" y="229.0" font-size="22" fill="#2B2B2B" text-anchor="middle" font-weight="600" font-family="Untitled Sans, -apple-system, sans-serif">1/8</text><line x1="154" y1="70.0" x2="346" y2="70.0" stroke="#808080" stroke-width="0.6" stroke-dasharray="4,4"/><line x1="154" y1="146.0" x2="346" y2="146.0" stroke="#808080" stroke-width="0.6" stroke-dasharray="4,4"/><line x1="154" y1="222.0" x2="346" y2="222.0" stroke="#808080" stroke-width="0.6" stroke-dasharray="4,4"/></svg>