<svg xmlns="http://www.w3.org/2000/svg" viewBox="0 0 608 144" width="608" height="144" style="font-family:-apple-system,Segoe UI,sans-serif" preserveAspectRatio="xMidYMid meet"><rect width="608" height="144" fill="#FFFFFF"/><text x="145.0" y="46" font-size="12" fill="#808080" text-anchor="middle" font-weight="500" font-family="Untitled Sans, -apple-system, sans-serif">0.3</text><text x="65.0" y="62" font-size="10" fill="#808080" text-anchor="middle" font-weight="600" font-family="Untitled Sans, -apple-system, sans-serif">ones</text><text x="155.0" y="62" font-size="10" fill="#808080" text-anchor="middle" font-weight="600" font-family="Untitled Sans, -apple-system, sans-serif">tenths</text><text x="225.0" y="62" font-size="10" fill="#808080" text-anchor="middle" font-weight="600" font-family="Untitled Sans, -apple-system, sans-serif">hundre</text><rect x="30" y="66" width="70" height="60" fill="#FFFFFF" stroke="#850F85" stroke-width="1.6" rx="4" ry="4"/><rect x="120" y="66" width="70" height="60" fill="#FFFFFF" stroke="#850F85" stroke-width="1.6" rx="4" ry="4"/><rect x="190" y="66" width="70" height="60" fill="#FFFFFF" stroke="#850F85" stroke-width="1.6" rx="4" ry="4"/><circle cx="110.0" cy="94.0" r="5" fill="#850F85"/><text x="65.0" y="105.9" font-size="26" fill="#2B2B2B" text-anchor="middle" font-weight="700" font-family="Untitled Sans, -apple-system, sans-serif">0</text><text x="155.0" y="105.9" font-size="26" fill="#2B2B2B" text-anchor="middle" font-weight="700" font-family="Untitled Sans, -apple-system, sans-serif">3</text><line x1="268" y1="96.0" x2="332" y2="96.0" stroke="#850F85" stroke-width="2"/><polygon points="332,90.0 340,96.0 332,102.0" fill="#850F85"/><text x="300.0" y="84.0" font-size="15" fill="#850F85" text-anchor="middle" font-weight="700" font-family="Untitled Sans, -apple-system, sans-serif">× 10</text><text x="463.0" y="46" font-size="12" fill="#808080" text-anchor="middle" font-weight="500" font-family="Untitled Sans, -apple-system, sans-serif"></text><text x="383.0" y="62" font-size="10" fill="#808080" text-anchor="middle" font-weight="600" font-family="Untitled Sans, -apple-system, sans-serif">ones</text><text x="473.0" y="62" font-size="10" fill="#808080" text-anchor="middle" font-weight="600" font-family="Untitled Sans, -apple-system, sans-serif">tenths</text><text x="543.0" y="62" font-size="10" fill="#808080" text-anchor="middle" font-weight="600" font-family="Untitled Sans, -apple-system, sans-serif">hundre</text><rect x="348" y="66" width="70" height="60" fill="#FFFFFF" stroke="#850F85" stroke-width="1.6" rx="4" ry="4"/><rect x="438" y="66" width="70" height="60" fill="#FFFFFF" stroke="#850F85" stroke-width="1.6" rx="4" ry="4"/><rect x="508" y="66" width="70" height="60" fill="#FFFFFF" stroke="#850F85" stroke-width="1.6" rx="4" ry="4"/><circle cx="428.0" cy="94.0" r="5" fill="#850F85"/></svg>