<svg xmlns="http://www.w3.org/2000/svg" viewBox="0 0 534 304" width="534" height="304" style="font-family:-apple-system,Segoe UI,sans-serif" preserveAspectRatio="xMidYMid meet"><rect width="534" height="304" fill="#FFFFFF"/><rect x="30" y="30" width="474" height="36" fill="#F4F8FC" stroke="none" rx="6" ry="6"/><text x="182.0" y="54.0" font-size="12" fill="#2B2B2B" text-anchor="middle" font-weight="700" font-family="Untitled Sans, -apple-system, sans-serif">ones</text><text x="294.0" y="54.0" font-size="12" fill="#2B2B2B" text-anchor="middle" font-weight="700" font-family="Untitled Sans, -apple-system, sans-serif">tenths</text><text x="378.0" y="54.0" font-size="12" fill="#2B2B2B" text-anchor="middle" font-weight="700" font-family="Untitled Sans, -apple-system, sans-serif">hundredths</text><text x="462.0" y="54.0" font-size="12" fill="#2B2B2B" text-anchor="middle" font-weight="700" font-family="Untitled Sans, -apple-system, sans-serif">thousandths</text><text x="60" y="54.0" font-size="12" fill="#2B2B2B" text-anchor="middle" font-weight="700" font-family="Untitled Sans, -apple-system, sans-serif">decimal</text><text x="52" y="114.24000000000001" font-size="22" fill="#2B2B2B" text-anchor="end" font-weight="700" font-family="Untitled Sans, -apple-system, sans-serif">0</text><circle cx="60" cy="102.0" r="2" fill="#2B2B2B"/><text x="68" y="114.24000000000001" font-size="22" fill="#2B2B2B" text-anchor="start" font-weight="700" font-family="Untitled Sans, -apple-system, sans-serif">4</text><rect x="140" y="72" width="84" height="64" fill="#FFFFFF" stroke="#149A55" stroke-width="1.5" rx="4" ry="4"/><text x="182.0" y="114.24000000000001" font-size="24" fill="#2B2B2B" text-anchor="middle" font-weight="700" font-family="Untitled Sans, -apple-system, sans-serif">0</text><rect x="252" y="72" width="84" height="64" fill="#FFFFFF" stroke="#149A55" stroke-width="1.5" rx="4" ry="4"/><text x="294.0" y="114.24000000000001" font-size="24" fill="#2B2B2B" text-anchor="middle" font-weight="700" font-family="Untitled Sans, -apple-system, sans-serif">4</text><rect x="336" y="72" width="84" height="64" fill="#FFFFFF" stroke="#149A55" stroke-width="1.5" rx="4" ry="4"/><rect x="420" y="72" width="84" height="64" fill="#FFFFFF" stroke="#149A55" stroke-width="1.5" rx="4" ry="4"/><circle cx="238.0" cy="102.0" r="5.5" fill="#149A55"/><text x="52" y="186.24" font-size="22" fill="#2B2B2B" text-anchor="end" font-weight="700" font-family="Untitled Sans, -apple-system, sans-serif">0</text><circle cx="60" cy="174.0" r="2" fill="#2B2B2B"/><text x="68" y="186.24" font-size="22" fill="#2B2B2B" text-anchor="start" font-weight="700" font-family="Untitled Sans, -apple-system, sans-serif">39</text><rect x="140" y="144" width="84" height="64" fill="#FFFFFF" stroke="#149A55" stroke-width="1.5" rx="4" ry="4"/><text x="182.0" y="186.24" font-size="24" fill="#2B2B2B" text-anchor="middle" font-weight="700" font-family="Untitled Sans, -apple-system, sans-serif">0</text><rect x="252" y="144" width="84" height="64" fill="#FFFFFF" stroke="#149A55" stroke-width="1.5" rx="4" ry="4"/><text x="294.0" y="186.24" font-size="24" fill="#2B2B2B" text-anchor="middle" font-weight="700" font-family="Untitled Sans, -apple-system, sans-serif">3</text><rect x="336" y="144" width="84" height="64" fill="#FFFFFF" stroke="#149A55" stroke-width="1.5" rx="4" ry="4"/><text x="378.0" y="186.24" font-size="24" fill="#2B2B2B" text-anchor="middle" font-weight="700" font-family="Untitled Sans, -apple-system, sans-serif">9</text><rect x="420" y="144" width="84" height="64" fill="#FFFFFF" stroke="#149A55" stroke-width="1.5" rx="4" ry="4"/><circle cx="238.0" cy="174.0" r="5.5" fill="#149A55"/><text x="52" y="258.24" font-size="22" fill="#2B2B2B" text-anchor="end" font-weight="700" font-family="Untitled Sans, -apple-system, sans-serif">0</text><circle cx="60" cy="246.0" r="2" fill="#2B2B2B"/><text x="68" y="258.24" font-size="22" fill="#2B2B2B" text-anchor="start" font-weight="700" font-family="Untitled Sans, -apple-system, sans-serif">405</text><rect x="140" y="216" width="84" height="64" fill="#FFFFFF" stroke="#149A55" stroke-width="1.5" rx="4" ry="4"/><text x="182.0" y="258.24" font-size="24" fill="#2B2B2B" text-anchor="middle" font-weight="700" font-family="Untitled Sans, -apple-system, sans-serif">0</text><rect x="252" y="216" width="84" height="64" fill="#FFFFFF" stroke="#149A55" stroke-width="1.5" rx="4" ry="4"/><text x="294.0" y="258.24" font-size="24" fill="#2B2B2B" text-anchor="middle" font-weight="700" font-family="Untitled Sans, -apple-system, sans-serif">4</text><rect x="336" y="216" width="84" height="64" fill="#FFFFFF" stroke="#149A55" stroke-width="1.5" rx="4" ry="4"/><text x="378.0" y="258.24" font-size="24" fill="#2B2B2B" text-anchor="middle" font-weight="700" font-family="Untitled Sans, -apple-system, sans-serif">0</text><rect x="420" y="216" width="84" height="64" fill="#FFFFFF" stroke="#149A55" stroke-width="1.5" rx="4" ry="4"/><text x="462.0" y="258.24" font-size="24" fill="#2B2B2B" text-anchor="middle" font-weight="700" font-family="Untitled Sans, -apple-system, sans-serif">5</text><circle cx="238.0" cy="246.0" r="5.5" fill="#149A55"/></svg>