<svg xmlns="http://www.w3.org/2000/svg" viewBox="0 0 460 236" width="460" height="236" style="font-family:-apple-system,Segoe UI,sans-serif" preserveAspectRatio="xMidYMid meet"><rect width="460" height="236" fill="#FFFFFF"/><text x="96" y="55.0" font-size="20" fill="#2B2B2B" text-anchor="end" font-weight="700" font-family="Untitled Sans, -apple-system, sans-serif">1/2</text><rect x="110.0" y="30" width="160.0" height="38" fill="#EBBDEC" stroke="#850F85" stroke-width="1.6" rx="0" ry="0"/><rect x="270.0" y="30" width="160.0" height="38" fill="#FFFFFF" stroke="#850F85" stroke-width="1.6" rx="0" ry="0"/><text x="96" y="119.0" font-size="20" fill="#2B2B2B" text-anchor="end" font-weight="700" font-family="Untitled Sans, -apple-system, sans-serif">5/10</text><rect x="110.0" y="94" width="32.0" height="38" fill="#EBBDEC" stroke="#850F85" stroke-width="1.6" rx="0" ry="0"/><rect x="142.0" y="94" width="32.0" height="38" fill="#EBBDEC" stroke="#850F85" stroke-width="1.6" rx="0" ry="0"/><rect x="174.0" y="94" width="32.0" height="38" fill="#EBBDEC" stroke="#850F85" stroke-width="1.6" rx="0" ry="0"/><rect x="206.0" y="94" width="32.0" height="38" fill="#EBBDEC" stroke="#850F85" stroke-width="1.6" rx="0" ry="0"/><rect x="238.0" y="94" width="32.0" height="38" fill="#EBBDEC" stroke="#850F85" stroke-width="1.6" rx="0" ry="0"/><rect x="270.0" y="94" width="32.0" height="38" fill="#FFFFFF" stroke="#850F85" stroke-width="1.6" rx="0" ry="0"/><rect x="302.0" y="94" width="32.0" height="38" fill="#FFFFFF" stroke="#850F85" stroke-width="1.6" rx="0" ry="0"/><rect x="334.0" y="94" width="32.0" height="38" fill="#FFFFFF" stroke="#850F85" stroke-width="1.6" rx="0" ry="0"/><rect x="366.0" y="94" width="32.0" height="38" fill="#FFFFFF" stroke="#850F85" stroke-width="1.6" rx="0" ry="0"/><rect x="398.0" y="94" width="32.0" height="38" fill="#FFFFFF" stroke="#850F85" stroke-width="1.6" rx="0" ry="0"/><text x="96" y="183.0" font-size="20" fill="#2B2B2B" text-anchor="end" font-weight="700" font-family="Untitled Sans, -apple-system, sans-serif">0.5</text><rect x="110.0" y="158" width="32.0" height="38" fill="#EBBDEC" stroke="#850F85" stroke-width="1.6" rx="0" ry="0"/><rect x="142.0" y="158" width="32.0" height="38" fill="#EBBDEC" stroke="#850F85" stroke-width="1.6" rx="0" ry="0"/><rect x="174.0" y="158" width="32.0" height="38" fill="#EBBDEC" stroke="#850F85" stroke-width="1.6" rx="0" ry="0"/><rect x="206.0" y="158" width="32.0" height="38" fill="#EBBDEC" stroke="#850F85" stroke-width="1.6" rx="0" ry="0"/><rect x="238.0" y="158" width="32.0" height="38" fill="#EBBDEC" stroke="#850F85" stroke-width="1.6" rx="0" ry="0"/><rect x="270.0" y="158" width="32.0" height="38" fill="#FFFFFF" stroke="#850F85" stroke-width="1.6" rx="0" ry="0"/><rect x="302.0" y="158" width="32.0" height="38" fill="#FFFFFF" stroke="#850F85" stroke-width="1.6" rx="0" ry="0"/><rect x="334.0" y="158" width="32.0" height="38" fill="#FFFFFF" stroke="#850F85" stroke-width="1.6" rx="0" ry="0"/><rect x="366.0" y="158" width="32.0" height="38" fill="#FFFFFF" stroke="#850F85" stroke-width="1.6" rx="0" ry="0"/><rect x="398.0" y="158" width="32.0" height="38" fill="#FFFFFF" stroke="#850F85" stroke-width="1.6" rx="0" ry="0"/><text x="270.0" y="222" font-size="13" fill="#808080" text-anchor="middle" font-weight="500" font-family="Untitled Sans, -apple-system, sans-serif">one number</text></svg>