<svg xmlns="http://www.w3.org/2000/svg" viewBox="0 0 308 308" width="308" height="308" style="font-family:-apple-system,Segoe UI,sans-serif" preserveAspectRatio="xMidYMid meet"><rect width="308" height="308" fill="#FFFFFF"/><rect x="24" y="24" width="26" height="26" fill="#8DD5F1" stroke="#0A80D5" stroke-width="0.8" rx="0" ry="0"/><rect x="50" y="24" width="26" height="26" fill="#8DD5F1" stroke="#0A80D5" stroke-width="0.8" rx="0" ry="0"/><rect x="76" y="24" width="26" height="26" fill="#8DD5F1" stroke="#0A80D5" stroke-width="0.8" rx="0" ry="0"/><rect x="102" y="24" width="26" height="26" fill="#8DD5F1" stroke="#0A80D5" stroke-width="0.8" rx="0" ry="0"/><rect x="128" y="24" width="26" height="26" fill="#8DD5F1" stroke="#0A80D5" stroke-width="0.8" rx="0" ry="0"/><rect x="154" y="24" width="26" height="26" fill="#FFFFFF" stroke="#0A80D5" stroke-width="0.8" rx="0" ry="0"/><rect x="180" y="24" width="26" height="26" fill="#FFFFFF" stroke="#0A80D5" stroke-width="0.8" rx="0" ry="0"/><rect x="206" y="24" width="26" height="26" fill="#FFFFFF" stroke="#0A80D5" stroke-width="0.8" rx="0" ry="0"/><rect x="232" y="24" width="26" height="26" fill="#FFFFFF" stroke="#0A80D5" stroke-width="0.8" rx="0" ry="0"/><rect x="258" y="24" width="26" height="26" fill="#FFFFFF" stroke="#0A80D5" stroke-width="0.8" rx="0" ry="0"/><rect x="24" y="50" width="26" height="26" fill="#8DD5F1" stroke="#0A80D5" stroke-width="0.8" rx="0" ry="0"/><rect x="50" y="50" width="26" height="26" fill="#8DD5F1" stroke="#0A80D5" stroke-width="0.8" rx="0" ry="0"/><rect x="76" y="50" width="26" height="26" fill="#8DD5F1" stroke="#0A80D5" stroke-width="0.8" rx="0" ry="0"/><rect x="102" y="50" width="26" height="26" fill="#8DD5F1" stroke="#0A80D5" stroke-width="0.8" rx="0" ry="0"/><rect x="128" y="50" width="26" height="26" fill="#8DD5F1" stroke="#0A80D5" stroke-width="0.8" rx="0" ry="0"/><rect x="154" y="50" width="26" height="26" fill="#FFFFFF" stroke="#0A80D5" stroke-width="0.8" rx="0" ry="0"/><rect x="180" y="50" width="26" height="26" fill="#FFFFFF" stroke="#0A80D5" stroke-width="0.8" rx="0" ry="0"/><rect x="206" y="50" width="26" height="26" fill="#FFFFFF" stroke="#0A80D5" stroke-width="0.8" rx="0" ry="0"/><rect x="232" y="50" width="26" height="26" fill="#FFFFFF" stroke="#0A80D5" stroke-width="0.8" rx="0" ry="0"/><rect x="258" y="50" width="26" height="26" fill="#FFFFFF" stroke="#0A80D5" stroke-width="0.8" rx="0" ry="0"/><rect x="24" y="76" width="26" height="26" fill="#8DD5F1" stroke="#0A80D5" stroke-width="0.8" rx="0" ry="0"/><rect x="50" y="76" width="26" height="26" fill="#8DD5F1" stroke="#0A80D5" stroke-width="0.8" rx="0" ry="0"/><rect x="76" y="76" width="26" height="26" fill="#8DD5F1" stroke="#0A80D5" stroke-width="0.8" rx="0" ry="0"/><rect x="102" y="76" width="26" height="26" fill="#8DD5F1" stroke="#0A80D5" stroke-width="0.8" rx="0" ry="0"/><rect x="128" y="76" width="26" height="26" fill="#8DD5F1" stroke="#0A80D5" stroke-width="0.8" rx="0" ry="0"/><rect x="154" y="76" width="26" height="26" fill="#FFFFFF" stroke="#0A80D5" stroke-width="0.8" rx="0" ry="0"/><rect x="180" y="76" width="26" height="26" fill="#FFFFFF" stroke="#0A80D5" stroke-width="0.8" rx="0" ry="0"/><rect x="206" y="76" width="26" height="26" fill="#FFFFFF" stroke="#0A80D5" stroke-width="0.8" rx="0" ry="0"/><rect x="232" y="76" width="26" height="26" fill="#FFFFFF" stroke="#0A80D5" stroke-width="0.8" rx="0" ry="0"/><rect x="258" y="76" width="26" height="26" fill="#FFFFFF" stroke="#0A80D5" stroke-width="0.8" rx="0" ry="0"/><rect x="24" y="102" width="26" height="26" fill="#8DD5F1" stroke="#0A80D5" stroke-width="0.8" rx="0" ry="0"/><rect x="50" y="102" width="26" height="26" fill="#8DD5F1" stroke="#0A80D5" stroke-width="0.8" rx="0" ry="0"/><rect x="76" y="102" width="26" height="26" fill="#8DD5F1" stroke="#0A80D5" stroke-width="0.8" rx="0" ry="0"/><rect x="102" y="102" width="26" height="26" fill="#8DD5F1" stroke="#0A80D5" stroke-width="0.8" rx="0" ry="0"/><rect x="128" y="102" width="26" height="26" fill="#8DD5F1" stroke="#0A80D5" stroke-width="0.8" rx="0" ry="0"/><rect x="154" y="102" width="26" height="26" fill="#FFFFFF" stroke="#0A80D5" stroke-width="0.8" rx="0" ry="0"/><rect x="180" y="102" width="26" height="26" fill="#FFFFFF" stroke="#0A80D5" stroke-width="0.8" rx="0" ry="0"/><rect x="206" y="102" width="26" height="26" fill="#FFFFFF" stroke="#0A80D5" stroke-width="0.8" rx="0" ry="0"/><rect x="232" y="102" width="26" height="26" fill="#FFFFFF" stroke="#0A80D5" stroke-width="0.8" rx="0" ry="0"/><rect x="258" y="102" width="26" height="26" fill="#FFFFFF" stroke="#0A80D5" stroke-width="0.8" rx="0" ry="0"/><rect x="24" y="128" width="26" height="26" fill="#8DD5F1" stroke="#0A80D5" stroke-width="0.8" rx="0" ry="0"/><rect x="50" y="128" width="26" height="26" fill="#8DD5F1" stroke="#0A80D5" stroke-width="0.8" rx="0" ry="0"/><rect x="76" y="128" width="26" height="26" fill="#8DD5F1" stroke="#0A80D5" stroke-width="0.8" rx="0" ry="0"/><rect x="102" y="128" width="26" height="26" fill="#8DD5F1" stroke="#0A80D5" stroke-width="0.8" rx="0" ry="0"/><rect x="128" y="128" width="26" height="26" fill="#8DD5F1" stroke="#0A80D5" stroke-width="0.8" rx="0" ry="0"/><rect x="154" y="128" width="26" height="26" fill="#FFFFFF" stroke="#0A80D5" stroke-width="0.8" rx="0" ry="0"/><rect x="180" y="128" width="26" height="26" fill="#FFFFFF" stroke="#0A80D5" stroke-width="0.8" rx="0" ry="0"/><rect x="206" y="128" width="26" height="26" fill="#FFFFFF" stroke="#0A80D5" stroke-width="0.8" rx="0" ry="0"/><rect x="232" y="128" width="26" height="26" fill="#FFFFFF" stroke="#0A80D5" stroke-width="0.8" rx="0" ry="0"/><rect x="258" y="128" width="26" height="26" fill="#FFFFFF" stroke="#0A80D5" stroke-width="0.8" rx="0" ry="0"/><rect x="24" y="154" width="26" height="26" fill="#8DD5F1" stroke="#0A80D5" stroke-width="0.8" rx="0" ry="0"/><rect x="50" y="154" width="26" height="26" fill="#8DD5F1" stroke="#0A80D5" stroke-width="0.8" rx="0" ry="0"/><rect x="76" y="154" width="26" height="26" fill="#8DD5F1" stroke="#0A80D5" stroke-width="0.8" rx="0" ry="0"/><rect x="102" y="154" width="26" height="26" fill="#8DD5F1" stroke="#0A80D5" stroke-width="0.8" rx="0" ry="0"/><rect x="128" y="154" width="26" height="26" fill="#8DD5F1" stroke="#0A80D5" stroke-width="0.8" rx="0" ry="0"/><rect x="154" y="154" width="26" height="26" fill="#FFFFFF" stroke="#0A80D5" stroke-width="0.8" rx="0" ry="0"/><rect x="180" y="154" width="26" height="26" fill="#FFFFFF" stroke="#0A80D5" stroke-width="0.8" rx="0" ry="0"/><rect x="206" y="154" width="26" height="26" fill="#FFFFFF" stroke="#0A80D5" stroke-width="0.8" rx="0" ry="0"/><rect x="232" y="154" width="26" height="26" fill="#FFFFFF" stroke="#0A80D5" stroke-width="0.8" rx="0" ry="0"/><rect x="258" y="154" width="26" height="26" fill="#FFFFFF" stroke="#0A80D5" stroke-width="0.8" rx="0" ry="0"/><rect x="24" y="180" width="26" height="26" fill="#8DD5F1" stroke="#0A80D5" stroke-width="0.8" rx="0" ry="0"/><rect x="50" y="180" width="26" height="26" fill="#8DD5F1" stroke="#0A80D5" stroke-width="0.8" rx="0" ry="0"/><rect x="76" y="180" width="26" height="26" fill="#8DD5F1" stroke="#0A80D5" stroke-width="0.8" rx="0" ry="0"/><rect x="102" y="180" width="26" height="26" fill="#8DD5F1" stroke="#0A80D5" stroke-width="0.8" rx="0" ry="0"/><rect x="128" y="180" width="26" height="26" fill="#8DD5F1" stroke="#0A80D5" stroke-width="0.8" rx="0" ry="0"/><rect x="154" y="180" width="26" height="26" fill="#FFFFFF" stroke="#0A80D5" stroke-width="0.8" rx="0" ry="0"/><rect x="180" y="180" width="26" height="26" fill="#FFFFFF" stroke="#0A80D5" stroke-width="0.8" rx="0" ry="0"/><rect x="206" y="180" width="26" height="26" fill="#FFFFFF" stroke="#0A80D5" stroke-width="0.8" rx="0" ry="0"/><rect x="232" y="180" width="26" height="26" fill="#FFFFFF" stroke="#0A80D5" stroke-width="0.8" rx="0" ry="0"/><rect x="258" y="180" width="26" height="26" fill="#FFFFFF" stroke="#0A80D5" stroke-width="0.8" rx="0" ry="0"/><rect x="24" y="206" width="26" height="26" fill="#8DD5F1" stroke="#0A80D5" stroke-width="0.8" rx="0" ry="0"/><rect x="50" y="206" width="26" height="26" fill="#8DD5F1" stroke="#0A80D5" stroke-width="0.8" rx="0" ry="0"/><rect x="76" y="206" width="26" height="26" fill="#8DD5F1" stroke="#0A80D5" stroke-width="0.8" rx="0" ry="0"/><rect x="102" y="206" width="26" height="26" fill="#8DD5F1" stroke="#0A80D5" stroke-width="0.8" rx="0" ry="0"/><rect x="128" y="206" width="26" height="26" fill="#8DD5F1" stroke="#0A80D5" stroke-width="0.8" rx="0" ry="0"/><rect x="154" y="206" width="26" height="26" fill="#FFFFFF" stroke="#0A80D5" stroke-width="0.8" rx="0" ry="0"/><rect x="180" y="206" width="26" height="26" fill="#FFFFFF" stroke="#0A80D5" stroke-width="0.8" rx="0" ry="0"/><rect x="206" y="206" width="26" height="26" fill="#FFFFFF" stroke="#0A80D5" stroke-width="0.8" rx="0" ry="0"/><rect x="232" y="206" width="26" height="26" fill="#FFFFFF" stroke="#0A80D5" stroke-width="0.8" rx="0" ry="0"/><rect x="258" y="206" width="26" height="26" fill="#FFFFFF" stroke="#0A80D5" stroke-width="0.8" rx="0" ry="0"/><rect x="24" y="232" width="26" height="26" fill="#8DD5F1" stroke="#0A80D5" stroke-width="0.8" rx="0" ry="0"/><rect x="50" y="232" width="26" height="26" fill="#8DD5F1" stroke="#0A80D5" stroke-width="0.8" rx="0" ry="0"/><rect x="76" y="232" width="26" height="26" fill="#8DD5F1" stroke="#0A80D5" stroke-width="0.8" rx="0" ry="0"/><rect x="102" y="232" width="26" height="26" fill="#8DD5F1" stroke="#0A80D5" stroke-width="0.8" rx="0" ry="0"/><rect x="128" y="232" width="26" height="26" fill="#8DD5F1" stroke="#0A80D5" stroke-width="0.8" rx="0" ry="0"/><rect x="154" y="232" width="26" height="26" fill="#FFFFFF" stroke="#0A80D5" stroke-width="0.8" rx="0" ry="0"/><rect x="180" y="232" width="26" height="26" fill="#FFFFFF" stroke="#0A80D5" stroke-width="0.8" rx="0" ry="0"/><rect x="206" y="232" width="26" height="26" fill="#FFFFFF" stroke="#0A80D5" stroke-width="0.8" rx="0" ry="0"/><rect x="232" y="232" width="26" height="26" fill="#FFFFFF" stroke="#0A80D5" stroke-width="0.8" rx="0" ry="0"/><rect x="258" y="232" width="26" height="26" fill="#FFFFFF" stroke="#0A80D5" stroke-width="0.8" rx="0" ry="0"/><rect x="24" y="258" width="26" height="26" fill="#8DD5F1" stroke="#0A80D5" stroke-width="0.8" rx="0" ry="0"/><rect x="50" y="258" width="26" height="26" fill="#8DD5F1" stroke="#0A80D5" stroke-width="0.8" rx="0" ry="0"/><rect x="76" y="258" width="26" height="26" fill="#8DD5F1" stroke="#0A80D5" stroke-width="0.8" rx="0" ry="0"/><rect x="102" y="258" width="26" height="26" fill="#8DD5F1" stroke="#0A80D5" stroke-width="0.8" rx="0" ry="0"/><rect x="128" y="258" width="26" height="26" fill="#8DD5F1" stroke="#0A80D5" stroke-width="0.8" rx="0" ry="0"/><rect x="154" y="258" width="26" height="26" fill="#FFFFFF" stroke="#0A80D5" stroke-width="0.8" rx="0" ry="0"/><rect x="180" y="258" width="26" height="26" fill="#FFFFFF" stroke="#0A80D5" stroke-width="0.8" rx="0" ry="0"/><rect x="206" y="258" width="26" height="26" fill="#FFFFFF" stroke="#0A80D5" stroke-width="0.8" rx="0" ry="0"/><rect x="232" y="258" width="26" height="26" fill="#FFFFFF" stroke="#0A80D5" stroke-width="0.8" rx="0" ry="0"/><rect x="258" y="258" width="26" height="26" fill="#FFFFFF" stroke="#0A80D5" stroke-width="0.8" rx="0" ry="0"/><line x1="154" y1="24" x2="154" y2="284" stroke="#0A80D5" stroke-width="2.8"/></svg>