<svg xmlns="http://www.w3.org/2000/svg" viewBox="0 0 472 136" width="472" height="136" style="font-family:-apple-system,Segoe UI,sans-serif" preserveAspectRatio="xMidYMid meet"><rect width="472" height="136" fill="#FFFFFF"/><rect x="26" y="26" width="42" height="42" fill="#8DD5F1" stroke="#0A80D5" stroke-width="1.2" rx="0" ry="0"/><rect x="68" y="26" width="42" height="42" fill="#8DD5F1" stroke="#0A80D5" stroke-width="1.2" rx="0" ry="0"/><rect x="110" y="26" width="42" height="42" fill="#8DD5F1" stroke="#0A80D5" stroke-width="1.2" rx="0" ry="0"/><rect x="152" y="26" width="42" height="42" fill="#8DD5F1" stroke="#0A80D5" stroke-width="1.2" rx="0" ry="0"/><rect x="194" y="26" width="42" height="42" fill="#8DD5F1" stroke="#0A80D5" stroke-width="1.2" rx="0" ry="0"/><rect x="236" y="26" width="42" height="42" fill="#8DD5F1" stroke="#0A80D5" stroke-width="1.2" rx="0" ry="0"/><rect x="278" y="26" width="42" height="42" fill="#8DD5F1" stroke="#0A80D5" stroke-width="1.2" rx="0" ry="0"/><rect x="320" y="26" width="42" height="42" fill="#FFFFFF" stroke="#0A80D5" stroke-width="1.2" rx="0" ry="0"/><rect x="362" y="26" width="42" height="42" fill="#FFFFFF" stroke="#0A80D5" stroke-width="1.2" rx="0" ry="0"/><rect x="404" y="26" width="42" height="42" fill="#FFFFFF" stroke="#0A80D5" stroke-width="1.2" rx="0" ry="0"/><rect x="26" y="68" width="42" height="42" fill="#FFFFFF" stroke="#0A80D5" stroke-width="1.2" rx="0" ry="0"/><rect x="68" y="68" width="42" height="42" fill="#FFFFFF" stroke="#0A80D5" stroke-width="1.2" rx="0" ry="0"/><rect x="110" y="68" width="42" height="42" fill="#FFFFFF" stroke="#0A80D5" stroke-width="1.2" rx="0" ry="0"/><rect x="152" y="68" width="42" height="42" fill="#FFFFFF" stroke="#0A80D5" stroke-width="1.2" rx="0" ry="0"/><rect x="194" y="68" width="42" height="42" fill="#FFFFFF" stroke="#0A80D5" stroke-width="1.2" rx="0" ry="0"/><rect x="236" y="68" width="42" height="42" fill="#FFFFFF" stroke="#0A80D5" stroke-width="1.2" rx="0" ry="0"/><rect x="278" y="68" width="42" height="42" fill="#FFFFFF" stroke="#0A80D5" stroke-width="1.2" rx="0" ry="0"/><rect x="320" y="68" width="42" height="42" fill="#FFFFFF" stroke="#0A80D5" stroke-width="1.2" rx="0" ry="0"/><rect x="362" y="68" width="42" height="42" fill="#FFFFFF" stroke="#0A80D5" stroke-width="1.2" rx="0" ry="0"/><rect x="404" y="68" width="42" height="42" fill="#FFFFFF" stroke="#0A80D5" stroke-width="1.2" rx="0" ry="0"/></svg>