<svg xmlns="http://www.w3.org/2000/svg" viewBox="0 0 300 290" width="300" height="290" style="font-family:-apple-system,Segoe UI,sans-serif" preserveAspectRatio="xMidYMid meet"><rect width="300" height="290" fill="#FFFFFF"/><polygon points="70,110 128,68 248,68 190,110" fill="#8DD5F1" stroke="#0A80D5" stroke-width="2"/><polygon points="190,110 248,68 248,188 190,230" fill="#8DD5F1" stroke="#0A80D5" stroke-width="2"/><rect x="70" y="110" width="120" height="120" fill="#8DD5F1" stroke="#0A80D5" stroke-width="2" rx="0" ry="0"/><line x1="110.0" y1="110" x2="110.0" y2="230" stroke="#0A80D5" stroke-width="0.7"/><line x1="70" y1="150.0" x2="190" y2="150.0" stroke="#0A80D5" stroke-width="0.7"/><line x1="150.0" y1="110" x2="150.0" y2="230" stroke="#0A80D5" stroke-width="0.7"/><line x1="70" y1="190.0" x2="190" y2="190.0" stroke="#0A80D5" stroke-width="0.7"/><line x1="110.0" y1="110" x2="168.0" y2="68" stroke="#0A80D5" stroke-width="0.6"/><line x1="190" y1="150.0" x2="248" y2="108.0" stroke="#0A80D5" stroke-width="0.6"/><line x1="150.0" y1="110" x2="208.0" y2="68" stroke="#0A80D5" stroke-width="0.6"/><line x1="190" y1="190.0" x2="248" y2="148.0" stroke="#0A80D5" stroke-width="0.6"/><text x="130.0" y="256" font-size="14" fill="#2B2B2B" text-anchor="middle" font-weight="600" font-family='KaTeX_Main, "Untitled Sans", -apple-system, BlinkMacSystemFont, "Segoe UI", sans-serif'>3 ft</text></svg>