<svg xmlns="http://www.w3.org/2000/svg" viewBox="0 0 540 160" width="540" height="160" style="font-family:-apple-system,Segoe UI,sans-serif" preserveAspectRatio="xMidYMid meet"><rect width="540" height="160" fill="#FFFFFF"/><text x="270.0" y="28" font-size="13" fill="#808080" text-anchor="middle" font-weight="500" font-family='KaTeX_Main, "Untitled Sans", -apple-system, BlinkMacSystemFont, "Segoe UI", sans-serif'>1 litre of pigment</text><rect x="30" y="52" width="480" height="50" fill="#FFFFFF" stroke="#0A80D5" stroke-width="2" rx="0" ry="0"/><line x1="78.0" y1="52" x2="78.0" y2="102" stroke="#0A80D5" stroke-width="1"/><line x1="126.0" y1="52" x2="126.0" y2="102" stroke="#0A80D5" stroke-width="1"/><line x1="174.0" y1="52" x2="174.0" y2="102" stroke="#0A80D5" stroke-width="1"/><line x1="222.0" y1="52" x2="222.0" y2="102" stroke="#0A80D5" stroke-width="1"/><line x1="270.0" y1="52" x2="270.0" y2="102" stroke="#0A80D5" stroke-width="1"/><line x1="318.0" y1="52" x2="318.0" y2="102" stroke="#0A80D5" stroke-width="1"/><line x1="366.0" y1="52" x2="366.0" y2="102" stroke="#0A80D5" stroke-width="1"/><line x1="414.0" y1="52" x2="414.0" y2="102" stroke="#0A80D5" stroke-width="1"/><line x1="462.0" y1="52" x2="462.0" y2="102" stroke="#0A80D5" stroke-width="1"/><rect x="30" y="52" width="48.0" height="50" fill="#8DD5F1" stroke="#0A80D5" stroke-width="1.5" rx="0" ry="0"/><line x1="42.0" y1="52" x2="42.0" y2="102" stroke="#0A80D5" stroke-width="0.8"/><line x1="54.0" y1="52" x2="54.0" y2="102" stroke="#0A80D5" stroke-width="0.8"/><line x1="66.0" y1="52" x2="66.0" y2="102" stroke="#0A80D5" stroke-width="0.8"/><rect x="30" y="52" width="12.0" height="50" fill="#AFE8C2" stroke="#149A55" stroke-width="1.5" rx="0" ry="0"/></svg>