<svg xmlns="http://www.w3.org/2000/svg" viewBox="0 0 640 228" width="640" height="228" font-family='"Untitled Sans", -apple-system, BlinkMacSystemFont, "Segoe UI", sans-serif'>
<rect x="30" y="30" width="130" height="130" fill="#FFFFFF" stroke="#808080" stroke-width="1.25" rx="6"/>
<g transform="translate(38, 38)"><g transform="scale(1.1400)">
<rect x="0" y="0" width="100" height="100" fill="#FFFFFF" stroke="#0A80D5" stroke-width="2"/>
<line x1="0" y1="0" x2="100" y2="100" stroke="#0A80D5" stroke-width="1"/>
<line x1="100" y1="0" x2="0" y2="100" stroke="#0A80D5" stroke-width="1"/>
<rect x="0" y="0" width="50" height="50" fill="#0A80D5"/>
<rect x="0" y="0" width="100" height="100" fill="none" stroke="#0A80D5" stroke-width="2"/>
</g></g>
<text x="95" y="186" font-size="18" fill="#2B2B2B" font-weight="600" text-anchor="middle">(A)</text>
<rect x="180" y="30" width="130" height="130" fill="#FFFFFF" stroke="#808080" stroke-width="1.25" rx="6"/>
<g transform="translate(188, 38)"><g transform="scale(1.1400)">
<rect x="0" y="0" width="100" height="100" fill="#FFFFFF" stroke="#0A80D5" stroke-width="2"/>
<line x1="0" y1="0" x2="100" y2="100" stroke="#0A80D5" stroke-width="1"/>
<line x1="100" y1="0" x2="0" y2="100" stroke="#0A80D5" stroke-width="1"/>
<polygon points="0,0 100,0 0,100" fill="#0A80D5"/>
<rect x="0" y="0" width="100" height="100" fill="none" stroke="#0A80D5" stroke-width="2"/>
</g></g>
<text x="245" y="186" font-size="18" fill="#2B2B2B" font-weight="600" text-anchor="middle">(B)</text>
<rect x="330" y="30" width="130" height="130" fill="#FFFFFF" stroke="#808080" stroke-width="1.25" rx="6"/>
<g transform="translate(338, 38)"><g transform="scale(1.1400)">
<rect x="0" y="0" width="100" height="100" fill="#FFFFFF" stroke="#0A80D5" stroke-width="2"/>
<line x1="0" y1="0" x2="100" y2="100" stroke="#0A80D5" stroke-width="1"/>
<line x1="100" y1="0" x2="0" y2="100" stroke="#0A80D5" stroke-width="1"/>
<polygon points="0,0 100,0 0,100" fill="#0A80D5"/>
<rect x="0" y="0" width="100" height="100" fill="none" stroke="#0A80D5" stroke-width="2"/>
</g></g>
<text x="395" y="186" font-size="18" fill="#2B2B2B" font-weight="600" text-anchor="middle">(C)</text>
<rect x="480" y="30" width="130" height="130" fill="#FFFFFF" stroke="#808080" stroke-width="1.25" rx="6"/>
<g transform="translate(488, 38)"><g transform="scale(1.1400)">
<rect x="0" y="0" width="100" height="100" fill="#FFFFFF" stroke="#0A80D5" stroke-width="2"/>
<line x1="0" y1="0" x2="100" y2="100" stroke="#0A80D5" stroke-width="1"/>
<line x1="100" y1="0" x2="0" y2="100" stroke="#0A80D5" stroke-width="1"/>
<polygon points="0,0 100,0 0,100" fill="#0A80D5"/>
<rect x="0" y="0" width="100" height="100" fill="none" stroke="#0A80D5" stroke-width="2"/>
</g></g>
<text x="545" y="186" font-size="18" fill="#2B2B2B" font-weight="600" text-anchor="middle">(D)</text>
</svg>