<svg xmlns="http://www.w3.org/2000/svg" viewBox="0 0 600 145" width="600" height="145" font-family='Untitled Sans, -apple-system, BlinkMacSystemFont, "Segoe UI", sans-serif'><line x1="300" y1="20" x2="300" y2="120" stroke="#E0D0F0" stroke-width="1" stroke-dasharray="3 3"/><line x1="50" y1="70" x2="550" y2="70" stroke="#0A80D5" stroke-width="2.5"/><polygon points="40,70 56,64 56,76" fill="#0A80D5"/><polygon points="560,70 544,64 544,76" fill="#0A80D5"/><line x1="50" y1="63" x2="50" y2="77" stroke="#0A80D5" stroke-width="2"/><text x="50" y="93" font-size="14" fill="#2B2B2B" text-anchor="middle" font-weight="500">0</text><line x1="175" y1="63" x2="175" y2="77" stroke="#0A80D5" stroke-width="2"/><text x="175" y="92.5" font-size="13" fill="#2B2B2B" text-anchor="middle" font-weight="500">1</text><line x1="169.0" y1="97" x2="181.0" y2="97" stroke="#2B2B2B" stroke-width="1.3" stroke-linecap="round"/><text x="175" y="109.3" font-size="13" fill="#2B2B2B" text-anchor="middle" font-weight="500">4</text><line x1="300" y1="55" x2="300" y2="85" stroke="#7A4FC9" stroke-width="2.5"/><text x="300" y="95.5" font-size="13" fill="#7A4FC9" text-anchor="middle" font-weight="700">1</text><line x1="294.0" y1="100" x2="306.0" y2="100" stroke="#7A4FC9" stroke-width="1.3" stroke-linecap="round"/><text x="300" y="112.3" font-size="13" fill="#7A4FC9" text-anchor="middle" font-weight="700">2</text><line x1="425" y1="63" x2="425" y2="77" stroke="#0A80D5" stroke-width="2"/><text x="425" y="92.5" font-size="13" fill="#2B2B2B" text-anchor="middle" font-weight="500">3</text><line x1="419.0" y1="97" x2="431.0" y2="97" stroke="#2B2B2B" stroke-width="1.3" stroke-linecap="round"/><text x="425" y="109.3" font-size="13" fill="#2B2B2B" text-anchor="middle" font-weight="500">4</text><line x1="550" y1="63" x2="550" y2="77" stroke="#0A80D5" stroke-width="2"/><text x="550" y="93" font-size="14" fill="#2B2B2B" text-anchor="middle" font-weight="500">1</text><circle cx="237.5" cy="70" r="7" fill="#C22300" stroke="#FFFFFF" stroke-width="2"/><text x="237.5" y="35.5" font-size="13" fill="#C22300" text-anchor="middle" font-weight="700">3</text><line x1="231.5" y1="40" x2="243.5" y2="40" stroke="#C22300" stroke-width="1.3" stroke-linecap="round"/><text x="237.5" y="52.4" font-size="13" fill="#C22300" text-anchor="middle" font-weight="700">8</text><circle cx="327.8" cy="70" r="7" fill="#C22300" stroke="#FFFFFF" stroke-width="2"/><text x="327.8" y="35.5" font-size="13" fill="#C22300" text-anchor="middle" font-weight="700">5</text><line x1="321.8" y1="40" x2="333.8" y2="40" stroke="#C22300" stroke-width="1.3" stroke-linecap="round"/><text x="327.8" y="52.4" font-size="13" fill="#C22300" text-anchor="middle" font-weight="700">9</text></svg>