<svg xmlns="http://www.w3.org/2000/svg" viewBox="0 0 670 230" width="670" height="230" font-family='"Untitled Sans", -apple-system, BlinkMacSystemFont, "Segoe UI", sans-serif'>
<rect x="40.0" y="36" width="180.0" height="64" fill="#8DD5F1" stroke="#0A80D5" stroke-width="2"/>
<rect x="220.0" y="36" width="180.0" height="64" fill="#8DD5F1" stroke="#0A80D5" stroke-width="2"/>
<rect x="400.0" y="36" width="180.0" height="64" fill="#FFFFFF" stroke="#0A80D5" stroke-width="2"/>
<text x="592" y="73" font-size="18" fill="#2B2B2B" font-weight="500">2/3</text>
<rect x="40.0" y="130" width="45.0" height="64" fill="#8DD5F1" stroke="#0A80D5" stroke-width="2"/>
<rect x="85.0" y="130" width="45.0" height="64" fill="#8DD5F1" stroke="#0A80D5" stroke-width="2"/>
<rect x="130.0" y="130" width="45.0" height="64" fill="#8DD5F1" stroke="#0A80D5" stroke-width="2"/>
<rect x="175.0" y="130" width="45.0" height="64" fill="#8DD5F1" stroke="#0A80D5" stroke-width="2"/>
<rect x="220.0" y="130" width="45.0" height="64" fill="#8DD5F1" stroke="#0A80D5" stroke-width="2"/>
<rect x="265.0" y="130" width="45.0" height="64" fill="#8DD5F1" stroke="#0A80D5" stroke-width="2"/>
<rect x="310.0" y="130" width="45.0" height="64" fill="#8DD5F1" stroke="#0A80D5" stroke-width="2"/>
<rect x="355.0" y="130" width="45.0" height="64" fill="#8DD5F1" stroke="#0A80D5" stroke-width="2"/>
<rect x="400.0" y="130" width="45.0" height="64" fill="#FFFFFF" stroke="#0A80D5" stroke-width="2"/>
<rect x="445.0" y="130" width="45.0" height="64" fill="#FFFFFF" stroke="#0A80D5" stroke-width="2"/>
<rect x="490.0" y="130" width="45.0" height="64" fill="#FFFFFF" stroke="#0A80D5" stroke-width="2"/>
<rect x="535.0" y="130" width="45.0" height="64" fill="#FFFFFF" stroke="#0A80D5" stroke-width="2"/>
<text x="592" y="167" font-size="18" fill="#2B2B2B" font-weight="500">8/12</text>
</svg>