<svg xmlns="http://www.w3.org/2000/svg" viewBox="0 0 540 180" width="540" height="180" style="font-family:-apple-system,Segoe UI,sans-serif" preserveAspectRatio="xMidYMid meet"><rect width="540" height="180" fill="#FFFFFF"/><path d="M90.0,80.0 L90.0,25.0 A55.0,55.0 0 0 1 142.3,63.0 Z" fill="#EBBDEC" stroke="#850F85" stroke-width="2" stroke-linejoin="round"/><path d="M90.0,80.0 L142.3,63.0 A55.0,55.0 0 0 1 122.3,124.5 Z" fill="#EBBDEC" stroke="#850F85" stroke-width="2" stroke-linejoin="round"/><path d="M90.0,80.0 L122.3,124.5 A55.0,55.0 0 0 1 57.7,124.5 Z" fill="#FFFFFF" stroke="#850F85" stroke-width="2" stroke-linejoin="round"/><path d="M90.0,80.0 L57.7,124.5 A55.0,55.0 0 0 1 37.7,63.0 Z" fill="#FFFFFF" stroke="#850F85" stroke-width="2" stroke-linejoin="round"/><path d="M90.0,80.0 L37.7,63.0 A55.0,55.0 0 0 1 90.0,25.0 Z" fill="#FFFFFF" stroke="#850F85" stroke-width="2" stroke-linejoin="round"/><text x="90" y="158" font-size="13" fill="#808080" text-anchor="middle" font-weight="500" font-family="Untitled Sans, -apple-system, BlinkMacSystemFont, &quot;Segoe UI&quot;, sans-serif">Figure 1</text><rect x="190.00" y="40" width="26.67" height="80" rx="3" fill="#EBBDEC" stroke="#850F85" stroke-width="2" stroke-linejoin="round"/><rect x="216.67" y="40" width="26.67" height="80" rx="3" fill="#EBBDEC" stroke="#850F85" stroke-width="2" stroke-linejoin="round"/><rect x="243.33" y="40" width="26.67" height="80" rx="3" fill="#EBBDEC" stroke="#850F85" stroke-width="2" stroke-linejoin="round"/><rect x="270.00" y="40" width="26.67" height="80" rx="3" fill="#EBBDEC" stroke="#850F85" stroke-width="2" stroke-linejoin="round"/><rect x="296.67" y="40" width="26.67" height="80" rx="3" fill="#FFFFFF" stroke="#850F85" stroke-width="2" stroke-linejoin="round"/><rect x="323.33" y="40" width="26.67" height="80" rx="3" fill="#FFFFFF" stroke="#850F85" stroke-width="2" stroke-linejoin="round"/><text x="270" y="158" font-size="13" fill="#808080" text-anchor="middle" font-weight="500" font-family="Untitled Sans, -apple-system, BlinkMacSystemFont, &quot;Segoe UI&quot;, sans-serif">Figure 2</text><polygon points="450.0,36.7 400.0,123.3 500.0,123.3" fill="#FFFFFF" stroke="#850F85" stroke-width="1.5"/><polygon points="425.0,80.0 450.0,123.3 475.0,80.0" fill="#EBBDEC" stroke="#850F85" stroke-width="1.5"/><line x1="425.0" y1="80.0" x2="450.0" y2="123.3" stroke="#850F85" stroke-width="1.5"/><line x1="450.0" y1="123.3" x2="475.0" y2="80.0" stroke="#850F85" stroke-width="1.5"/><line x1="475.0" y1="80.0" x2="425.0" y2="80.0" stroke="#850F85" stroke-width="1.5"/><text x="450" y="158" font-size="13" fill="#808080" text-anchor="middle" font-weight="500" font-family="Untitled Sans, -apple-system, BlinkMacSystemFont, &quot;Segoe UI&quot;, sans-serif">Figure 3</text></svg>