<svg xmlns="http://www.w3.org/2000/svg" viewBox="0 0 440 170" width="440" height="170" style="font-family:-apple-system,Segoe UI,sans-serif" preserveAspectRatio="xMidYMid meet"><rect width="440" height="170" fill="#FFFFFF"/><rect x="40.00" y="40" width="45.00" height="35" rx="3" fill="#EBBDEC" stroke="#850F85" stroke-width="2" stroke-linejoin="round"/><rect x="85.00" y="40" width="45.00" height="35" rx="3" fill="#EBBDEC" stroke="#850F85" stroke-width="2" stroke-linejoin="round"/><rect x="130.00" y="40" width="45.00" height="35" rx="3" fill="#EBBDEC" stroke="#850F85" stroke-width="2" stroke-linejoin="round"/><rect x="175.00" y="40" width="45.00" height="35" rx="3" fill="#EBBDEC" stroke="#850F85" stroke-width="2" stroke-linejoin="round"/><rect x="220.00" y="40" width="45.00" height="35" rx="3" fill="#EBBDEC" stroke="#850F85" stroke-width="2" stroke-linejoin="round"/><rect x="265.00" y="40" width="45.00" height="35" rx="3" fill="#FFFFFF" stroke="#850F85" stroke-width="2" stroke-linejoin="round"/><rect x="310.00" y="40" width="45.00" height="35" rx="3" fill="#FFFFFF" stroke="#850F85" stroke-width="2" stroke-linejoin="round"/><rect x="355.00" y="40" width="45.00" height="35" rx="3" fill="#FFFFFF" stroke="#850F85" stroke-width="2" stroke-linejoin="round"/><text x="20" y="55.45" font-size="13" fill="#2B2B2B" text-anchor="middle" font-weight="500" font-family="Untitled Sans, -apple-system, BlinkMacSystemFont, &quot;Segoe UI&quot;, sans-serif">5</text><line x1="14.0" y1="60.0" x2="26.0" y2="60.0" stroke="#2B2B2B" stroke-width="1.3" stroke-linecap="round"/><text x="20" y="72.35" font-size="13" fill="#2B2B2B" text-anchor="middle" font-weight="500" font-family="Untitled Sans, -apple-system, BlinkMacSystemFont, &quot;Segoe UI&quot;, sans-serif">8</text><rect x="40.00" y="100" width="120.00" height="35" rx="3" fill="#EBBDEC" stroke="#850F85" stroke-width="2" stroke-linejoin="round"/><rect x="160.00" y="100" width="120.00" height="35" rx="3" fill="#EBBDEC" stroke="#850F85" stroke-width="2" stroke-linejoin="round"/><rect x="280.00" y="100" width="120.00" height="35" rx="3" fill="#FFFFFF" stroke="#850F85" stroke-width="2" stroke-linejoin="round"/><text x="20" y="115.45" font-size="13" fill="#2B2B2B" text-anchor="middle" font-weight="500" font-family="Untitled Sans, -apple-system, BlinkMacSystemFont, &quot;Segoe UI&quot;, sans-serif">2</text><line x1="14.0" y1="120.0" x2="26.0" y2="120.0" stroke="#2B2B2B" stroke-width="1.3" stroke-linecap="round"/><text x="20" y="132.35" font-size="13" fill="#2B2B2B" text-anchor="middle" font-weight="500" font-family="Untitled Sans, -apple-system, BlinkMacSystemFont, &quot;Segoe UI&quot;, sans-serif">3</text><text x="220" y="160" font-size="11" fill="#808080" text-anchor="middle" font-weight="500" font-family="Untitled Sans, -apple-system, BlinkMacSystemFont, &quot;Segoe UI&quot;, sans-serif">Same width — different cuts</text></svg>