<svg xmlns="http://www.w3.org/2000/svg" viewBox="0 0 440 200" width="440" height="200" style="font-family:-apple-system,Segoe UI,sans-serif" preserveAspectRatio="xMidYMid meet"><rect width="440" height="200" fill="#FFFFFF"/><text x="220" y="24" font-size="12" fill="#808080" text-anchor="middle" font-weight="500" font-family="Untitled Sans, -apple-system, BlinkMacSystemFont, &quot;Segoe UI&quot;, sans-serif">Two equivalent bars — same length, different cuts</text><rect x="40.00" y="50" width="120.00" height="35" rx="3" fill="#EBBDEC" stroke="#850F85" stroke-width="2" stroke-linejoin="round"/><rect x="160.00" y="50" width="120.00" height="35" rx="3" fill="#EBBDEC" stroke="#850F85" stroke-width="2" stroke-linejoin="round"/><rect x="280.00" y="50" width="120.00" height="35" rx="3" fill="#FFFFFF" stroke="#850F85" stroke-width="2" stroke-linejoin="round"/><text x="20" y="65.45" font-size="13" fill="#2B2B2B" text-anchor="middle" font-weight="500" font-family="Untitled Sans, -apple-system, BlinkMacSystemFont, &quot;Segoe UI&quot;, sans-serif">2</text><line x1="14.0" y1="70.0" x2="26.0" y2="70.0" stroke="#2B2B2B" stroke-width="1.3" stroke-linecap="round"/><text x="20" y="82.35" font-size="13" fill="#2B2B2B" text-anchor="middle" font-weight="500" font-family="Untitled Sans, -apple-system, BlinkMacSystemFont, &quot;Segoe UI&quot;, sans-serif">3</text><rect x="40.00" y="110" width="60.00" height="35" rx="3" fill="#FFFFFF" stroke="#850F85" stroke-width="2" stroke-linejoin="round"/><rect x="100.00" y="110" width="60.00" height="35" rx="3" fill="#FFFFFF" stroke="#850F85" stroke-width="2" stroke-linejoin="round"/><rect x="160.00" y="110" width="60.00" height="35" rx="3" fill="#FFFFFF" stroke="#850F85" stroke-width="2" stroke-linejoin="round"/><rect x="220.00" y="110" width="60.00" height="35" rx="3" fill="#FFFFFF" stroke="#850F85" stroke-width="2" stroke-linejoin="round"/><rect x="280.00" y="110" width="60.00" height="35" rx="3" fill="#FFFFFF" stroke="#850F85" stroke-width="2" stroke-linejoin="round"/><rect x="340.00" y="110" width="60.00" height="35" rx="3" fill="#FFFFFF" stroke="#850F85" stroke-width="2" stroke-linejoin="round"/><text x="20" y="125.45" font-size="13" fill="#149A55" text-anchor="middle" font-weight="500" font-family="Untitled Sans, -apple-system, BlinkMacSystemFont, &quot;Segoe UI&quot;, sans-serif">?</text><line x1="14.0" y1="130.0" x2="26.0" y2="130.0" stroke="#149A55" stroke-width="1.3" stroke-linecap="round"/><text x="20" y="142.35" font-size="13" fill="#149A55" text-anchor="middle" font-weight="500" font-family="Untitled Sans, -apple-system, BlinkMacSystemFont, &quot;Segoe UI&quot;, sans-serif">6</text></svg>