<svg xmlns="http://www.w3.org/2000/svg" viewBox="0 0 440 180" width="440" height="180" style="font-family:-apple-system,Segoe UI,sans-serif" preserveAspectRatio="xMidYMid meet"><rect width="440" height="180" fill="#FFFFFF"/><path d="M110.0,90.0 L110.0,20.0 A70.0,70.0 0 0 1 110.0,160.0 Z" fill="#EBBDEC" stroke="#850F85" stroke-width="2" stroke-linejoin="round"/><path d="M110.0,90.0 L110.0,160.0 A70.0,70.0 0 0 1 110.0,20.0 Z" fill="#FFFFFF" stroke="#850F85" stroke-width="2" stroke-linejoin="round"/><path d="M330.0,90.0 L330.0,20.0 A70.0,70.0 0 0 1 400.0,90.0 Z" fill="#EBBDEC" stroke="#850F85" stroke-width="2" stroke-linejoin="round"/><path d="M330.0,90.0 L400.0,90.0 A70.0,70.0 0 0 1 330.0,160.0 Z" fill="#EBBDEC" stroke="#850F85" stroke-width="2" stroke-linejoin="round"/><path d="M330.0,90.0 L330.0,160.0 A70.0,70.0 0 0 1 260.0,90.0 Z" fill="#FFFFFF" stroke="#850F85" stroke-width="2" stroke-linejoin="round"/><path d="M330.0,90.0 L260.0,90.0 A70.0,70.0 0 0 1 330.0,20.0 Z" fill="#FFFFFF" stroke="#850F85" stroke-width="2" stroke-linejoin="round"/></svg>