<svg xmlns="http://www.w3.org/2000/svg" viewBox="0 0 280 200" width="280" height="200" style="font-family:-apple-system,Segoe UI,sans-serif" preserveAspectRatio="xMidYMid meet"><rect width="280" height="200" fill="#FFFFFF"/><path d="M140.0,100.0 L140.0,25.0 A75.0,75.0 0 0 1 193.0,47.0 Z" fill="#EBBDEC" stroke="#850F85" stroke-width="2" stroke-linejoin="round"/><path d="M140.0,100.0 L193.0,47.0 A75.0,75.0 0 0 1 215.0,100.0 Z" fill="#EBBDEC" stroke="#850F85" stroke-width="2" stroke-linejoin="round"/><path d="M140.0,100.0 L215.0,100.0 A75.0,75.0 0 0 1 193.0,153.0 Z" fill="#EBBDEC" stroke="#850F85" stroke-width="2" stroke-linejoin="round"/><path d="M140.0,100.0 L193.0,153.0 A75.0,75.0 0 0 1 140.0,175.0 Z" fill="#FFFFFF" stroke="#850F85" stroke-width="2" stroke-linejoin="round"/><path d="M140.0,100.0 L140.0,175.0 A75.0,75.0 0 0 1 87.0,153.0 Z" fill="#FFFFFF" stroke="#850F85" stroke-width="2" stroke-linejoin="round"/><path d="M140.0,100.0 L87.0,153.0 A75.0,75.0 0 0 1 65.0,100.0 Z" fill="#FFFFFF" stroke="#850F85" stroke-width="2" stroke-linejoin="round"/><path d="M140.0,100.0 L65.0,100.0 A75.0,75.0 0 0 1 87.0,47.0 Z" fill="#FFFFFF" stroke="#850F85" stroke-width="2" stroke-linejoin="round"/><path d="M140.0,100.0 L87.0,47.0 A75.0,75.0 0 0 1 140.0,25.0 Z" fill="#FFFFFF" stroke="#850F85" stroke-width="2" stroke-linejoin="round"/><text x="140" y="185" font-size="12" fill="#808080" text-anchor="middle" font-weight="500" font-family="Untitled Sans, -apple-system, BlinkMacSystemFont, &quot;Segoe UI&quot;, sans-serif">8 equal slices · 3 with pepperoni</text></svg>