<svg xmlns="http://www.w3.org/2000/svg" viewBox="0 0 440 220" width="440" height="220" style="font-family:-apple-system,Segoe UI,sans-serif" preserveAspectRatio="xMidYMid meet"><rect width="440" height="220" fill="#FFFFFF"/><path d="M110.0,80.0 L110.0,10.0 A70.0,70.0 0 0 1 110.0,150.0 Z" fill="#EBBDEC" stroke="#850F85" stroke-width="2" stroke-linejoin="round"/><path d="M110.0,80.0 L110.0,150.0 A70.0,70.0 0 0 1 110.0,10.0 Z" fill="#FFFFFF" stroke="#850F85" stroke-width="2" stroke-linejoin="round"/><text x="110" y="175" font-size="13" fill="#2B2B2B" text-anchor="middle" font-weight="500" font-family="Untitled Sans, -apple-system, BlinkMacSystemFont, &quot;Segoe UI&quot;, sans-serif">Sam</text><path d="M330.0,80.0 L330.0,10.0 A70.0,70.0 0 0 1 400.0,80.0 Z" fill="#EBBDEC" stroke="#850F85" stroke-width="2" stroke-linejoin="round"/><path d="M330.0,80.0 L400.0,80.0 A70.0,70.0 0 0 1 330.0,150.0 Z" fill="#EBBDEC" stroke="#850F85" stroke-width="2" stroke-linejoin="round"/><path d="M330.0,80.0 L330.0,150.0 A70.0,70.0 0 0 1 260.0,80.0 Z" fill="#FFFFFF" stroke="#850F85" stroke-width="2" stroke-linejoin="round"/><path d="M330.0,80.0 L260.0,80.0 A70.0,70.0 0 0 1 330.0,10.0 Z" fill="#FFFFFF" stroke="#850F85" stroke-width="2" stroke-linejoin="round"/><text x="330" y="175" font-size="13" fill="#2B2B2B" text-anchor="middle" font-weight="500" font-family="Untitled Sans, -apple-system, BlinkMacSystemFont, &quot;Segoe UI&quot;, sans-serif">Maya</text></svg>