<svg xmlns="http://www.w3.org/2000/svg" viewBox="0 0 220 200" width="220" height="200" style="font-family:-apple-system,Segoe UI,sans-serif" preserveAspectRatio="xMidYMid meet"><rect width="220" height="200" fill="#FFFFFF"/><path d="M110.0,95.0 L110.0,25.0 A70.0,70.0 0 0 1 159.5,45.5 Z" fill="#EBBDEC" stroke="#850F85" stroke-width="2" stroke-linejoin="round"/><path d="M110.0,95.0 L159.5,45.5 A70.0,70.0 0 0 1 180.0,95.0 Z" fill="#EBBDEC" stroke="#850F85" stroke-width="2" stroke-linejoin="round"/><path d="M110.0,95.0 L180.0,95.0 A70.0,70.0 0 0 1 159.5,144.5 Z" fill="#EBBDEC" stroke="#850F85" stroke-width="2" stroke-linejoin="round"/><path d="M110.0,95.0 L159.5,144.5 A70.0,70.0 0 0 1 110.0,165.0 Z" fill="#FFFFFF" stroke="#850F85" stroke-width="2" stroke-linejoin="round"/><path d="M110.0,95.0 L110.0,165.0 A70.0,70.0 0 0 1 60.5,144.5 Z" fill="#FFFFFF" stroke="#850F85" stroke-width="2" stroke-linejoin="round"/><path d="M110.0,95.0 L60.5,144.5 A70.0,70.0 0 0 1 40.0,95.0 Z" fill="#FFFFFF" stroke="#850F85" stroke-width="2" stroke-linejoin="round"/><path d="M110.0,95.0 L40.0,95.0 A70.0,70.0 0 0 1 60.5,45.5 Z" fill="#FFFFFF" stroke="#850F85" stroke-width="2" stroke-linejoin="round"/><path d="M110.0,95.0 L60.5,45.5 A70.0,70.0 0 0 1 110.0,25.0 Z" fill="#FFFFFF" stroke="#850F85" stroke-width="2" stroke-linejoin="round"/><text x="110" y="185" font-size="11" fill="#808080" text-anchor="middle" font-weight="500" font-family="Untitled Sans, -apple-system, BlinkMacSystemFont, &quot;Segoe UI&quot;, sans-serif">8 sectors · 3 shaded</text></svg>