<svg xmlns="http://www.w3.org/2000/svg" viewBox="0 0 440 130" width="440" height="130" style="font-family:-apple-system,Segoe UI,sans-serif" preserveAspectRatio="xMidYMid meet"><rect width="440" height="130" fill="#FFFFFF"/><text x="220" y="24" font-size="12" fill="#808080" text-anchor="middle" font-weight="500" font-family="Untitled Sans, -apple-system, BlinkMacSystemFont, &quot;Segoe UI&quot;, sans-serif">12 equal squares · 4 shaded</text><rect x="20.00" y="50" width="33.33" height="50" rx="3" fill="#EBBDEC" stroke="#850F85" stroke-width="2" stroke-linejoin="round"/><rect x="53.33" y="50" width="33.33" height="50" rx="3" fill="#EBBDEC" stroke="#850F85" stroke-width="2" stroke-linejoin="round"/><rect x="86.67" y="50" width="33.33" height="50" rx="3" fill="#EBBDEC" stroke="#850F85" stroke-width="2" stroke-linejoin="round"/><rect x="120.00" y="50" width="33.33" height="50" rx="3" fill="#EBBDEC" stroke="#850F85" stroke-width="2" stroke-linejoin="round"/><rect x="153.33" y="50" width="33.33" height="50" rx="3" fill="#FFFFFF" stroke="#850F85" stroke-width="2" stroke-linejoin="round"/><rect x="186.67" y="50" width="33.33" height="50" rx="3" fill="#FFFFFF" stroke="#850F85" stroke-width="2" stroke-linejoin="round"/><rect x="220.00" y="50" width="33.33" height="50" rx="3" fill="#FFFFFF" stroke="#850F85" stroke-width="2" stroke-linejoin="round"/><rect x="253.33" y="50" width="33.33" height="50" rx="3" fill="#FFFFFF" stroke="#850F85" stroke-width="2" stroke-linejoin="round"/><rect x="286.67" y="50" width="33.33" height="50" rx="3" fill="#FFFFFF" stroke="#850F85" stroke-width="2" stroke-linejoin="round"/><rect x="320.00" y="50" width="33.33" height="50" rx="3" fill="#FFFFFF" stroke="#850F85" stroke-width="2" stroke-linejoin="round"/><rect x="353.33" y="50" width="33.33" height="50" rx="3" fill="#FFFFFF" stroke="#850F85" stroke-width="2" stroke-linejoin="round"/><rect x="386.67" y="50" width="33.33" height="50" rx="3" fill="#FFFFFF" stroke="#850F85" stroke-width="2" stroke-linejoin="round"/></svg>