<svg xmlns="http://www.w3.org/2000/svg" viewBox="0 0 460 200" width="460" height="200" style="font-family:-apple-system,Segoe UI,sans-serif" preserveAspectRatio="xMidYMid meet"><rect width="460" height="200" fill="#FFFFFF"/><text x="20" y="24" font-size="12" fill="#808080" text-anchor="start" font-weight="500" font-family="Untitled Sans, -apple-system, BlinkMacSystemFont, &quot;Segoe UI&quot;, sans-serif">Find the missing number</text><text x="60" y="49.75" font-size="15" fill="#2B2B2B" text-anchor="middle" font-weight="500" font-family="Untitled Sans, -apple-system, BlinkMacSystemFont, &quot;Segoe UI&quot;, sans-serif">2</text><line x1="53.4" y1="55.0" x2="66.7" y2="55.0" stroke="#2B2B2B" stroke-width="1.3" stroke-linecap="round"/><text x="60" y="69.25" font-size="15" fill="#2B2B2B" text-anchor="middle" font-weight="500" font-family="Untitled Sans, -apple-system, BlinkMacSystemFont, &quot;Segoe UI&quot;, sans-serif">3</text><rect x="140.00" y="45" width="93.33" height="30" rx="3" fill="#EBBDEC" stroke="#850F85" stroke-width="2" stroke-linejoin="round"/><rect x="233.33" y="45" width="93.33" height="30" rx="3" fill="#EBBDEC" stroke="#850F85" stroke-width="2" stroke-linejoin="round"/><rect x="326.67" y="45" width="93.33" height="30" rx="3" fill="#FFFFFF" stroke="#850F85" stroke-width="2" stroke-linejoin="round"/><text x="60" y="104.75" font-size="15" fill="#2B2B2B" text-anchor="middle" font-weight="500" font-family="Untitled Sans, -apple-system, BlinkMacSystemFont, &quot;Segoe UI&quot;, sans-serif">3</text><line x1="53.4" y1="110.0" x2="66.7" y2="110.0" stroke="#2B2B2B" stroke-width="1.3" stroke-linecap="round"/><text x="60" y="124.25" font-size="15" fill="#2B2B2B" text-anchor="middle" font-weight="500" font-family="Untitled Sans, -apple-system, BlinkMacSystemFont, &quot;Segoe UI&quot;, sans-serif">4</text><rect x="140.00" y="100" width="70.00" height="30" rx="3" fill="#EBBDEC" stroke="#850F85" stroke-width="2" stroke-linejoin="round"/><rect x="210.00" y="100" width="70.00" height="30" rx="3" fill="#EBBDEC" stroke="#850F85" stroke-width="2" stroke-linejoin="round"/><rect x="280.00" y="100" width="70.00" height="30" rx="3" fill="#EBBDEC" stroke="#850F85" stroke-width="2" stroke-linejoin="round"/><rect x="350.00" y="100" width="70.00" height="30" rx="3" fill="#FFFFFF" stroke="#850F85" stroke-width="2" stroke-linejoin="round"/><text x="60" y="159.75" font-size="15" fill="#2B2B2B" text-anchor="middle" font-weight="500" font-family="Untitled Sans, -apple-system, BlinkMacSystemFont, &quot;Segoe UI&quot;, sans-serif">6</text><line x1="53.4" y1="165.0" x2="66.7" y2="165.0" stroke="#2B2B2B" stroke-width="1.3" stroke-linecap="round"/><text x="60" y="179.25" font-size="15" fill="#2B2B2B" text-anchor="middle" font-weight="500" font-family="Untitled Sans, -apple-system, BlinkMacSystemFont, &quot;Segoe UI&quot;, sans-serif">8</text><rect x="140.00" y="155" width="35.00" height="30" rx="3" fill="#EBBDEC" stroke="#850F85" stroke-width="2" stroke-linejoin="round"/><rect x="175.00" y="155" width="35.00" height="30" rx="3" fill="#EBBDEC" stroke="#850F85" stroke-width="2" stroke-linejoin="round"/><rect x="210.00" y="155" width="35.00" height="30" rx="3" fill="#EBBDEC" stroke="#850F85" stroke-width="2" stroke-linejoin="round"/><rect x="245.00" y="155" width="35.00" height="30" rx="3" fill="#EBBDEC" stroke="#850F85" stroke-width="2" stroke-linejoin="round"/><rect x="280.00" y="155" width="35.00" height="30" rx="3" fill="#EBBDEC" stroke="#850F85" stroke-width="2" stroke-linejoin="round"/><rect x="315.00" y="155" width="35.00" height="30" rx="3" fill="#EBBDEC" stroke="#850F85" stroke-width="2" stroke-linejoin="round"/><rect x="350.00" y="155" width="35.00" height="30" rx="3" fill="#FFFFFF" stroke="#850F85" stroke-width="2" stroke-linejoin="round"/><rect x="385.00" y="155" width="35.00" height="30" rx="3" fill="#FFFFFF" stroke="#850F85" stroke-width="2" stroke-linejoin="round"/></svg>