<svg xmlns="http://www.w3.org/2000/svg" viewBox="0 0 360 320" width="360" height="320" style="font-family:-apple-system,Segoe UI,sans-serif" preserveAspectRatio="xMidYMid meet"><rect width="360" height="320" fill="#FFFFFF"/><polygon points="176.00,156.00 50.00,30.00 251.60,30.00" fill="#AFE8C2" stroke="#149A55" stroke-width="1.2"/><polygon points="176.00,156.00 302.00,30.00 302.00,231.60" fill="#AFE8C2" stroke="#149A55" stroke-width="1.2"/><polygon points="176.00,156.00 302.00,282.00 100.40,282.00" fill="#AFE8C2" stroke="#149A55" stroke-width="1.2"/><polygon points="176.00,156.00 50.00,282.00 50.00,80.40" fill="#AFE8C2" stroke="#149A55" stroke-width="1.2"/><line x1="50" y1="30" x2="50" y2="282" stroke="#850F85" stroke-width="0.8" opacity="0.55"/><line x1="50" y1="30" x2="302" y2="30" stroke="#850F85" stroke-width="0.8" opacity="0.55"/><line x1="92" y1="30" x2="92" y2="282" stroke="#850F85" stroke-width="0.8" opacity="0.55"/><line x1="50" y1="72" x2="302" y2="72" stroke="#850F85" stroke-width="0.8" opacity="0.55"/><line x1="134" y1="30" x2="134" y2="282" stroke="#850F85" stroke-width="0.8" opacity="0.55"/><line x1="50" y1="114" x2="302" y2="114" stroke="#850F85" stroke-width="0.8" opacity="0.55"/><line x1="176" y1="30" x2="176" y2="282" stroke="#850F85" stroke-width="0.8" opacity="0.55"/><line x1="50" y1="156" x2="302" y2="156" stroke="#850F85" stroke-width="0.8" opacity="0.55"/><line x1="218" y1="30" x2="218" y2="282" stroke="#850F85" stroke-width="0.8" opacity="0.55"/><line x1="50" y1="198" x2="302" y2="198" stroke="#850F85" stroke-width="0.8" opacity="0.55"/><line x1="260" y1="30" x2="260" y2="282" stroke="#850F85" stroke-width="0.8" opacity="0.55"/><line x1="50" y1="240" x2="302" y2="240" stroke="#850F85" stroke-width="0.8" opacity="0.55"/><line x1="302" y1="30" x2="302" y2="282" stroke="#850F85" stroke-width="0.8" opacity="0.55"/><line x1="50" y1="282" x2="302" y2="282" stroke="#850F85" stroke-width="0.8" opacity="0.55"/><rect x="50" y="30" width="252" height="252" fill="none" stroke="#850F85" stroke-width="2"/></svg>