<svg xmlns="http://www.w3.org/2000/svg" viewBox="0 0 460 230" width="460" height="230" style="font-family:-apple-system,Segoe UI,sans-serif" preserveAspectRatio="xMidYMid meet"><rect width="460" height="230" fill="#FFFFFF"/><text x="210" y="24" font-size="12" fill="#808080" text-anchor="middle" font-weight="500" font-family="Untitled Sans, -apple-system, BlinkMacSystemFont, &quot;Segoe UI&quot;, sans-serif">Merge pairs back — same length, simpler name</text><rect x="60.00" y="50" width="40.00" height="40" rx="3" fill="#EBBDEC" stroke="#850F85" stroke-width="2" stroke-linejoin="round"/><rect x="100.00" y="50" width="40.00" height="40" rx="3" fill="#EBBDEC" stroke="#850F85" stroke-width="2" stroke-linejoin="round"/><rect x="140.00" y="50" width="40.00" height="40" rx="3" fill="#EBBDEC" stroke="#850F85" stroke-width="2" stroke-linejoin="round"/><rect x="180.00" y="50" width="40.00" height="40" rx="3" fill="#EBBDEC" stroke="#850F85" stroke-width="2" stroke-linejoin="round"/><rect x="220.00" y="50" width="40.00" height="40" rx="3" fill="#EBBDEC" stroke="#850F85" stroke-width="2" stroke-linejoin="round"/><rect x="260.00" y="50" width="40.00" height="40" rx="3" fill="#EBBDEC" stroke="#850F85" stroke-width="2" stroke-linejoin="round"/><rect x="300.00" y="50" width="40.00" height="40" rx="3" fill="#FFFFFF" stroke="#850F85" stroke-width="2" stroke-linejoin="round"/><rect x="340.00" y="50" width="40.00" height="40" rx="3" fill="#FFFFFF" stroke="#850F85" stroke-width="2" stroke-linejoin="round"/><text x="34" y="70.1" font-size="14" fill="#2B2B2B" text-anchor="middle" font-weight="500" font-family="Untitled Sans, -apple-system, BlinkMacSystemFont, &quot;Segoe UI&quot;, sans-serif">6</text><line x1="27.7" y1="75.0" x2="40.3" y2="75.0" stroke="#2B2B2B" stroke-width="1.3" stroke-linecap="round"/><text x="34" y="88.3" font-size="14" fill="#2B2B2B" text-anchor="middle" font-weight="500" font-family="Untitled Sans, -apple-system, BlinkMacSystemFont, &quot;Segoe UI&quot;, sans-serif">8</text><rect x="60.00" y="140" width="80.00" height="40" rx="3" fill="#EBBDEC" stroke="#850F85" stroke-width="2" stroke-linejoin="round"/><rect x="140.00" y="140" width="80.00" height="40" rx="3" fill="#EBBDEC" stroke="#850F85" stroke-width="2" stroke-linejoin="round"/><rect x="220.00" y="140" width="80.00" height="40" rx="3" fill="#EBBDEC" stroke="#850F85" stroke-width="2" stroke-linejoin="round"/><rect x="300.00" y="140" width="80.00" height="40" rx="3" fill="#FFFFFF" stroke="#850F85" stroke-width="2" stroke-linejoin="round"/><text x="34" y="160.1" font-size="14" fill="#2B2B2B" text-anchor="middle" font-weight="500" font-family="Untitled Sans, -apple-system, BlinkMacSystemFont, &quot;Segoe UI&quot;, sans-serif">3</text><line x1="27.7" y1="165.0" x2="40.3" y2="165.0" stroke="#2B2B2B" stroke-width="1.3" stroke-linecap="round"/><text x="34" y="178.3" font-size="14" fill="#2B2B2B" text-anchor="middle" font-weight="500" font-family="Untitled Sans, -apple-system, BlinkMacSystemFont, &quot;Segoe UI&quot;, sans-serif">4</text><line x1="300" y1="40" x2="300" y2="190" stroke="#149A55" stroke-width="1.2" stroke-dasharray="4,3"/><text x="300" y="210" font-size="11" fill="#149A55" text-anchor="middle" font-weight="500" font-family="Untitled Sans, -apple-system, BlinkMacSystemFont, &quot;Segoe UI&quot;, sans-serif">↑ same shaded length</text><path d="M 395 92 C 410 110, 410 130, 395 148" fill="none" stroke="#850F85" stroke-width="1.6" marker-end="url(#arrTipS)"/><defs><marker id="arrTipS" viewBox="0 0 10 10" refX="9" refY="5" markerWidth="6" markerHeight="6" orient="auto-start-reverse"><path d="M 0 0 L 10 5 L 0 10 z" fill="#850F85"/></marker></defs><text x="408" y="125" font-size="14" font-weight="600" fill="#850F85">÷2</text></svg>