<svg xmlns="http://www.w3.org/2000/svg" viewBox="0 0 670 418" width="670" height="418" font-family='"Untitled Sans", -apple-system, BlinkMacSystemFont, "Segoe UI", sans-serif'>
<rect x="40.0" y="36" width="135.0" height="64" fill="#8DD5F1" stroke="#0A80D5" stroke-width="2"/>
<rect x="175.0" y="36" width="135.0" height="64" fill="#8DD5F1" stroke="#0A80D5" stroke-width="2"/>
<rect x="310.0" y="36" width="135.0" height="64" fill="#8DD5F1" stroke="#0A80D5" stroke-width="2"/>
<rect x="445.0" y="36" width="135.0" height="64" fill="#8DD5F1" stroke="#0A80D5" stroke-width="2"/>
<text x="592" y="73" font-size="18" fill="#2B2B2B" font-weight="500">24 hours</text>
<rect x="40.0" y="130" width="135.0" height="64" fill="#8DD5F1" stroke="#0A80D5" stroke-width="2"/>
<rect x="175.0" y="130" width="135.0" height="64" fill="#FFFFFF" stroke="#0A80D5" stroke-width="2"/>
<rect x="310.0" y="130" width="135.0" height="64" fill="#FFFFFF" stroke="#0A80D5" stroke-width="2"/>
<rect x="445.0" y="130" width="135.0" height="64" fill="#FFFFFF" stroke="#0A80D5" stroke-width="2"/>
<text x="592" y="167" font-size="18" fill="#2B2B2B" font-weight="500">¼ = 6 hours</text>
<rect x="40.0" y="224" width="45.0" height="64" fill="#8DD5F1" stroke="#0A80D5" stroke-width="2"/>
<rect x="85.0" y="224" width="45.0" height="64" fill="#8DD5F1" stroke="#0A80D5" stroke-width="2"/>
<rect x="130.0" y="224" width="45.0" height="64" fill="#FFFFFF" stroke="#0A80D5" stroke-width="2"/>
<rect x="175.0" y="224" width="45.0" height="64" fill="#FFFFFF" stroke="#0A80D5" stroke-width="2"/>
<rect x="220.0" y="224" width="45.0" height="64" fill="#FFFFFF" stroke="#0A80D5" stroke-width="2"/>
<rect x="265.0" y="224" width="45.0" height="64" fill="#FFFFFF" stroke="#0A80D5" stroke-width="2"/>
<rect x="310.0" y="224" width="45.0" height="64" fill="#FFFFFF" stroke="#0A80D5" stroke-width="2"/>
<rect x="355.0" y="224" width="45.0" height="64" fill="#FFFFFF" stroke="#0A80D5" stroke-width="2"/>
<rect x="400.0" y="224" width="45.0" height="64" fill="#FFFFFF" stroke="#0A80D5" stroke-width="2"/>
<rect x="445.0" y="224" width="45.0" height="64" fill="#FFFFFF" stroke="#0A80D5" stroke-width="2"/>
<rect x="490.0" y="224" width="45.0" height="64" fill="#FFFFFF" stroke="#0A80D5" stroke-width="2"/>
<rect x="535.0" y="224" width="45.0" height="64" fill="#FFFFFF" stroke="#0A80D5" stroke-width="2"/>
<text x="592" y="261" font-size="18" fill="#2B2B2B" font-weight="500">⅓ of 6 = 2 hours</text>
<rect x="40.0" y="318" width="22.5" height="64" fill="#8DD5F1" stroke="#0A80D5" stroke-width="2"/>
<rect x="62.5" y="318" width="22.5" height="64" fill="#FFFFFF" stroke="#0A80D5" stroke-width="2"/>
<rect x="85.0" y="318" width="22.5" height="64" fill="#FFFFFF" stroke="#0A80D5" stroke-width="2"/>
<rect x="107.5" y="318" width="22.5" height="64" fill="#FFFFFF" stroke="#0A80D5" stroke-width="2"/>
<rect x="130.0" y="318" width="22.5" height="64" fill="#FFFFFF" stroke="#0A80D5" stroke-width="2"/>
<rect x="152.5" y="318" width="22.5" height="64" fill="#FFFFFF" stroke="#0A80D5" stroke-width="2"/>
<rect x="175.0" y="318" width="22.5" height="64" fill="#FFFFFF" stroke="#0A80D5" stroke-width="2"/>
<rect x="197.5" y="318" width="22.5" height="64" fill="#FFFFFF" stroke="#0A80D5" stroke-width="2"/>
<rect x="220.0" y="318" width="22.5" height="64" fill="#FFFFFF" stroke="#0A80D5" stroke-width="2"/>
<rect x="242.5" y="318" width="22.5" height="64" fill="#FFFFFF" stroke="#0A80D5" stroke-width="2"/>
<rect x="265.0" y="318" width="22.5" height="64" fill="#FFFFFF" stroke="#0A80D5" stroke-width="2"/>
<rect x="287.5" y="318" width="22.5" height="64" fill="#FFFFFF" stroke="#0A80D5" stroke-width="2"/>
<rect x="310.0" y="318" width="22.5" height="64" fill="#FFFFFF" stroke="#0A80D5" stroke-width="2"/>
<rect x="332.5" y="318" width="22.5" height="64" fill="#FFFFFF" stroke="#0A80D5" stroke-width="2"/>
<rect x="355.0" y="318" width="22.5" height="64" fill="#FFFFFF" stroke="#0A80D5" stroke-width="2"/>
<rect x="377.5" y="318" width="22.5" height="64" fill="#FFFFFF" stroke="#0A80D5" stroke-width="2"/>
<rect x="400.0" y="318" width="22.5" height="64" fill="#FFFFFF" stroke="#0A80D5" stroke-width="2"/>
<rect x="422.5" y="318" width="22.5" height="64" fill="#FFFFFF" stroke="#0A80D5" stroke-width="2"/>
<rect x="445.0" y="318" width="22.5" height="64" fill="#FFFFFF" stroke="#0A80D5" stroke-width="2"/>
<rect x="467.5" y="318" width="22.5" height="64" fill="#FFFFFF" stroke="#0A80D5" stroke-width="2"/>
<rect x="490.0" y="318" width="22.5" height="64" fill="#FFFFFF" stroke="#0A80D5" stroke-width="2"/>
<rect x="512.5" y="318" width="22.5" height="64" fill="#FFFFFF" stroke="#0A80D5" stroke-width="2"/>
<rect x="535.0" y="318" width="22.5" height="64" fill="#FFFFFF" stroke="#0A80D5" stroke-width="2"/>
<rect x="557.5" y="318" width="22.5" height="64" fill="#FFFFFF" stroke="#0A80D5" stroke-width="2"/>
<text x="592" y="355" font-size="18" fill="#2B2B2B" font-weight="500">½ of 2 = 1 hour</text>
</svg>