<svg xmlns="http://www.w3.org/2000/svg" viewBox="0 0 660 106" width="660" height="106" style="font-family:-apple-system,Segoe UI,sans-serif" preserveAspectRatio="xMidYMid meet"><rect width="660" height="106" fill="#FFFFFF"/><rect x="30" y="30" width="150.0" height="46" fill="#8DD5F1" stroke="none" stroke-width="0" rx="0" ry="0"/><line x1="36.0" y1="30" x2="36.0" y2="76" stroke="#0A80D5" stroke-width="0.35"/><line x1="42.0" y1="30" x2="42.0" y2="76" stroke="#0A80D5" stroke-width="0.35"/><line x1="48.0" y1="30" x2="48.0" y2="76" stroke="#0A80D5" stroke-width="0.35"/><line x1="54.0" y1="30" x2="54.0" y2="76" stroke="#0A80D5" stroke-width="0.35"/><line x1="60.0" y1="30" x2="60.0" y2="76" stroke="#0A80D5" stroke-width="0.35"/><line x1="66.0" y1="30" x2="66.0" y2="76" stroke="#0A80D5" stroke-width="0.35"/><line x1="72.0" y1="30" x2="72.0" y2="76" stroke="#0A80D5" stroke-width="0.35"/><line x1="78.0" y1="30" x2="78.0" y2="76" stroke="#0A80D5" stroke-width="0.35"/><line x1="84.0" y1="30" x2="84.0" y2="76" stroke="#0A80D5" stroke-width="0.35"/><line x1="90.0" y1="30" x2="90.0" y2="76" stroke="#0A80D5" stroke-width="0.35"/><line x1="96.0" y1="30" x2="96.0" y2="76" stroke="#0A80D5" stroke-width="0.35"/><line x1="102.0" y1="30" x2="102.0" y2="76" stroke="#0A80D5" stroke-width="0.35"/><line x1="108.0" y1="30" x2="108.0" y2="76" stroke="#0A80D5" stroke-width="0.35"/><line x1="114.0" y1="30" x2="114.0" y2="76" stroke="#0A80D5" stroke-width="0.35"/><line x1="120.0" y1="30" x2="120.0" y2="76" stroke="#0A80D5" stroke-width="0.35"/><line x1="126.0" y1="30" x2="126.0" y2="76" stroke="#0A80D5" stroke-width="0.35"/><line x1="132.0" y1="30" x2="132.0" y2="76" stroke="#0A80D5" stroke-width="0.35"/><line x1="138.0" y1="30" x2="138.0" y2="76" stroke="#0A80D5" stroke-width="0.35"/><line x1="144.0" y1="30" x2="144.0" y2="76" stroke="#0A80D5" stroke-width="0.35"/><line x1="150.0" y1="30" x2="150.0" y2="76" stroke="#0A80D5" stroke-width="0.35"/><line x1="156.0" y1="30" x2="156.0" y2="76" stroke="#0A80D5" stroke-width="0.35"/><line x1="162.0" y1="30" x2="162.0" y2="76" stroke="#0A80D5" stroke-width="0.35"/><line x1="168.0" y1="30" x2="168.0" y2="76" stroke="#0A80D5" stroke-width="0.35"/><line x1="174.0" y1="30" x2="174.0" y2="76" stroke="#0A80D5" stroke-width="0.35"/><line x1="180.0" y1="30" x2="180.0" y2="76" stroke="#0A80D5" stroke-width="0.35"/><line x1="186.0" y1="30" x2="186.0" y2="76" stroke="#0A80D5" stroke-width="0.35"/><line x1="192.0" y1="30" x2="192.0" y2="76" stroke="#0A80D5" stroke-width="0.35"/><line x1="198.0" y1="30" x2="198.0" y2="76" stroke="#0A80D5" stroke-width="0.35"/><line x1="204.0" y1="30" x2="204.0" y2="76" stroke="#0A80D5" stroke-width="0.35"/><line x1="210.0" y1="30" x2="210.0" y2="76" stroke="#0A80D5" stroke-width="0.35"/><line x1="216.0" y1="30" x2="216.0" y2="76" stroke="#0A80D5" stroke-width="0.35"/><line x1="222.0" y1="30" x2="222.0" y2="76" stroke="#0A80D5" stroke-width="0.35"/><line x1="228.0" y1="30" x2="228.0" y2="76" stroke="#0A80D5" stroke-width="0.35"/><line x1="234.0" y1="30" x2="234.0" y2="76" stroke="#0A80D5" stroke-width="0.35"/><line x1="240.0" y1="30" x2="240.0" y2="76" stroke="#0A80D5" stroke-width="0.35"/><line x1="246.0" y1="30" x2="246.0" y2="76" stroke="#0A80D5" stroke-width="0.35"/><line x1="252.0" y1="30" x2="252.0" y2="76" stroke="#0A80D5" stroke-width="0.35"/><line x1="258.0" y1="30" x2="258.0" y2="76" stroke="#0A80D5" stroke-width="0.35"/><line x1="264.0" y1="30" x2="264.0" y2="76" stroke="#0A80D5" stroke-width="0.35"/><line x1="270.0" y1="30" x2="270.0" y2="76" stroke="#0A80D5" stroke-width="0.35"/><line x1="276.0" y1="30" x2="276.0" y2="76" stroke="#0A80D5" stroke-width="0.35"/><line x1="282.0" y1="30" x2="282.0" y2="76" stroke="#0A80D5" stroke-width="0.35"/><line x1="288.0" y1="30" x2="288.0" y2="76" stroke="#0A80D5" stroke-width="0.35"/><line x1="294.0" y1="30" x2="294.0" y2="76" stroke="#0A80D5" stroke-width="0.35"/><line x1="300.0" y1="30" x2="300.0" y2="76" stroke="#0A80D5" stroke-width="0.35"/><line x1="306.0" y1="30" x2="306.0" y2="76" stroke="#0A80D5" stroke-width="0.35"/><line x1="312.0" y1="30" x2="312.0" y2="76" stroke="#0A80D5" stroke-width="0.35"/><line x1="318.0" y1="30" x2="318.0" y2="76" stroke="#0A80D5" stroke-width="0.35"/><line x1="324.0" y1="30" x2="324.0" y2="76" stroke="#0A80D5" stroke-width="0.35"/><line x1="330.0" y1="30" x2="330.0" y2="76" stroke="#0A80D5" stroke-width="0.35"/><line x1="336.0" y1="30" x2="336.0" y2="76" stroke="#0A80D5" stroke-width="0.35"/><line x1="342.0" y1="30" x2="342.0" y2="76" stroke="#0A80D5" stroke-width="0.35"/><line x1="348.0" y1="30" x2="348.0" y2="76" stroke="#0A80D5" stroke-width="0.35"/><line x1="354.0" y1="30" x2="354.0" y2="76" stroke="#0A80D5" stroke-width="0.35"/><line x1="360.0" y1="30" x2="360.0" y2="76" stroke="#0A80D5" stroke-width="0.35"/><line x1="366.0" y1="30" x2="366.0" y2="76" stroke="#0A80D5" stroke-width="0.35"/><line x1="372.0" y1="30" x2="372.0" y2="76" stroke="#0A80D5" stroke-width="0.35"/><line x1="378.0" y1="30" x2="378.0" y2="76" stroke="#0A80D5" stroke-width="0.35"/><line x1="384.0" y1="30" x2="384.0" y2="76" stroke="#0A80D5" stroke-width="0.35"/><line x1="390.0" y1="30" x2="390.0" y2="76" stroke="#0A80D5" stroke-width="0.35"/><line x1="396.0" y1="30" x2="396.0" y2="76" stroke="#0A80D5" stroke-width="0.35"/><line x1="402.0" y1="30" x2="402.0" y2="76" stroke="#0A80D5" stroke-width="0.35"/><line x1="408.0" y1="30" x2="408.0" y2="76" stroke="#0A80D5" stroke-width="0.35"/><line x1="414.0" y1="30" x2="414.0" y2="76" stroke="#0A80D5" stroke-width="0.35"/><line x1="420.0" y1="30" x2="420.0" y2="76" stroke="#0A80D5" stroke-width="0.35"/><line x1="426.0" y1="30" x2="426.0" y2="76" stroke="#0A80D5" stroke-width="0.35"/><line x1="432.0" y1="30" x2="432.0" y2="76" stroke="#0A80D5" stroke-width="0.35"/><line x1="438.0" y1="30" x2="438.0" y2="76" stroke="#0A80D5" stroke-width="0.35"/><line x1="444.0" y1="30" x2="444.0" y2="76" stroke="#0A80D5" stroke-width="0.35"/><line x1="450.0" y1="30" x2="450.0" y2="76" stroke="#0A80D5" stroke-width="0.35"/><line x1="456.0" y1="30" x2="456.0" y2="76" stroke="#0A80D5" stroke-width="0.35"/><line x1="462.0" y1="30" x2="462.0" y2="76" stroke="#0A80D5" stroke-width="0.35"/><line x1="468.0" y1="30" x2="468.0" y2="76" stroke="#0A80D5" stroke-width="0.35"/><line x1="474.0" y1="30" x2="474.0" y2="76" stroke="#0A80D5" stroke-width="0.35"/><line x1="480.0" y1="30" x2="480.0" y2="76" stroke="#0A80D5" stroke-width="0.35"/><line x1="486.0" y1="30" x2="486.0" y2="76" stroke="#0A80D5" stroke-width="0.35"/><line x1="492.0" y1="30" x2="492.0" y2="76" stroke="#0A80D5" stroke-width="0.35"/><line x1="498.0" y1="30" x2="498.0" y2="76" stroke="#0A80D5" stroke-width="0.35"/><line x1="504.0" y1="30" x2="504.0" y2="76" stroke="#0A80D5" stroke-width="0.35"/><line x1="510.0" y1="30" x2="510.0" y2="76" stroke="#0A80D5" stroke-width="0.35"/><line x1="516.0" y1="30" x2="516.0" y2="76" stroke="#0A80D5" stroke-width="0.35"/><line x1="522.0" y1="30" x2="522.0" y2="76" stroke="#0A80D5" stroke-width="0.35"/><line x1="528.0" y1="30" x2="528.0" y2="76" stroke="#0A80D5" stroke-width="0.35"/><line x1="534.0" y1="30" x2="534.0" y2="76" stroke="#0A80D5" stroke-width="0.35"/><line x1="540.0" y1="30" x2="540.0" y2="76" stroke="#0A80D5" stroke-width="0.35"/><line x1="546.0" y1="30" x2="546.0" y2="76" stroke="#0A80D5" stroke-width="0.35"/><line x1="552.0" y1="30" x2="552.0" y2="76" stroke="#0A80D5" stroke-width="0.35"/><line x1="558.0" y1="30" x2="558.0" y2="76" stroke="#0A80D5" stroke-width="0.35"/><line x1="564.0" y1="30" x2="564.0" y2="76" stroke="#0A80D5" stroke-width="0.35"/><line x1="570.0" y1="30" x2="570.0" y2="76" stroke="#0A80D5" stroke-width="0.35"/><line x1="576.0" y1="30" x2="576.0" y2="76" stroke="#0A80D5" stroke-width="0.35"/><line x1="582.0" y1="30" x2="582.0" y2="76" stroke="#0A80D5" stroke-width="0.35"/><line x1="588.0" y1="30" x2="588.0" y2="76" stroke="#0A80D5" stroke-width="0.35"/><line x1="594.0" y1="30" x2="594.0" y2="76" stroke="#0A80D5" stroke-width="0.35"/><line x1="600.0" y1="30" x2="600.0" y2="76" stroke="#0A80D5" stroke-width="0.35"/><line x1="606.0" y1="30" x2="606.0" y2="76" stroke="#0A80D5" stroke-width="0.35"/><line x1="612.0" y1="30" x2="612.0" y2="76" stroke="#0A80D5" stroke-width="0.35"/><line x1="618.0" y1="30" x2="618.0" y2="76" stroke="#0A80D5" stroke-width="0.35"/><line x1="624.0" y1="30" x2="624.0" y2="76" stroke="#0A80D5" stroke-width="0.35"/><line x1="90.0" y1="24" x2="90.0" y2="82" stroke="#0A80D5" stroke-width="1.0"/><line x1="150.0" y1="24" x2="150.0" y2="82" stroke="#0A80D5" stroke-width="1.0"/><line x1="210.0" y1="24" x2="210.0" y2="82" stroke="#0A80D5" stroke-width="1.0"/><line x1="270.0" y1="24" x2="270.0" y2="82" stroke="#0A80D5" stroke-width="1.0"/><line x1="330.0" y1="24" x2="330.0" y2="82" stroke="#0A80D5" stroke-width="1.0"/><line x1="390.0" y1="24" x2="390.0" y2="82" stroke="#0A80D5" stroke-width="1.0"/><line x1="450.0" y1="24" x2="450.0" y2="82" stroke="#0A80D5" stroke-width="1.0"/><line x1="510.0" y1="24" x2="510.0" y2="82" stroke="#0A80D5" stroke-width="1.0"/><line x1="570.0" y1="24" x2="570.0" y2="82" stroke="#0A80D5" stroke-width="1.0"/><rect x="30" y="30" width="600" height="46" fill="none" stroke="#0A80D5" stroke-width="2" rx="4" ry="4"/></svg>