<svg xmlns="http://www.w3.org/2000/svg" viewBox="0 0 532 166" width="532" height="166" style="font-family:-apple-system,Segoe UI,sans-serif" preserveAspectRatio="xMidYMid meet"><rect width="532" height="166" fill="#FFFFFF"/><rect x="30" y="50" width="84" height="66" fill="#FFFFFF" stroke="#149A55" stroke-width="2" rx="8" ry="8"/><rect x="40" y="20" width="64" height="22" fill="#FFFFFF" stroke="#808080" stroke-width="1.0" rx="6" ry="6"/><rect x="40" y="124" width="64" height="24" fill="#FFFFFF" stroke="#808080" stroke-width="1.0" rx="6" ry="6"/><text x="134.0" y="90.0" font-size="22" fill="#149A55" text-anchor="middle" font-weight="700" font-family='KaTeX_Main, "Untitled Sans", -apple-system, BlinkMacSystemFont, "Segoe UI", sans-serif'>×</text><rect x="154" y="50" width="84" height="66" fill="#FFFFFF" stroke="#149A55" stroke-width="2" rx="8" ry="8"/><rect x="164" y="20" width="64" height="22" fill="#FFFFFF" stroke="#808080" stroke-width="1.0" rx="6" ry="6"/><rect x="164" y="124" width="64" height="24" fill="#FFFFFF" stroke="#808080" stroke-width="1.0" rx="6" ry="6"/><text x="258.0" y="90.0" font-size="22" fill="#149A55" text-anchor="middle" font-weight="700" font-family='KaTeX_Main, "Untitled Sans", -apple-system, BlinkMacSystemFont, "Segoe UI", sans-serif'>×</text><rect x="278" y="50" width="84" height="66" fill="#FFFFFF" stroke="#149A55" stroke-width="2" rx="8" ry="8"/><rect x="288" y="20" width="64" height="22" fill="#FFFFFF" stroke="#808080" stroke-width="1.0" rx="6" ry="6"/><rect x="288" y="124" width="64" height="24" fill="#FFFFFF" stroke="#808080" stroke-width="1.0" rx="6" ry="6"/><text x="384.0" y="90.0" font-size="22" fill="#149A55" text-anchor="middle" font-weight="700" font-family='KaTeX_Main, "Untitled Sans", -apple-system, BlinkMacSystemFont, "Segoe UI", sans-serif'>=</text><rect x="406" y="50" width="96" height="66" fill="#FFFFFF" stroke="#149A55" stroke-width="2" rx="8" ry="8"/><text x="454.0" y="92.0" font-size="24" fill="#808080" text-anchor="middle" font-weight="600" font-family='KaTeX_Main, "Untitled Sans", -apple-system, BlinkMacSystemFont, "Segoe UI", sans-serif'>?</text></svg>