<svg xmlns="http://www.w3.org/2000/svg" viewBox="0 0 588 146" width="588" height="146" style="font-family:-apple-system,Segoe UI,sans-serif" preserveAspectRatio="xMidYMid meet"><rect width="588" height="146" fill="#FFFFFF"/><rect x="34" y="56" width="130.0" height="50" fill="#8DD5F1" stroke="none" stroke-width="0" rx="0" ry="0"/><line x1="86.0" y1="56" x2="86.0" y2="106" stroke="#0A80D5" stroke-width="1.0"/><line x1="138.0" y1="56" x2="138.0" y2="106" stroke="#0A80D5" stroke-width="1.0"/><line x1="190.0" y1="56" x2="190.0" y2="106" stroke="#0A80D5" stroke-width="1.0"/><line x1="242.0" y1="56" x2="242.0" y2="106" stroke="#0A80D5" stroke-width="1.0"/><line x1="294.0" y1="56" x2="294.0" y2="106" stroke="#0A80D5" stroke-width="1.0"/><line x1="346.0" y1="56" x2="346.0" y2="106" stroke="#0A80D5" stroke-width="1.0"/><line x1="398.0" y1="56" x2="398.0" y2="106" stroke="#0A80D5" stroke-width="1.0"/><line x1="450.0" y1="56" x2="450.0" y2="106" stroke="#0A80D5" stroke-width="1.0"/><line x1="502.0" y1="56" x2="502.0" y2="106" stroke="#0A80D5" stroke-width="1.0"/><rect x="34" y="56" width="520" height="50" fill="none" stroke="#0A80D5" stroke-width="2" rx="4" ry="4"/><path d="M 34 52 L 34 40 L 164.0 40 L 164.0 52" fill="none" stroke="#0A80D5" stroke-width="1.8"/><text x="99.0" y="32" font-size="14" fill="#0A80D5" text-anchor="middle" font-weight="700" font-family='KaTeX_Main, "Untitled Sans", -apple-system, BlinkMacSystemFont, "Segoe UI", sans-serif'>Anna: 25% of her free time</text><text x="554" y="130" font-size="1" fill="#2B2B2B" text-anchor="middle" font-weight="500" font-family='KaTeX_Main, "Untitled Sans", -apple-system, BlinkMacSystemFont, "Segoe UI", sans-serif'></text></svg>