<svg xmlns="http://www.w3.org/2000/svg" viewBox="0 0 916 196" width="916" height="196" style="font-family:-apple-system,Segoe UI,sans-serif" preserveAspectRatio="xMidYMid meet"><rect width="916" height="196" fill="#FFFFFF"/><rect x="30" y="46" width="150" height="80" fill="#8DD5F1" stroke="#0A80D5" stroke-width="2.4" rx="40.0" ry="40.0"/><rect x="176" y="71.6" width="26" height="40.0" fill="#8DD5F1" stroke="#0A80D5" stroke-width="2" rx="5" ry="5"/><circle cx="72.0" cy="134" r="9" fill="#FFFFFF" stroke="#0A80D5" stroke-width="2"/><circle cx="123.0" cy="134" r="9" fill="#FFFFFF" stroke="#0A80D5" stroke-width="2"/><circle cx="200" cy="134" r="9" fill="#FFFFFF" stroke="#0A80D5" stroke-width="2"/><line x1="105.0" y1="52" x2="105.0" y2="120" stroke="#0A80D5" stroke-width="1.0"/><text x="105.0" y="92.0" font-size="14" fill="#2B2B2B" text-anchor="middle" font-weight="700" font-family='KaTeX_Main, "Untitled Sans", -apple-system, BlinkMacSystemFont, "Segoe UI", sans-serif'>full tank</text><line x1="210" y1="86.0" x2="236" y2="86.0" stroke="#0A80D5" stroke-width="2.2"/><polygon points="236,80.4 244,86.0 236,91.6" fill="#0A80D5"/><rect x="244" y="52" width="150" height="68" fill="#FFFFFF" stroke="#0A80D5" stroke-width="1.8" rx="8" ry="8"/><line x1="319.0" y1="52" x2="319.0" y2="34" stroke="#0A80D5" stroke-width="2"/><path d="M 319.0 34 l -5 -8 l 10 0 z" fill="#0A80D5" stroke="none"/><text x="319.0" y="84.0" font-size="13" fill="#0A80D5" text-anchor="middle" font-weight="700" font-family='KaTeX_Main, "Untitled Sans", -apple-system, BlinkMacSystemFont, "Segoe UI", sans-serif'>Station 1</text><text x="319.0" y="104.0" font-size="12" fill="#2B2B2B" text-anchor="middle" font-weight="600" font-family='KaTeX_Main, "Untitled Sans", -apple-system, BlinkMacSystemFont, "Segoe UI", sans-serif'>30% drained</text><line x1="394" y1="86.0" x2="420" y2="86.0" stroke="#0A80D5" stroke-width="2.2"/><polygon points="420,80.4 428,86.0 420,91.6" fill="#0A80D5"/><rect x="428" y="52" width="150" height="68" fill="#FFFFFF" stroke="#0A80D5" stroke-width="1.8" rx="8" ry="8"/><line x1="503.0" y1="52" x2="503.0" y2="34" stroke="#0A80D5" stroke-width="2"/><path d="M 503.0 34 l -5 -8 l 10 0 z" fill="#0A80D5" stroke="none"/><text x="503.0" y="84.0" font-size="13" fill="#0A80D5" text-anchor="middle" font-weight="700" font-family='KaTeX_Main, "Untitled Sans", -apple-system, BlinkMacSystemFont, "Segoe UI", sans-serif'>Station 2</text><text x="503.0" y="102.0" font-size="12" fill="#2B2B2B" text-anchor="middle" font-weight="600" font-family='KaTeX_Main, "Untitled Sans", -apple-system, BlinkMacSystemFont, "Segoe UI", sans-serif'>40% of what</text><text x="503.0" y="117.0" font-size="12" fill="#2B2B2B" text-anchor="middle" font-weight="600" font-family='KaTeX_Main, "Untitled Sans", -apple-system, BlinkMacSystemFont, "Segoe UI", sans-serif'>remains drained</text><line x1="578" y1="86.0" x2="604" y2="86.0" stroke="#0A80D5" stroke-width="2.2"/><polygon points="604,80.4 612,86.0 604,91.6" fill="#0A80D5"/><rect x="612" y="52" width="150" height="68" fill="#FFFFFF" stroke="#0A80D5" stroke-width="1.8" rx="8" ry="8"/><line x1="687.0" y1="52" x2="687.0" y2="34" stroke="#0A80D5" stroke-width="2"/><path d="M 687.0 34 l -5 -8 l 10 0 z" fill="#0A80D5" stroke="none"/><text x="687.0" y="84.0" font-size="13" fill="#0A80D5" text-anchor="middle" font-weight="700" font-family='KaTeX_Main, "Untitled Sans", -apple-system, BlinkMacSystemFont, "Segoe UI", sans-serif'>Station 3</text><text x="687.0" y="102.0" font-size="12" fill="#2B2B2B" text-anchor="middle" font-weight="600" font-family='KaTeX_Main, "Untitled Sans", -apple-system, BlinkMacSystemFont, "Segoe UI", sans-serif'>half of what</text><text x="687.0" y="117.0" font-size="12" fill="#2B2B2B" text-anchor="middle" font-weight="600" font-family='KaTeX_Main, "Untitled Sans", -apple-system, BlinkMacSystemFont, "Segoe UI", sans-serif'>remains drained</text><line x1="762" y1="86.0" x2="788" y2="86.0" stroke="#0A80D5" stroke-width="2.2"/><polygon points="788,80.4 796,86.0 788,91.6" fill="#0A80D5"/><rect x="796" y="52" width="120" height="68" fill="#FFFFFF" stroke="#0A80D5" stroke-width="2" rx="8" ry="8"/><text x="856.0" y="92.0" font-size="16" fill="#808080" text-anchor="middle" font-weight="700" font-family='KaTeX_Main, "Untitled Sans", -apple-system, BlinkMacSystemFont, "Segoe UI", sans-serif'>? left</text></svg>