<svg xmlns="http://www.w3.org/2000/svg" viewBox="0 0 530 464" width="530" height="464" style="font-family:-apple-system,Segoe UI,sans-serif" preserveAspectRatio="xMidYMid meet"><rect width="530" height="464" fill="#FFFFFF"/><text x="58" y="48.0" font-size="14" fill="#2B2B2B" text-anchor="end" font-weight="700" font-family='KaTeX_Main, "Untitled Sans", -apple-system, BlinkMacSystemFont, "Segoe UI", sans-serif'>A</text><rect x="70" y="24" width="252.0" height="38" fill="#8DD5F1" stroke="none" stroke-width="0" rx="0" ry="0"/><line x1="112.0" y1="24" x2="112.0" y2="62" stroke="#0A80D5" stroke-width="0.8"/><line x1="154.0" y1="24" x2="154.0" y2="62" stroke="#0A80D5" stroke-width="0.8"/><line x1="196.0" y1="24" x2="196.0" y2="62" stroke="#0A80D5" stroke-width="0.8"/><line x1="238.0" y1="24" x2="238.0" y2="62" stroke="#0A80D5" stroke-width="0.8"/><line x1="280.0" y1="24" x2="280.0" y2="62" stroke="#0A80D5" stroke-width="0.8"/><line x1="322.0" y1="24" x2="322.0" y2="62" stroke="#0A80D5" stroke-width="1.5"/><line x1="364.0" y1="24" x2="364.0" y2="62" stroke="#0A80D5" stroke-width="0.8"/><line x1="406.0" y1="24" x2="406.0" y2="62" stroke="#0A80D5" stroke-width="0.8"/><line x1="448.0" y1="24" x2="448.0" y2="62" stroke="#0A80D5" stroke-width="0.8"/><rect x="70" y="24" width="420" height="38" fill="none" stroke="#0A80D5" stroke-width="2" rx="4" ry="4"/><text x="280.0" y="79" font-size="15" fill="#0A80D5" text-anchor="middle" font-weight="700" font-family='KaTeX_Main, "Untitled Sans", -apple-system, BlinkMacSystemFont, "Segoe UI", sans-serif'>60%</text><text x="58" y="138.0" font-size="14" fill="#2B2B2B" text-anchor="end" font-weight="700" font-family='KaTeX_Main, "Untitled Sans", -apple-system, BlinkMacSystemFont, "Segoe UI", sans-serif'>B</text><rect x="70" y="114" width="252.0" height="38" fill="#8DD5F1" stroke="none" stroke-width="0" rx="0" ry="0"/><line x1="112.0" y1="114" x2="112.0" y2="152" stroke="#0A80D5" stroke-width="0.8"/><line x1="154.0" y1="114" x2="154.0" y2="152" stroke="#0A80D5" stroke-width="0.8"/><line x1="196.0" y1="114" x2="196.0" y2="152" stroke="#0A80D5" stroke-width="0.8"/><line x1="238.0" y1="114" x2="238.0" y2="152" stroke="#0A80D5" stroke-width="0.8"/><line x1="280.0" y1="114" x2="280.0" y2="152" stroke="#0A80D5" stroke-width="0.8"/><line x1="322.0" y1="114" x2="322.0" y2="152" stroke="#0A80D5" stroke-width="1.5"/><line x1="364.0" y1="114" x2="364.0" y2="152" stroke="#0A80D5" stroke-width="0.8"/><line x1="406.0" y1="114" x2="406.0" y2="152" stroke="#0A80D5" stroke-width="0.8"/><line x1="448.0" y1="114" x2="448.0" y2="152" stroke="#0A80D5" stroke-width="0.8"/><rect x="70" y="114" width="420" height="38" fill="none" stroke="#0A80D5" stroke-width="2" rx="4" ry="4"/><text x="280.0" y="169" font-size="15" fill="#0A80D5" text-anchor="middle" font-weight="700" font-family='KaTeX_Main, "Untitled Sans", -apple-system, BlinkMacSystemFont, "Segoe UI", sans-serif'>6%</text><text x="58" y="228.0" font-size="14" fill="#2B2B2B" text-anchor="end" font-weight="700" font-family='KaTeX_Main, "Untitled Sans", -apple-system, BlinkMacSystemFont, "Segoe UI", sans-serif'>C</text><rect x="70" y="204" width="252.0" height="38" fill="#8DD5F1" stroke="none" stroke-width="0" rx="0" ry="0"/><line x1="112.0" y1="204" x2="112.0" y2="242" stroke="#0A80D5" stroke-width="0.8"/><line x1="154.0" y1="204" x2="154.0" y2="242" stroke="#0A80D5" stroke-width="0.8"/><line x1="196.0" y1="204" x2="196.0" y2="242" stroke="#0A80D5" stroke-width="0.8"/><line x1="238.0" y1="204" x2="238.0" y2="242" stroke="#0A80D5" stroke-width="0.8"/><line x1="280.0" y1="204" x2="280.0" y2="242" stroke="#0A80D5" stroke-width="0.8"/><line x1="322.0" y1="204" x2="322.0" y2="242" stroke="#0A80D5" stroke-width="1.5"/><line x1="364.0" y1="204" x2="364.0" y2="242" stroke="#0A80D5" stroke-width="0.8"/><line x1="406.0" y1="204" x2="406.0" y2="242" stroke="#0A80D5" stroke-width="0.8"/><line x1="448.0" y1="204" x2="448.0" y2="242" stroke="#0A80D5" stroke-width="0.8"/><rect x="70" y="204" width="420" height="38" fill="none" stroke="#0A80D5" stroke-width="2" rx="4" ry="4"/><text x="280.0" y="259" font-size="15" fill="#0A80D5" text-anchor="middle" font-weight="700" font-family='KaTeX_Main, "Untitled Sans", -apple-system, BlinkMacSystemFont, "Segoe UI", sans-serif'>0.6%</text><text x="58" y="318.0" font-size="14" fill="#2B2B2B" text-anchor="end" font-weight="700" font-family='KaTeX_Main, "Untitled Sans", -apple-system, BlinkMacSystemFont, "Segoe UI", sans-serif'>D</text><rect x="70" y="294" width="252.0" height="38" fill="#8DD5F1" stroke="none" stroke-width="0" rx="0" ry="0"/><line x1="112.0" y1="294" x2="112.0" y2="332" stroke="#0A80D5" stroke-width="0.8"/><line x1="154.0" y1="294" x2="154.0" y2="332" stroke="#0A80D5" stroke-width="0.8"/><line x1="196.0" y1="294" x2="196.0" y2="332" stroke="#0A80D5" stroke-width="0.8"/><line x1="238.0" y1="294" x2="238.0" y2="332" stroke="#0A80D5" stroke-width="0.8"/><line x1="280.0" y1="294" x2="280.0" y2="332" stroke="#0A80D5" stroke-width="0.8"/><line x1="322.0" y1="294" x2="322.0" y2="332" stroke="#0A80D5" stroke-width="1.5"/><line x1="364.0" y1="294" x2="364.0" y2="332" stroke="#0A80D5" stroke-width="0.8"/><line x1="406.0" y1="294" x2="406.0" y2="332" stroke="#0A80D5" stroke-width="0.8"/><line x1="448.0" y1="294" x2="448.0" y2="332" stroke="#0A80D5" stroke-width="0.8"/><rect x="70" y="294" width="420" height="38" fill="none" stroke="#0A80D5" stroke-width="2" rx="4" ry="4"/><text x="280.0" y="349" font-size="15" fill="#0A80D5" text-anchor="middle" font-weight="700" font-family='KaTeX_Main, "Untitled Sans", -apple-system, BlinkMacSystemFont, "Segoe UI", sans-serif'>6.0</text><text x="58" y="408.0" font-size="14" fill="#2B2B2B" text-anchor="end" font-weight="700" font-family='KaTeX_Main, "Untitled Sans", -apple-system, BlinkMacSystemFont, "Segoe UI", sans-serif'>E</text><rect x="70" y="384" width="252.0" height="38" fill="#8DD5F1" stroke="none" stroke-width="0" rx="0" ry="0"/><line x1="112.0" y1="384" x2="112.0" y2="422" stroke="#0A80D5" stroke-width="0.8"/><line x1="154.0" y1="384" x2="154.0" y2="422" stroke="#0A80D5" stroke-width="0.8"/><line x1="196.0" y1="384" x2="196.0" y2="422" stroke="#0A80D5" stroke-width="0.8"/><line x1="238.0" y1="384" x2="238.0" y2="422" stroke="#0A80D5" stroke-width="0.8"/><line x1="280.0" y1="384" x2="280.0" y2="422" stroke="#0A80D5" stroke-width="0.8"/><line x1="322.0" y1="384" x2="322.0" y2="422" stroke="#0A80D5" stroke-width="1.5"/><line x1="364.0" y1="384" x2="364.0" y2="422" stroke="#0A80D5" stroke-width="0.8"/><line x1="406.0" y1="384" x2="406.0" y2="422" stroke="#0A80D5" stroke-width="0.8"/><line x1="448.0" y1="384" x2="448.0" y2="422" stroke="#0A80D5" stroke-width="0.8"/><rect x="70" y="384" width="420" height="38" fill="none" stroke="#0A80D5" stroke-width="2" rx="4" ry="4"/><text x="280.0" y="439" font-size="15" fill="#0A80D5" text-anchor="middle" font-weight="700" font-family='KaTeX_Main, "Untitled Sans", -apple-system, BlinkMacSystemFont, "Segoe UI", sans-serif'>0.06</text></svg>