<svg xmlns="http://www.w3.org/2000/svg" viewBox="0 0 560 196" width="560" height="196" style="font-family:-apple-system,Segoe UI,sans-serif" preserveAspectRatio="xMidYMid meet"><rect width="560" height="196" fill="#FFFFFF"/><path d="M 56 24 L 160 24 L 160 74 L 56 74 L 40 49.0 Z" fill="#8DD5F1" stroke="#0A80D5" stroke-width="2"/><circle cx="62" cy="49.0" r="4" fill="#FFFFFF" stroke="#0A80D5" stroke-width="1.5"/><text x="112.0" y="55.0" font-size="20" fill="#2B2B2B" text-anchor="middle" font-weight="700" font-family='KaTeX_Main, "Untitled Sans", -apple-system, BlinkMacSystemFont, "Segoe UI", sans-serif'>$120</text><text x="174" y="54.0" font-size="14" fill="#0A80D5" text-anchor="start" font-weight="700" font-family='KaTeX_Main, "Untitled Sans", -apple-system, BlinkMacSystemFont, "Segoe UI", sans-serif'>35% off</text><line x1="64.0" y1="98" x2="64.0" y2="152" stroke="#0A80D5" stroke-width="0.9"/><line x1="88.0" y1="98" x2="88.0" y2="152" stroke="#0A80D5" stroke-width="0.9"/><line x1="112.0" y1="98" x2="112.0" y2="152" stroke="#0A80D5" stroke-width="0.9"/><line x1="136.0" y1="98" x2="136.0" y2="152" stroke="#0A80D5" stroke-width="0.9"/><line x1="160.0" y1="98" x2="160.0" y2="152" stroke="#0A80D5" stroke-width="0.9"/><line x1="184.0" y1="98" x2="184.0" y2="152" stroke="#0A80D5" stroke-width="0.9"/><line x1="208.0" y1="98" x2="208.0" y2="152" stroke="#0A80D5" stroke-width="0.9"/><line x1="232.0" y1="98" x2="232.0" y2="152" stroke="#0A80D5" stroke-width="0.9"/><line x1="256.0" y1="98" x2="256.0" y2="152" stroke="#0A80D5" stroke-width="0.9"/><line x1="280.0" y1="98" x2="280.0" y2="152" stroke="#0A80D5" stroke-width="0.9"/><line x1="304.0" y1="98" x2="304.0" y2="152" stroke="#0A80D5" stroke-width="0.9"/><line x1="328.0" y1="98" x2="328.0" y2="152" stroke="#0A80D5" stroke-width="0.9"/><line x1="352.0" y1="98" x2="352.0" y2="152" stroke="#0A80D5" stroke-width="0.9"/><line x1="376.0" y1="98" x2="376.0" y2="152" stroke="#0A80D5" stroke-width="0.9"/><line x1="400.0" y1="98" x2="400.0" y2="152" stroke="#0A80D5" stroke-width="0.9"/><line x1="424.0" y1="98" x2="424.0" y2="152" stroke="#0A80D5" stroke-width="0.9"/><line x1="448.0" y1="98" x2="448.0" y2="152" stroke="#0A80D5" stroke-width="0.9"/><line x1="472.0" y1="98" x2="472.0" y2="152" stroke="#0A80D5" stroke-width="0.9"/><line x1="496.0" y1="98" x2="496.0" y2="152" stroke="#0A80D5" stroke-width="0.9"/><rect x="352.0" y="98" width="168.0" height="54" fill="#C22300" fill-opacity="0.16" stroke="none"/><line x1="352.0" y1="152" x2="520.0" y2="98" stroke="#C22300" stroke-width="1.8"/><rect x="40" y="98" width="480" height="54" fill="none" stroke="#0A80D5" stroke-width="2" rx="4" ry="4"/><text x="436.0" y="174" font-size="13" fill="#C22300" text-anchor="middle" font-weight="700" font-family='KaTeX_Main, "Untitled Sans", -apple-system, BlinkMacSystemFont, "Segoe UI", sans-serif'>35% off</text></svg>