<svg xmlns="http://www.w3.org/2000/svg" viewBox="0 0 598.0 224" width="598.0" height="224" style="font-family:-apple-system,Segoe UI,sans-serif" preserveAspectRatio="xMidYMid meet"><rect width="598.0" height="224" fill="#FFFFFF"/><rect x="126" y="46" width="266.0" height="44" fill="#8DD5F1" stroke="none" stroke-width="0" rx="0" ry="0"/><rect x="126" y="46" width="280" height="44" fill="none" stroke="#808080" stroke-width="1.4" rx="6" stroke-dasharray="5,4"/><rect x="126" y="46" width="266.0" height="44" fill="none" stroke="#0A80D5" stroke-width="2" rx="6" ry="6"/><text x="259.0" y="74.0" font-size="16" fill="#2B2B2B" text-anchor="middle" font-weight="700" font-family='KaTeX_Main, "Untitled Sans", -apple-system, BlinkMacSystemFont, "Segoe UI", sans-serif'>0.95x</text><line x1="406" y1="102" x2="384.0" y2="102" stroke="#C22300" stroke-width="2.2"/><polygon points="384.0,96.4 392.0,102 384.0,107.6" fill="#C22300"/><rect x="126" y="130" width="280" height="44" fill="none" stroke="#808080" stroke-width="1.4" rx="6" stroke-dasharray="5,4"/><rect x="126" y="130" width="322.0" height="44" fill="#8DD5F1" stroke="none" stroke-width="0" rx="0" ry="0"/><rect x="126" y="130" width="322.0" height="44" fill="none" stroke="#0A80D5" stroke-width="2" rx="6" ry="6"/><text x="287.0" y="158.0" font-size="16" fill="#2B2B2B" text-anchor="middle" font-weight="700" font-family='KaTeX_Main, "Untitled Sans", -apple-system, BlinkMacSystemFont, "Segoe UI", sans-serif'>1.15x</text><line x1="406" y1="186" x2="440.0" y2="186" stroke="#0A80D5" stroke-width="2.2"/><polygon points="440.0,180.4 448.0,186 440.0,191.6" fill="#0A80D5"/><text x="112" y="73.0" font-size="14" fill="#2B2B2B" text-anchor="end" font-weight="600" font-family='KaTeX_Main, "Untitled Sans", -apple-system, BlinkMacSystemFont, "Segoe UI", sans-serif'>Anna</text><text x="112" y="157.0" font-size="14" fill="#2B2B2B" text-anchor="end" font-weight="600" font-family='KaTeX_Main, "Untitled Sans", -apple-system, BlinkMacSystemFont, "Segoe UI", sans-serif'>Tom</text></svg>